<svg width="1056" height="271" viewBox="0 0 1056 271" fill="none" xmlns="http://www.w3.org/2000/svg">
<rect x="2.5" y="2.5" width="1051" height="266" rx="97.5" fill="#101B2F" stroke="#5086EB" stroke-width="5"/>
<mask id="path-2-outside-1_70_63" maskUnits="userSpaceOnUse" x="108" y="91" width="834" height="112" fill="black">
<rect fill="white" x="108" y="91" width="834" height="112"/>
<path d="M165.785 149.08L152.285 114.1C151.885 113.06 151.465 111.86 151.025 110.5C150.585 109.1 150.165 107.62 149.765 106.06C148.925 109.3 148.065 112 147.185 114.16L133.685 149.08H165.785ZM190.025 181H181.025C179.985 181 179.145 180.74 178.505 180.22C177.865 179.7 177.385 179.04 177.065 178.24L169.025 157.48H130.445L122.405 178.24C122.165 178.96 121.705 179.6 121.025 180.16C120.345 180.72 119.505 181 118.505 181H109.505L143.885 95.02H155.645L190.025 181ZM237.126 134.68C235.126 132 232.966 130.14 230.646 129.1C228.326 128.02 225.726 127.48 222.846 127.48C217.206 127.48 212.866 129.5 209.826 133.54C206.786 137.58 205.266 143.34 205.266 150.82C205.266 154.78 205.606 158.18 206.286 161.02C206.966 163.82 207.966 166.14 209.286 167.98C210.606 169.78 212.226 171.1 214.146 171.94C216.066 172.78 218.246 173.2 220.686 173.2C224.206 173.2 227.266 172.4 229.866 170.8C232.506 169.2 234.926 166.94 237.126 164.02V134.68ZM247.806 92.62V181H241.446C239.926 181 238.966 180.26 238.566 178.78L237.606 171.4C235.006 174.52 232.046 177.04 228.726 178.96C225.406 180.88 221.566 181.84 217.206 181.84C213.726 181.84 210.566 181.18 207.726 179.86C204.886 178.5 202.466 176.52 200.466 173.92C198.466 171.32 196.926 168.08 195.846 164.2C194.766 160.32 194.226 155.86 194.226 150.82C194.226 146.34 194.826 142.18 196.026 138.34C197.226 134.46 198.946 131.1 201.186 128.26C203.426 125.42 206.166 123.2 209.406 121.6C212.686 119.96 216.366 119.14 220.446 119.14C224.166 119.14 227.346 119.78 229.986 121.06C232.666 122.3 235.046 124.04 237.126 126.28V92.62H247.806ZM304.275 134.68C302.275 132 300.115 130.14 297.795 129.1C295.475 128.02 292.875 127.48 289.995 127.48C284.355 127.48 280.015 129.5 276.975 133.54C273.935 137.58 272.415 143.34 272.415 150.82C272.415 154.78 272.755 158.18 273.435 161.02C274.115 163.82 275.115 166.14 276.435 167.98C277.755 169.78 279.375 171.1 281.295 171.94C283.215 172.78 285.395 173.2 287.835 173.2C291.355 173.2 294.415 172.4 297.015 170.8C299.655 169.2 302.075 166.94 304.275 164.02V134.68ZM314.955 92.62V181H308.595C307.075 181 306.115 180.26 305.715 178.78L304.755 171.4C302.155 174.52 299.195 177.04 295.875 178.96C292.555 180.88 288.715 181.84 284.355 181.84C280.875 181.84 277.715 181.18 274.875 179.86C272.035 178.5 269.615 176.52 267.615 173.92C265.615 171.32 264.075 168.08 262.995 164.2C261.915 160.32 261.375 155.86 261.375 150.82C261.375 146.34 261.975 142.18 263.175 138.34C264.375 134.46 266.095 131.1 268.335 128.26C270.575 125.42 273.315 123.2 276.555 121.6C279.835 119.96 283.515 119.14 287.595 119.14C291.315 119.14 294.495 119.78 297.135 121.06C299.815 122.3 302.195 124.04 304.275 126.28V92.62H314.955ZM406.722 149.08L393.222 114.1C392.822 113.06 392.402 111.86 391.962 110.5C391.522 109.1 391.102 107.62 390.702 106.06C389.862 109.3 389.002 112 388.122 114.16L374.622 149.08H406.722ZM430.962 181H421.962C420.922 181 420.082 180.74 419.442 180.22C418.802 179.7 418.322 179.04 418.002 178.24L409.962 157.48H371.382L363.342 178.24C363.102 178.96 362.642 179.6 361.962 180.16C361.282 180.72 360.442 181 359.442 181H350.442L384.822 95.02H396.582L430.962 181ZM450.259 166.36C452.219 169 454.359 170.86 456.679 171.94C458.999 173.02 461.599 173.56 464.479 173.56C470.159 173.56 474.519 171.54 477.559 167.5C480.599 163.46 482.119 157.7 482.119 150.22C482.119 146.26 481.759 142.86 481.039 140.02C480.359 137.18 479.359 134.86 478.039 133.06C476.719 131.22 475.099 129.88 473.179 129.04C471.259 128.2 469.079 127.78 466.639 127.78C463.159 127.78 460.099 128.58 457.459 130.18C454.859 131.78 452.459 134.04 450.259 136.96V166.36ZM449.719 129.64C452.279 126.48 455.239 123.94 458.599 122.02C461.959 120.1 465.799 119.14 470.119 119.14C473.639 119.14 476.819 119.82 479.659 121.18C482.499 122.5 484.919 124.48 486.919 127.12C488.919 129.72 490.459 132.96 491.539 136.84C492.619 140.72 493.159 145.18 493.159 150.22C493.159 154.7 492.559 158.88 491.359 162.76C490.159 166.6 488.419 169.94 486.139 172.78C483.899 175.58 481.139 177.8 477.859 179.44C474.619 181.04 470.959 181.84 466.879 181.84C463.159 181.84 459.959 181.22 457.279 179.98C454.639 178.7 452.299 176.94 450.259 174.7V201.58H439.519V120.22H445.939C447.459 120.22 448.399 120.96 448.759 122.44L449.719 129.64ZM517.524 166.36C519.484 169 521.624 170.86 523.944 171.94C526.264 173.02 528.864 173.56 531.744 173.56C537.424 173.56 541.784 171.54 544.824 167.5C547.864 163.46 549.384 157.7 549.384 150.22C549.384 146.26 549.024 142.86 548.304 140.02C547.624 137.18 546.624 134.86 545.304 133.06C543.984 131.22 542.364 129.88 540.444 129.04C538.524 128.2 536.344 127.78 533.904 127.78C530.424 127.78 527.364 128.58 524.724 130.18C522.124 131.78 519.724 134.04 517.524 136.96V166.36ZM516.984 129.64C519.544 126.48 522.504 123.94 525.864 122.02C529.224 120.1 533.064 119.14 537.384 119.14C540.904 119.14 544.084 119.82 546.924 121.18C549.764 122.5 552.184 124.48 554.184 127.12C556.184 129.72 557.724 132.96 558.804 136.84C559.884 140.72 560.424 145.18 560.424 150.22C560.424 154.7 559.824 158.88 558.624 162.76C557.424 166.6 555.684 169.94 553.404 172.78C551.164 175.58 548.404 177.8 545.124 179.44C541.884 181.04 538.224 181.84 534.144 181.84C530.424 181.84 527.224 181.22 524.544 179.98C521.904 178.7 519.564 176.94 517.524 174.7V201.58H506.784V120.22H513.204C514.724 120.22 515.664 120.96 516.024 122.44L516.984 129.64ZM585.09 92.62V181H574.41V92.62H585.09ZM613.689 120.22V181H603.009V120.22H613.689ZM615.969 101.14C615.969 102.18 615.749 103.16 615.309 104.08C614.909 104.96 614.349 105.76 613.629 106.48C612.949 107.16 612.129 107.7 611.169 108.1C610.249 108.5 609.269 108.7 608.229 108.7C607.189 108.7 606.209 108.5 605.289 108.1C604.409 107.7 603.629 107.16 602.949 106.48C602.269 105.76 601.729 104.96 601.329 104.08C600.929 103.16 600.729 102.18 600.729 101.14C600.729 100.1 600.929 99.12 601.329 98.2C601.729 97.24 602.269 96.42 602.949 95.74C603.629 95.02 604.409 94.46 605.289 94.06C606.209 93.66 607.189 93.46 608.229 93.46C609.269 93.46 610.249 93.66 611.169 94.06C612.129 94.46 612.949 95.02 613.629 95.74C614.349 96.42 614.909 97.24 615.309 98.2C615.749 99.12 615.969 100.1 615.969 101.14ZM673.537 131.02C673.217 131.46 672.897 131.8 672.577 132.04C672.257 132.28 671.817 132.4 671.257 132.4C670.657 132.4 669.997 132.16 669.277 131.68C668.557 131.16 667.657 130.6 666.577 130C665.537 129.4 664.237 128.86 662.677 128.38C661.157 127.86 659.277 127.6 657.037 127.6C654.037 127.6 651.397 128.14 649.117 129.22C646.837 130.26 644.917 131.78 643.357 133.78C641.837 135.78 640.677 138.2 639.877 141.04C639.117 143.88 638.737 147.06 638.737 150.58C638.737 154.26 639.157 157.54 639.997 160.42C640.837 163.26 642.017 165.66 643.537 167.62C645.097 169.54 646.957 171.02 649.117 172.06C651.317 173.06 653.777 173.56 656.497 173.56C659.097 173.56 661.237 173.26 662.917 172.66C664.597 172.02 665.977 171.32 667.057 170.56C668.177 169.8 669.097 169.12 669.817 168.52C670.577 167.88 671.317 167.56 672.037 167.56C672.917 167.56 673.597 167.9 674.077 168.58L677.077 172.48C675.757 174.12 674.257 175.52 672.577 176.68C670.897 177.84 669.077 178.82 667.117 179.62C665.197 180.38 663.177 180.94 661.057 181.3C658.937 181.66 656.777 181.84 654.577 181.84C650.777 181.84 647.237 181.14 643.957 179.74C640.717 178.34 637.897 176.32 635.497 173.68C633.097 171 631.217 167.72 629.857 163.84C628.497 159.96 627.817 155.54 627.817 150.58C627.817 146.06 628.437 141.88 629.677 138.04C630.957 134.2 632.797 130.9 635.197 128.14C637.637 125.34 640.617 123.16 644.137 121.6C647.697 120.04 651.777 119.26 656.377 119.26C660.657 119.26 664.417 119.96 667.657 121.36C670.937 122.72 673.837 124.66 676.357 127.18L673.537 131.02ZM721.482 153.64C716.562 153.8 712.362 154.2 708.882 154.84C705.442 155.44 702.622 156.24 700.422 157.24C698.262 158.24 696.682 159.42 695.682 160.78C694.722 162.14 694.242 163.66 694.242 165.34C694.242 166.94 694.502 168.32 695.022 169.48C695.542 170.64 696.242 171.6 697.122 172.36C698.042 173.08 699.102 173.62 700.302 173.98C701.542 174.3 702.862 174.46 704.262 174.46C706.142 174.46 707.862 174.28 709.422 173.92C710.982 173.52 712.442 172.96 713.802 172.24C715.202 171.52 716.522 170.66 717.762 169.66C719.042 168.66 720.282 167.52 721.482 166.24V153.64ZM686.982 128.8C690.342 125.56 693.962 123.14 697.842 121.54C701.722 119.94 706.022 119.14 710.742 119.14C714.142 119.14 717.162 119.7 719.802 120.82C722.442 121.94 724.662 123.5 726.462 125.5C728.262 127.5 729.622 129.92 730.542 132.76C731.462 135.6 731.922 138.72 731.922 142.12V181H727.182C726.142 181 725.342 180.84 724.782 180.52C724.222 180.16 723.782 179.48 723.462 178.48L722.262 172.72C720.662 174.2 719.102 175.52 717.582 176.68C716.062 177.8 714.462 178.76 712.782 179.56C711.102 180.32 709.302 180.9 707.382 181.3C705.502 181.74 703.402 181.96 701.082 181.96C698.722 181.96 696.502 181.64 694.422 181C692.342 180.32 690.522 179.32 688.962 178C687.442 176.68 686.222 175.02 685.302 173.02C684.422 170.98 683.982 168.58 683.982 165.82C683.982 163.42 684.642 161.12 685.962 158.92C687.282 156.68 689.422 154.7 692.382 152.98C695.342 151.26 699.202 149.86 703.962 148.78C708.722 147.66 714.562 147.02 721.482 146.86V142.12C721.482 137.4 720.462 133.84 718.422 131.44C716.382 129 713.402 127.78 709.482 127.78C706.842 127.78 704.622 128.12 702.822 128.8C701.062 129.44 699.522 130.18 698.202 131.02C696.922 131.82 695.802 132.56 694.842 133.24C693.922 133.88 693.002 134.2 692.082 134.2C691.362 134.2 690.742 134.02 690.222 133.66C689.702 133.26 689.262 132.78 688.902 132.22L686.982 128.8ZM803.77 181H793.09V129.16H761.77V165.64C761.77 168.2 762.39 170.1 763.63 171.34C764.87 172.58 766.47 173.2 768.43 173.2C769.55 173.2 770.51 173.06 771.31 172.78C772.15 172.46 772.87 172.12 773.47 171.76C774.07 171.4 774.57 171.08 774.97 170.8C775.41 170.48 775.79 170.32 776.11 170.32C776.67 170.32 777.17 170.66 777.61 171.34L780.73 176.44C778.89 178.16 776.67 179.52 774.07 180.52C771.47 181.48 768.79 181.96 766.03 181.96C761.23 181.96 757.53 180.62 754.93 177.94C752.37 175.26 751.09 171.4 751.09 166.36V129.16H743.77C743.13 129.16 742.59 128.98 742.15 128.62C741.71 128.22 741.49 127.62 741.49 126.82V122.56L751.45 121.24L753.91 102.52C754.03 101.92 754.29 101.44 754.69 101.08C755.13 100.68 755.69 100.48 756.37 100.48H761.77V121.42H803.77V181ZM806.41 100.72C806.41 101.76 806.19 102.74 805.75 103.66C805.35 104.54 804.79 105.32 804.07 106C803.39 106.68 802.59 107.22 801.67 107.62C800.75 108.02 799.77 108.22 798.73 108.22C797.69 108.22 796.71 108.02 795.79 107.62C794.91 107.22 794.13 106.68 793.45 106C792.77 105.32 792.23 104.54 791.83 103.66C791.43 102.74 791.23 101.76 791.23 100.72C791.23 99.68 791.43 98.7 791.83 97.78C792.23 96.82 792.77 96 793.45 95.32C794.13 94.6 794.91 94.04 795.79 93.64C796.71 93.24 797.69 93.04 798.73 93.04C799.77 93.04 800.75 93.24 801.67 93.64C802.59 94.04 803.39 94.6 804.07 95.32C804.79 96 805.35 96.82 805.75 97.78C806.19 98.7 806.41 99.68 806.41 100.72ZM846.935 119.26C851.375 119.26 855.375 120 858.935 121.48C862.495 122.96 865.535 125.06 868.055 127.78C870.575 130.5 872.495 133.8 873.815 137.68C875.175 141.52 875.855 145.82 875.855 150.58C875.855 155.38 875.175 159.7 873.815 163.54C872.495 167.38 870.575 170.66 868.055 173.38C865.535 176.1 862.495 178.2 858.935 179.68C855.375 181.12 851.375 181.84 846.935 181.84C842.455 181.84 838.415 181.12 834.815 179.68C831.255 178.2 828.215 176.1 825.695 173.38C823.175 170.66 821.235 167.38 819.875 163.54C818.555 159.7 817.895 155.38 817.895 150.58C817.895 145.82 818.555 141.52 819.875 137.68C821.235 133.8 823.175 130.5 825.695 127.78C828.215 125.06 831.255 122.96 834.815 121.48C838.415 120 842.455 119.26 846.935 119.26ZM846.935 173.5C852.935 173.5 857.415 171.5 860.375 167.5C863.335 163.46 864.815 157.84 864.815 150.64C864.815 143.4 863.335 137.76 860.375 133.72C857.415 129.68 852.935 127.66 846.935 127.66C843.895 127.66 841.235 128.18 838.955 129.22C836.715 130.26 834.835 131.76 833.315 133.72C831.835 135.68 830.715 138.1 829.955 140.98C829.235 143.82 828.875 147.04 828.875 150.64C828.875 157.84 830.355 163.46 833.315 167.5C836.315 171.5 840.855 173.5 846.935 173.5ZM899.481 129.04C900.801 127.56 902.201 126.22 903.681 125.02C905.161 123.82 906.721 122.8 908.361 121.96C910.041 121.08 911.801 120.42 913.641 119.98C915.521 119.5 917.541 119.26 919.701 119.26C923.021 119.26 925.941 119.82 928.461 120.94C931.021 122.02 933.141 123.58 934.821 125.62C936.541 127.62 937.841 130.04 938.721 132.88C939.601 135.72 940.041 138.86 940.041 142.3V181H929.301V142.3C929.301 137.7 928.241 134.14 926.121 131.62C924.041 129.06 920.861 127.78 916.581 127.78C913.421 127.78 910.461 128.54 907.701 130.06C904.981 131.58 902.461 133.64 900.141 136.24V181H889.401V120.22H895.821C897.341 120.22 898.281 120.96 898.641 122.44L899.481 129.04Z"/>
</mask>
<path d="M165.785 149.08L152.285 114.1C151.885 113.06 151.465 111.86 151.025 110.5C150.585 109.1 150.165 107.62 149.765 106.06C148.925 109.3 148.065 112 147.185 114.16L133.685 149.08H165.785ZM190.025 181H181.025C179.985 181 179.145 180.74 178.505 180.22C177.865 179.7 177.385 179.04 177.065 178.24L169.025 157.48H130.445L122.405 178.24C122.165 178.96 121.705 179.6 121.025 180.16C120.345 180.72 119.505 181 118.505 181H109.505L143.885 95.02H155.645L190.025 181ZM237.126 134.68C235.126 132 232.966 130.14 230.646 129.1C228.326 128.02 225.726 127.48 222.846 127.48C217.206 127.48 212.866 129.5 209.826 133.54C206.786 137.58 205.266 143.34 205.266 150.82C205.266 154.78 205.606 158.18 206.286 161.02C206.966 163.82 207.966 166.14 209.286 167.98C210.606 169.78 212.226 171.1 214.146 171.94C216.066 172.78 218.246 173.2 220.686 173.2C224.206 173.2 227.266 172.4 229.866 170.8C232.506 169.2 234.926 166.94 237.126 164.02V134.68ZM247.806 92.62V181H241.446C239.926 181 238.966 180.26 238.566 178.78L237.606 171.4C235.006 174.52 232.046 177.04 228.726 178.96C225.406 180.88 221.566 181.84 217.206 181.84C213.726 181.84 210.566 181.18 207.726 179.86C204.886 178.5 202.466 176.52 200.466 173.92C198.466 171.32 196.926 168.08 195.846 164.2C194.766 160.32 194.226 155.86 194.226 150.82C194.226 146.34 194.826 142.18 196.026 138.34C197.226 134.46 198.946 131.1 201.186 128.26C203.426 125.42 206.166 123.2 209.406 121.6C212.686 119.96 216.366 119.14 220.446 119.14C224.166 119.14 227.346 119.78 229.986 121.06C232.666 122.3 235.046 124.04 237.126 126.28V92.62H247.806ZM304.275 134.68C302.275 132 300.115 130.14 297.795 129.1C295.475 128.02 292.875 127.48 289.995 127.48C284.355 127.48 280.015 129.5 276.975 133.54C273.935 137.58 272.415 143.34 272.415 150.82C272.415 154.78 272.755 158.18 273.435 161.02C274.115 163.82 275.115 166.14 276.435 167.98C277.755 169.78 279.375 171.1 281.295 171.94C283.215 172.78 285.395 173.2 287.835 173.2C291.355 173.2 294.415 172.4 297.015 170.8C299.655 169.2 302.075 166.94 304.275 164.02V134.68ZM314.955 92.62V181H308.595C307.075 181 306.115 180.26 305.715 178.78L304.755 171.4C302.155 174.52 299.195 177.04 295.875 178.96C292.555 180.88 288.715 181.84 284.355 181.84C280.875 181.84 277.715 181.18 274.875 179.86C272.035 178.5 269.615 176.52 267.615 173.92C265.615 171.32 264.075 168.08 262.995 164.2C261.915 160.32 261.375 155.86 261.375 150.82C261.375 146.34 261.975 142.18 263.175 138.34C264.375 134.46 266.095 131.1 268.335 128.26C270.575 125.42 273.315 123.2 276.555 121.6C279.835 119.96 283.515 119.14 287.595 119.14C291.315 119.14 294.495 119.78 297.135 121.06C299.815 122.3 302.195 124.04 304.275 126.28V92.62H314.955ZM406.722 149.08L393.222 114.1C392.822 113.06 392.402 111.86 391.962 110.5C391.522 109.1 391.102 107.62 390.702 106.06C389.862 109.3 389.002 112 388.122 114.16L374.622 149.08H406.722ZM430.962 181H421.962C420.922 181 420.082 180.74 419.442 180.22C418.802 179.7 418.322 179.04 418.002 178.24L409.962 157.48H371.382L363.342 178.24C363.102 178.96 362.642 179.6 361.962 180.16C361.282 180.72 360.442 181 359.442 181H350.442L384.822 95.02H396.582L430.962 181ZM450.259 166.36C452.219 169 454.359 170.86 456.679 171.94C458.999 173.02 461.599 173.56 464.479 173.56C470.159 173.56 474.519 171.54 477.559 167.5C480.599 163.46 482.119 157.7 482.119 150.22C482.119 146.26 481.759 142.86 481.039 140.02C480.359 137.18 479.359 134.86 478.039 133.06C476.719 131.22 475.099 129.88 473.179 129.04C471.259 128.2 469.079 127.78 466.639 127.78C463.159 127.78 460.099 128.58 457.459 130.18C454.859 131.78 452.459 134.04 450.259 136.96V166.36ZM449.719 129.64C452.279 126.48 455.239 123.94 458.599 122.02C461.959 120.1 465.799 119.14 470.119 119.14C473.639 119.14 476.819 119.82 479.659 121.18C482.499 122.5 484.919 124.48 486.919 127.12C488.919 129.72 490.459 132.96 491.539 136.84C492.619 140.72 493.159 145.18 493.159 150.22C493.159 154.7 492.559 158.88 491.359 162.76C490.159 166.6 488.419 169.94 486.139 172.78C483.899 175.58 481.139 177.8 477.859 179.44C474.619 181.04 470.959 181.84 466.879 181.84C463.159 181.84 459.959 181.22 457.279 179.98C454.639 178.7 452.299 176.94 450.259 174.7V201.58H439.519V120.22H445.939C447.459 120.22 448.399 120.96 448.759 122.44L449.719 129.64ZM517.524 166.36C519.484 169 521.624 170.86 523.944 171.94C526.264 173.02 528.864 173.56 531.744 173.56C537.424 173.56 541.784 171.54 544.824 167.5C547.864 163.46 549.384 157.7 549.384 150.22C549.384 146.26 549.024 142.86 548.304 140.02C547.624 137.18 546.624 134.86 545.304 133.06C543.984 131.22 542.364 129.88 540.444 129.04C538.524 128.2 536.344 127.78 533.904 127.78C530.424 127.78 527.364 128.58 524.724 130.18C522.124 131.78 519.724 134.04 517.524 136.96V166.36ZM516.984 129.64C519.544 126.48 522.504 123.94 525.864 122.02C529.224 120.1 533.064 119.14 537.384 119.14C540.904 119.14 544.084 119.82 546.924 121.18C549.764 122.5 552.184 124.48 554.184 127.12C556.184 129.72 557.724 132.96 558.804 136.84C559.884 140.72 560.424 145.18 560.424 150.22C560.424 154.7 559.824 158.88 558.624 162.76C557.424 166.6 555.684 169.94 553.404 172.78C551.164 175.58 548.404 177.8 545.124 179.44C541.884 181.04 538.224 181.84 534.144 181.84C530.424 181.84 527.224 181.22 524.544 179.98C521.904 178.7 519.564 176.94 517.524 174.7V201.58H506.784V120.22H513.204C514.724 120.22 515.664 120.96 516.024 122.44L516.984 129.64ZM585.09 92.62V181H574.41V92.62H585.09ZM613.689 120.22V181H603.009V120.22H613.689ZM615.969 101.14C615.969 102.18 615.749 103.16 615.309 104.08C614.909 104.96 614.349 105.76 613.629 106.48C612.949 107.16 612.129 107.7 611.169 108.1C610.249 108.5 609.269 108.7 608.229 108.7C607.189 108.7 606.209 108.5 605.289 108.1C604.409 107.7 603.629 107.16 602.949 106.48C602.269 105.76 601.729 104.96 601.329 104.08C600.929 103.16 600.729 102.18 600.729 101.14C600.729 100.1 600.929 99.12 601.329 98.2C601.729 97.24 602.269 96.42 602.949 95.74C603.629 95.02 604.409 94.46 605.289 94.06C606.209 93.66 607.189 93.46 608.229 93.46C609.269 93.46 610.249 93.66 611.169 94.06C612.129 94.46 612.949 95.02 613.629 95.74C614.349 96.42 614.909 97.24 615.309 98.2C615.749 99.12 615.969 100.1 615.969 101.14ZM673.537 131.02C673.217 131.46 672.897 131.8 672.577 132.04C672.257 132.28 671.817 132.4 671.257 132.4C670.657 132.4 669.997 132.16 669.277 131.68C668.557 131.16 667.657 130.6 666.577 130C665.537 129.4 664.237 128.86 662.677 128.38C661.157 127.86 659.277 127.6 657.037 127.6C654.037 127.6 651.397 128.14 649.117 129.22C646.837 130.26 644.917 131.78 643.357 133.78C641.837 135.78 640.677 138.2 639.877 141.04C639.117 143.88 638.737 147.06 638.737 150.58C638.737 154.26 639.157 157.54 639.997 160.42C640.837 163.26 642.017 165.66 643.537 167.62C645.097 169.54 646.957 171.02 649.117 172.06C651.317 173.06 653.777 173.56 656.497 173.56C659.097 173.56 661.237 173.26 662.917 172.66C664.597 172.02 665.977 171.32 667.057 170.56C668.177 169.8 669.097 169.12 669.817 168.52C670.577 167.88 671.317 167.56 672.037 167.56C672.917 167.56 673.597 167.9 674.077 168.58L677.077 172.48C675.757 174.12 674.257 175.52 672.577 176.68C670.897 177.84 669.077 178.82 667.117 179.62C665.197 180.38 663.177 180.94 661.057 181.3C658.937 181.66 656.777 181.84 654.577 181.84C650.777 181.84 647.237 181.14 643.957 179.74C640.717 178.34 637.897 176.32 635.497 173.68C633.097 171 631.217 167.72 629.857 163.84C628.497 159.96 627.817 155.54 627.817 150.58C627.817 146.06 628.437 141.88 629.677 138.04C630.957 134.2 632.797 130.9 635.197 128.14C637.637 125.34 640.617 123.16 644.137 121.6C647.697 120.04 651.777 119.26 656.377 119.26C660.657 119.26 664.417 119.96 667.657 121.36C670.937 122.72 673.837 124.66 676.357 127.18L673.537 131.02ZM721.482 153.64C716.562 153.8 712.362 154.2 708.882 154.84C705.442 155.44 702.622 156.24 700.422 157.24C698.262 158.24 696.682 159.42 695.682 160.78C694.722 162.14 694.242 163.66 694.242 165.34C694.242 166.94 694.502 168.32 695.022 169.48C695.542 170.64 696.242 171.6 697.122 172.36C698.042 173.08 699.102 173.62 700.302 173.98C701.542 174.3 702.862 174.46 704.262 174.46C706.142 174.46 707.862 174.28 709.422 173.92C710.982 173.52 712.442 172.96 713.802 172.24C715.202 171.52 716.522 170.66 717.762 169.66C719.042 168.66 720.282 167.52 721.482 166.24V153.64ZM686.982 128.8C690.342 125.56 693.962 123.14 697.842 121.54C701.722 119.94 706.022 119.14 710.742 119.14C714.142 119.14 717.162 119.7 719.802 120.82C722.442 121.94 724.662 123.5 726.462 125.5C728.262 127.5 729.622 129.92 730.542 132.76C731.462 135.6 731.922 138.72 731.922 142.12V181H727.182C726.142 181 725.342 180.84 724.782 180.52C724.222 180.16 723.782 179.48 723.462 178.48L722.262 172.72C720.662 174.2 719.102 175.52 717.582 176.68C716.062 177.8 714.462 178.76 712.782 179.56C711.102 180.32 709.302 180.9 707.382 181.3C705.502 181.74 703.402 181.96 701.082 181.96C698.722 181.96 696.502 181.64 694.422 181C692.342 180.32 690.522 179.32 688.962 178C687.442 176.68 686.222 175.02 685.302 173.02C684.422 170.98 683.982 168.58 683.982 165.82C683.982 163.42 684.642 161.12 685.962 158.92C687.282 156.68 689.422 154.7 692.382 152.98C695.342 151.26 699.202 149.86 703.962 148.78C708.722 147.66 714.562 147.02 721.482 146.86V142.12C721.482 137.4 720.462 133.84 718.422 131.44C716.382 129 713.402 127.78 709.482 127.78C706.842 127.78 704.622 128.12 702.822 128.8C701.062 129.44 699.522 130.18 698.202 131.02C696.922 131.82 695.802 132.56 694.842 133.24C693.922 133.88 693.002 134.2 692.082 134.2C691.362 134.2 690.742 134.02 690.222 133.66C689.702 133.26 689.262 132.78 688.902 132.22L686.982 128.8ZM803.77 181H793.09V129.16H761.77V165.64C761.77 168.2 762.39 170.1 763.63 171.34C764.87 172.58 766.47 173.2 768.43 173.2C769.55 173.2 770.51 173.06 771.31 172.78C772.15 172.46 772.87 172.12 773.47 171.76C774.07 171.4 774.57 171.08 774.97 170.8C775.41 170.48 775.79 170.32 776.11 170.32C776.67 170.32 777.17 170.66 777.61 171.34L780.73 176.44C778.89 178.16 776.67 179.52 774.07 180.52C771.47 181.48 768.79 181.96 766.03 181.96C761.23 181.96 757.53 180.62 754.93 177.94C752.37 175.26 751.09 171.4 751.09 166.36V129.16H743.77C743.13 129.16 742.59 128.98 742.15 128.62C741.71 128.22 741.49 127.62 741.49 126.82V122.56L751.45 121.24L753.91 102.52C754.03 101.92 754.29 101.44 754.69 101.08C755.13 100.68 755.69 100.48 756.37 100.48H761.77V121.42H803.77V181ZM806.41 100.72C806.41 101.76 806.19 102.74 805.75 103.66C805.35 104.54 804.79 105.32 804.07 106C803.39 106.68 802.59 107.22 801.67 107.62C800.75 108.02 799.77 108.22 798.73 108.22C797.69 108.22 796.71 108.02 795.79 107.62C794.91 107.22 794.13 106.68 793.45 106C792.77 105.32 792.23 104.54 791.83 103.66C791.43 102.74 791.23 101.76 791.23 100.72C791.23 99.68 791.43 98.7 791.83 97.78C792.23 96.82 792.77 96 793.45 95.32C794.13 94.6 794.91 94.04 795.79 93.64C796.71 93.24 797.69 93.04 798.73 93.04C799.77 93.04 800.75 93.24 801.67 93.64C802.59 94.04 803.39 94.6 804.07 95.32C804.79 96 805.35 96.82 805.75 97.78C806.19 98.7 806.41 99.68 806.41 100.72ZM846.935 119.26C851.375 119.26 855.375 120 858.935 121.48C862.495 122.96 865.535 125.06 868.055 127.78C870.575 130.5 872.495 133.8 873.815 137.68C875.175 141.52 875.855 145.82 875.855 150.58C875.855 155.38 875.175 159.7 873.815 163.54C872.495 167.38 870.575 170.66 868.055 173.38C865.535 176.1 862.495 178.2 858.935 179.68C855.375 181.12 851.375 181.84 846.935 181.84C842.455 181.84 838.415 181.12 834.815 179.68C831.255 178.2 828.215 176.1 825.695 173.38C823.175 170.66 821.235 167.38 819.875 163.54C818.555 159.7 817.895 155.38 817.895 150.58C817.895 145.82 818.555 141.52 819.875 137.68C821.235 133.8 823.175 130.5 825.695 127.78C828.215 125.06 831.255 122.96 834.815 121.48C838.415 120 842.455 119.26 846.935 119.26ZM846.935 173.5C852.935 173.5 857.415 171.5 860.375 167.5C863.335 163.46 864.815 157.84 864.815 150.64C864.815 143.4 863.335 137.76 860.375 133.72C857.415 129.68 852.935 127.66 846.935 127.66C843.895 127.66 841.235 128.18 838.955 129.22C836.715 130.26 834.835 131.76 833.315 133.72C831.835 135.68 830.715 138.1 829.955 140.98C829.235 143.82 828.875 147.04 828.875 150.64C828.875 157.84 830.355 163.46 833.315 167.5C836.315 171.5 840.855 173.5 846.935 173.5ZM899.481 129.04C900.801 127.56 902.201 126.22 903.681 125.02C905.161 123.82 906.721 122.8 908.361 121.96C910.041 121.08 911.801 120.42 913.641 119.98C915.521 119.5 917.541 119.26 919.701 119.26C923.021 119.26 925.941 119.82 928.461 120.94C931.021 122.02 933.141 123.58 934.821 125.62C936.541 127.62 937.841 130.04 938.721 132.88C939.601 135.72 940.041 138.86 940.041 142.3V181H929.301V142.3C929.301 137.7 928.241 134.14 926.121 131.62C924.041 129.06 920.861 127.78 916.581 127.78C913.421 127.78 910.461 128.54 907.701 130.06C904.981 131.58 902.461 133.64 900.141 136.24V181H889.401V120.22H895.821C897.341 120.22 898.281 120.96 898.641 122.44L899.481 129.04Z" fill="#D9D9D9"/>
<path d="M165.785 149.08V150.08H167.242L166.717 148.72L165.785 149.08ZM152.285 114.1L151.351 114.459L151.352 114.46L152.285 114.1ZM151.025 110.5L150.071 110.8L150.073 110.808L151.025 110.5ZM149.765 106.06L150.733 105.812L148.797 105.809L149.765 106.06ZM147.185 114.16L146.258 113.783L146.255 113.791L146.252 113.799L147.185 114.16ZM133.685 149.08L132.752 148.719L132.226 150.08H133.685V149.08ZM190.025 181V182H191.501L190.953 180.629L190.025 181ZM178.505 180.22L177.874 180.996V180.996L178.505 180.22ZM177.065 178.24L176.132 178.601L176.136 178.611L177.065 178.24ZM169.025 157.48L169.957 157.119L169.71 156.48H169.025V157.48ZM130.445 157.48V156.48H129.759L129.512 157.119L130.445 157.48ZM122.405 178.24L121.472 177.879L121.463 177.901L121.456 177.924L122.405 178.24ZM121.025 180.16L121.66 180.932L121.025 180.16ZM109.505 181L108.576 180.629L108.028 182H109.505V181ZM143.885 95.02V94.02H143.207L142.956 94.6487L143.885 95.02ZM155.645 95.02L156.573 94.6487L156.322 94.02H155.645V95.02ZM166.717 148.72L153.217 113.74L151.352 114.46L164.852 149.44L166.717 148.72ZM153.218 113.741C152.826 112.722 152.412 111.539 151.976 110.192L150.073 110.808C150.517 112.181 150.943 113.398 151.351 114.459L153.218 113.741ZM151.979 110.2C151.544 108.819 151.129 107.356 150.733 105.812L148.796 106.308C149.2 107.884 149.625 109.381 150.071 110.8L151.979 110.2ZM148.797 105.809C147.963 109.023 147.116 111.677 146.258 113.783L148.111 114.537C149.013 112.323 149.886 109.577 150.733 106.311L148.797 105.809ZM146.252 113.799L132.752 148.719L134.617 149.441L148.117 114.521L146.252 113.799ZM133.685 150.08H165.785V148.08H133.685V150.08ZM190.025 180H181.025V182H190.025V180ZM181.025 180C180.153 180 179.554 179.785 179.135 179.444L177.874 180.996C178.735 181.695 179.816 182 181.025 182V180ZM179.135 179.444C178.633 179.036 178.253 178.518 177.993 177.869L176.136 178.611C176.516 179.562 177.096 180.364 177.874 180.996L179.135 179.444ZM177.997 177.879L169.957 157.119L168.092 157.841L176.132 178.601L177.997 177.879ZM169.025 156.48H130.445V158.48H169.025V156.48ZM129.512 157.119L121.472 177.879L123.337 178.601L131.377 157.841L129.512 157.119ZM121.456 177.924C121.284 178.438 120.948 178.928 120.389 179.388L121.66 180.932C122.462 180.272 123.045 179.482 123.353 178.556L121.456 177.924ZM120.389 179.388C119.912 179.781 119.306 180 118.505 180V182C119.703 182 120.777 181.659 121.66 180.932L120.389 179.388ZM118.505 180H109.505V182H118.505V180ZM110.433 181.371L144.813 95.3913L142.956 94.6487L108.576 180.629L110.433 181.371ZM143.885 96.02H155.645V94.02H143.885V96.02ZM154.716 95.3913L189.096 181.371L190.953 180.629L156.573 94.6487L154.716 95.3913ZM237.126 134.68H238.126V134.348L237.928 134.082L237.126 134.68ZM230.646 129.1L230.224 130.007L230.231 130.01L230.237 130.013L230.646 129.1ZM209.826 133.54L210.625 134.141L209.826 133.54ZM206.286 161.02L205.314 161.253L205.315 161.256L206.286 161.02ZM209.286 167.98L208.474 168.563L208.48 168.571L209.286 167.98ZM229.866 170.8L229.348 169.945L229.342 169.948L229.866 170.8ZM237.126 164.02L237.925 164.622L238.126 164.355V164.02H237.126ZM247.806 92.62H248.806V91.62H247.806V92.62ZM247.806 181V182H248.806V181H247.806ZM238.566 178.78L237.575 178.909L237.583 178.976L237.601 179.041L238.566 178.78ZM237.606 171.4L238.598 171.271L238.303 169.002L236.838 170.76L237.606 171.4ZM228.726 178.96L228.226 178.094L228.726 178.96ZM207.726 179.86L207.294 180.762L207.305 180.767L207.726 179.86ZM200.466 173.92L201.259 173.31L200.466 173.92ZM195.846 164.2L196.81 163.932L195.846 164.2ZM196.026 138.34L196.981 138.638L196.982 138.635L196.026 138.34ZM201.186 128.26L200.401 127.641L201.186 128.26ZM209.406 121.6L209.849 122.497L209.854 122.494L209.406 121.6ZM229.986 121.06L229.55 121.96L229.558 121.964L229.566 121.968L229.986 121.06ZM237.126 126.28L236.394 126.96L238.126 128.827V126.28H237.126ZM237.126 92.62V91.62H236.126V92.62H237.126ZM237.928 134.082C235.857 131.307 233.572 129.316 231.055 128.187L230.237 130.013C232.361 130.964 234.396 132.693 236.325 135.278L237.928 134.082ZM231.068 128.193C228.601 127.045 225.854 126.48 222.846 126.48V128.48C225.599 128.48 228.052 128.995 230.224 130.007L231.068 128.193ZM222.846 126.48C216.934 126.48 212.28 128.616 209.027 132.939L210.625 134.141C213.453 130.384 217.479 128.48 222.846 128.48V126.48ZM209.027 132.939C205.808 137.217 204.266 143.223 204.266 150.82H206.266C206.266 143.457 207.765 137.942 210.625 134.141L209.027 132.939ZM204.266 150.82C204.266 154.833 204.61 158.315 205.314 161.253L207.259 160.787C206.602 158.045 206.266 154.727 206.266 150.82H204.266ZM205.315 161.256C206.017 164.148 207.062 166.594 208.474 168.563L210.099 167.397C208.871 165.686 207.916 163.492 207.258 160.784L205.315 161.256ZM208.48 168.571C209.897 170.504 211.654 171.941 213.746 172.856L214.547 171.024C212.799 170.259 211.316 169.056 210.093 167.389L208.48 168.571ZM213.746 172.856C215.811 173.76 218.131 174.2 220.686 174.2V172.2C218.362 172.2 216.322 171.8 214.547 171.024L213.746 172.856ZM220.686 174.2C224.363 174.2 227.61 173.363 230.391 171.652L229.342 169.948C226.923 171.437 224.05 172.2 220.686 172.2V174.2ZM230.385 171.655C233.151 169.978 235.662 167.625 237.925 164.622L236.328 163.418C234.19 166.255 231.861 168.422 229.348 169.945L230.385 171.655ZM238.126 164.02V134.68H236.126V164.02H238.126ZM246.806 92.62V181H248.806V92.62H246.806ZM247.806 180H241.446V182H247.806V180ZM241.446 180C240.85 180 240.462 179.857 240.197 179.653C239.931 179.448 239.69 179.105 239.532 178.519L237.601 179.041C237.843 179.935 238.281 180.702 238.976 181.237C239.671 181.773 240.523 182 241.446 182V180ZM239.558 178.651L238.598 171.271L236.615 171.529L237.575 178.909L239.558 178.651ZM236.838 170.76C234.309 173.795 231.438 176.237 228.226 178.094L229.227 179.826C232.655 177.843 235.704 175.245 238.375 172.04L236.838 170.76ZM228.226 178.094C225.078 179.915 221.415 180.84 217.206 180.84V182.84C221.718 182.84 225.735 181.845 229.227 179.826L228.226 178.094ZM217.206 180.84C213.856 180.84 210.842 180.205 208.148 178.953L207.305 180.767C210.291 182.155 213.597 182.84 217.206 182.84V180.84ZM208.158 178.958C205.466 177.669 203.167 175.791 201.259 173.31L199.674 174.53C201.765 177.249 204.307 179.331 207.295 180.762L208.158 178.958ZM201.259 173.31C199.353 170.832 197.863 167.715 196.81 163.932L194.883 164.468C195.99 168.445 197.58 171.808 199.674 174.53L201.259 173.31ZM196.81 163.932C195.759 160.158 195.226 155.791 195.226 150.82H193.226C193.226 155.929 193.774 160.482 194.883 164.468L196.81 163.932ZM195.226 150.82C195.226 146.43 195.814 142.371 196.981 138.638L195.072 138.042C193.839 141.989 193.226 146.25 193.226 150.82H195.226ZM196.982 138.635C198.15 134.859 199.817 131.612 201.972 128.879L200.401 127.641C198.076 130.588 196.303 134.061 195.071 138.045L196.982 138.635ZM201.972 128.879C204.12 126.156 206.743 124.031 209.849 122.497L208.964 120.703C205.59 122.369 202.733 124.684 200.401 127.641L201.972 128.879ZM209.854 122.494C212.98 120.931 216.504 120.14 220.446 120.14V118.14C216.229 118.14 212.393 118.989 208.959 120.706L209.854 122.494ZM220.446 120.14C224.055 120.14 227.078 120.761 229.55 121.96L230.423 120.16C227.615 118.799 224.278 118.14 220.446 118.14V120.14ZM229.566 121.968C232.124 123.151 234.399 124.812 236.394 126.96L237.859 125.6C235.694 123.268 233.209 121.449 230.406 120.152L229.566 121.968ZM238.126 126.28V92.62H236.126V126.28H238.126ZM237.126 93.62H247.806V91.62H237.126V93.62ZM304.275 134.68H305.275V134.348L305.076 134.082L304.275 134.68ZM297.795 129.1L297.373 130.007L297.379 130.01L297.386 130.013L297.795 129.1ZM276.975 133.54L277.774 134.141L276.975 133.54ZM273.435 161.02L272.462 161.253L272.463 161.256L273.435 161.02ZM276.435 167.98L275.622 168.563L275.628 168.571L276.435 167.98ZM297.015 170.8L296.497 169.945L296.491 169.948L297.015 170.8ZM304.275 164.02L305.074 164.622L305.275 164.355V164.02H304.275ZM314.955 92.62H315.955V91.62H314.955V92.62ZM314.955 181V182H315.955V181H314.955ZM305.715 178.78L304.723 178.909L304.732 178.976L304.749 179.041L305.715 178.78ZM304.755 171.4L305.746 171.271L305.451 169.002L303.987 170.76L304.755 171.4ZM295.875 178.96L295.374 178.094L295.875 178.96ZM274.875 179.86L274.443 180.762L274.453 180.767L274.875 179.86ZM267.615 173.92L268.407 173.31L267.615 173.92ZM262.995 164.2L263.958 163.932L262.995 164.2ZM263.175 138.34L264.129 138.638L264.13 138.635L263.175 138.34ZM268.335 128.26L267.55 127.641L268.335 128.26ZM276.555 121.6L276.998 122.497L277.002 122.494L276.555 121.6ZM297.135 121.06L296.699 121.96L296.707 121.964L296.715 121.968L297.135 121.06ZM304.275 126.28L303.542 126.96L305.275 128.827V126.28H304.275ZM304.275 92.62V91.62H303.275V92.62H304.275ZM305.076 134.082C303.006 131.307 300.721 129.316 298.204 128.187L297.386 130.013C299.509 130.964 301.544 132.693 303.473 135.278L305.076 134.082ZM298.217 128.193C295.749 127.045 293.002 126.48 289.995 126.48V128.48C292.747 128.48 295.201 128.995 297.373 130.007L298.217 128.193ZM289.995 126.48C284.082 126.48 279.428 128.616 276.176 132.939L277.774 134.141C280.601 130.384 284.627 128.48 289.995 128.48V126.48ZM276.176 132.939C272.956 137.217 271.415 143.223 271.415 150.82H273.415C273.415 143.457 274.914 137.942 277.774 134.141L276.176 132.939ZM271.415 150.82C271.415 154.833 271.759 158.315 272.462 161.253L274.407 160.787C273.751 158.045 273.415 154.727 273.415 150.82H271.415ZM272.463 161.256C273.165 164.148 274.21 166.594 275.622 168.563L277.247 167.397C276.02 165.686 275.064 163.492 274.407 160.784L272.463 161.256ZM275.628 168.571C277.046 170.504 278.802 171.941 280.894 172.856L281.696 171.024C279.948 170.259 278.464 169.056 277.241 167.389L275.628 168.571ZM280.894 172.856C282.959 173.76 285.279 174.2 287.835 174.2V172.2C285.51 172.2 283.47 171.8 281.696 171.024L280.894 172.856ZM287.835 174.2C291.511 174.2 294.758 173.363 297.539 171.652L296.491 169.948C294.071 171.437 291.199 172.2 287.835 172.2V174.2ZM297.533 171.655C300.3 169.978 302.811 167.625 305.074 164.622L303.476 163.418C301.339 166.255 299.01 168.422 296.497 169.945L297.533 171.655ZM305.275 164.02V134.68H303.275V164.02H305.275ZM313.955 92.62V181H315.955V92.62H313.955ZM314.955 180H308.595V182H314.955V180ZM308.595 180C307.999 180 307.61 179.857 307.345 179.653C307.08 179.448 306.838 179.105 306.68 178.519L304.749 179.041C304.991 179.935 305.43 180.702 306.124 181.237C306.82 181.773 307.671 182 308.595 182V180ZM306.706 178.651L305.746 171.271L303.763 171.529L304.723 178.909L306.706 178.651ZM303.987 170.76C301.457 173.795 298.587 176.237 295.374 178.094L296.375 179.826C299.803 177.843 302.852 175.245 305.523 172.04L303.987 170.76ZM295.374 178.094C292.226 179.915 288.564 180.84 284.355 180.84V182.84C288.866 182.84 292.883 181.845 296.375 179.826L295.374 178.094ZM284.355 180.84C281.004 180.84 277.99 180.205 275.296 178.953L274.453 180.767C277.439 182.155 280.746 182.84 284.355 182.84V180.84ZM275.307 178.958C272.614 177.669 270.316 175.791 268.407 173.31L266.822 174.53C268.914 177.249 271.455 179.331 274.443 180.762L275.307 178.958ZM268.407 173.31C266.501 170.832 265.011 167.715 263.958 163.932L262.031 164.468C263.138 168.445 264.728 171.808 266.822 174.53L268.407 173.31ZM263.958 163.932C262.908 160.158 262.375 155.791 262.375 150.82H260.375C260.375 155.929 260.922 160.482 262.031 164.468L263.958 163.932ZM262.375 150.82C262.375 146.43 262.963 142.371 264.129 138.638L262.22 138.042C260.987 141.989 260.375 146.25 260.375 150.82H262.375ZM264.13 138.635C265.298 134.859 266.965 131.612 269.12 128.879L267.55 127.641C265.225 130.588 263.451 134.061 262.219 138.045L264.13 138.635ZM269.12 128.879C271.268 126.156 273.891 124.031 276.998 122.497L276.112 120.703C272.739 122.369 269.882 124.684 267.55 127.641L269.12 128.879ZM277.002 122.494C280.128 120.931 283.652 120.14 287.595 120.14V118.14C283.377 118.14 279.541 118.989 276.108 120.706L277.002 122.494ZM287.595 120.14C291.203 120.14 294.226 120.761 296.699 121.96L297.571 120.16C294.764 118.799 291.427 118.14 287.595 118.14V120.14ZM296.715 121.968C299.273 123.151 301.547 124.812 303.542 126.96L305.008 125.6C302.842 123.268 300.357 121.449 297.555 120.152L296.715 121.968ZM305.275 126.28V92.62H303.275V126.28H305.275ZM304.275 93.62H314.955V91.62H304.275V93.62ZM406.722 149.08V150.08H408.18L407.655 148.72L406.722 149.08ZM393.222 114.1L392.289 114.459L392.289 114.46L393.222 114.1ZM391.962 110.5L391.008 110.8L391.011 110.808L391.962 110.5ZM390.702 106.06L391.671 105.812L389.734 105.809L390.702 106.06ZM388.122 114.16L387.196 113.783L387.193 113.791L387.189 113.799L388.122 114.16ZM374.622 149.08L373.689 148.719L373.163 150.08H374.622V149.08ZM430.962 181V182H432.439L431.891 180.629L430.962 181ZM419.442 180.22L418.811 180.996V180.996L419.442 180.22ZM418.002 178.24L417.069 178.601L417.074 178.611L418.002 178.24ZM409.962 157.48L410.895 157.119L410.647 156.48H409.962V157.48ZM371.382 157.48V156.48H370.697L370.45 157.119L371.382 157.48ZM363.342 178.24L362.41 177.879L362.401 177.901L362.393 177.924L363.342 178.24ZM361.962 180.16L362.598 180.932L361.962 180.16ZM350.442 181L349.514 180.629L348.965 182H350.442V181ZM384.822 95.02V94.02H384.145L383.894 94.6487L384.822 95.02ZM396.582 95.02L397.511 94.6487L397.259 94.02H396.582V95.02ZM407.655 148.72L394.155 113.74L392.289 114.46L405.789 149.44L407.655 148.72ZM394.155 113.741C393.763 112.722 393.349 111.539 392.913 110.192L391.011 110.808C391.455 112.181 391.881 113.398 392.289 114.459L394.155 113.741ZM392.916 110.2C392.482 108.819 392.067 107.356 391.671 105.812L389.733 106.308C390.137 107.884 390.562 109.381 391.008 110.8L392.916 110.2ZM389.734 105.809C388.901 109.023 388.054 111.677 387.196 113.783L389.048 114.537C389.95 112.323 390.823 109.577 391.67 106.311L389.734 105.809ZM387.189 113.799L373.689 148.719L375.555 149.441L389.055 114.521L387.189 113.799ZM374.622 150.08H406.722V148.08H374.622V150.08ZM430.962 180H421.962V182H430.962V180ZM421.962 180C421.09 180 420.492 179.785 420.073 179.444L418.811 180.996C419.672 181.695 420.754 182 421.962 182V180ZM420.073 179.444C419.571 179.036 419.19 178.518 418.931 177.869L417.074 178.611C417.454 179.562 418.033 180.364 418.811 180.996L420.073 179.444ZM418.935 177.879L410.895 157.119L409.03 157.841L417.07 178.601L418.935 177.879ZM409.962 156.48H371.382V158.48H409.962V156.48ZM370.45 157.119L362.41 177.879L364.275 178.601L372.315 157.841L370.45 157.119ZM362.393 177.924C362.222 178.438 361.885 178.928 361.326 179.388L362.598 180.932C363.399 180.272 363.982 179.482 364.291 178.556L362.393 177.924ZM361.326 179.388C360.849 179.781 360.243 180 359.442 180V182C360.641 182 361.715 181.659 362.598 180.932L361.326 179.388ZM359.442 180H350.442V182H359.442V180ZM351.371 181.371L385.751 95.3913L383.894 94.6487L349.514 180.629L351.371 181.371ZM384.822 96.02H396.582V94.02H384.822V96.02ZM395.654 95.3913L430.034 181.371L431.891 180.629L397.511 94.6487L395.654 95.3913ZM450.259 166.36H449.259V166.691L449.456 166.956L450.259 166.36ZM456.679 171.94L457.101 171.033L456.679 171.94ZM477.559 167.5L476.76 166.899L477.559 167.5ZM481.039 140.02L480.066 140.253L480.069 140.266L481.039 140.02ZM478.039 133.06L477.226 133.643L477.232 133.651L478.039 133.06ZM473.179 129.04L473.579 128.124L473.179 129.04ZM457.459 130.18L456.94 129.325L456.935 129.328L457.459 130.18ZM450.259 136.96L449.46 136.358L449.259 136.625V136.96H450.259ZM449.719 129.64L448.727 129.772L449.034 132.073L450.496 130.269L449.719 129.64ZM458.599 122.02L458.102 121.152L458.599 122.02ZM479.659 121.18L479.227 122.082L479.237 122.087L479.659 121.18ZM486.919 127.12L486.121 127.724L486.126 127.73L486.919 127.12ZM491.539 136.84L490.575 137.108L491.539 136.84ZM491.359 162.76L492.313 163.058L492.314 163.055L491.359 162.76ZM486.139 172.78L485.359 172.154L485.358 172.155L486.139 172.78ZM477.859 179.44L478.301 180.337L478.306 180.334L477.859 179.44ZM457.279 179.98L456.842 180.88L456.85 180.884L456.859 180.888L457.279 179.98ZM450.259 174.7L450.998 174.027L449.259 172.117V174.7H450.259ZM450.259 201.58V202.58H451.259V201.58H450.259ZM439.519 201.58H438.519V202.58H439.519V201.58ZM439.519 120.22V119.22H438.519V120.22H439.519ZM448.759 122.44L449.75 122.308L449.743 122.255L449.73 122.204L448.759 122.44ZM449.456 166.956C451.487 169.693 453.749 171.679 456.257 172.847L457.101 171.033C454.968 170.041 452.95 168.307 451.061 165.764L449.456 166.956ZM456.257 172.847C458.724 173.995 461.471 174.56 464.479 174.56V172.56C461.726 172.56 459.273 172.045 457.101 171.033L456.257 172.847ZM464.479 174.56C470.428 174.56 475.104 172.426 478.358 168.101L476.76 166.899C473.934 170.654 469.889 172.56 464.479 172.56V174.56ZM478.358 168.101C481.577 163.822 483.119 157.817 483.119 150.22H481.119C481.119 157.583 479.62 163.098 476.76 166.899L478.358 168.101ZM483.119 150.22C483.119 146.204 482.754 142.717 482.008 139.774L480.069 140.266C480.763 143.003 481.119 146.316 481.119 150.22H483.119ZM482.011 139.787C481.309 136.856 480.264 134.403 478.845 132.469L477.232 133.651C478.453 135.317 479.408 137.504 480.066 140.253L482.011 139.787ZM478.851 132.477C477.435 130.503 475.677 129.042 473.579 128.124L472.778 129.956C474.52 130.718 476.002 131.937 477.226 133.643L478.851 132.477ZM473.579 128.124C471.514 127.22 469.194 126.78 466.639 126.78V128.78C468.963 128.78 471.003 129.18 472.778 129.956L473.579 128.124ZM466.639 126.78C463 126.78 459.756 127.618 456.94 129.325L457.977 131.035C460.441 129.542 463.318 128.78 466.639 128.78V126.78ZM456.935 129.328C454.209 131.005 451.721 133.358 449.46 136.358L451.057 137.562C453.197 134.722 455.508 132.555 457.983 131.032L456.935 129.328ZM449.259 136.96V166.36H451.259V136.96H449.259ZM450.496 130.269C452.982 127.201 455.848 124.744 459.095 122.888L458.102 121.152C454.629 123.136 451.576 125.759 448.942 129.011L450.496 130.269ZM459.095 122.888C462.287 121.064 465.952 120.14 470.119 120.14V118.14C465.645 118.14 461.631 119.136 458.102 121.152L459.095 122.888ZM470.119 120.14C473.507 120.14 476.537 120.794 479.227 122.082L480.091 120.278C477.101 118.846 473.77 118.14 470.119 118.14V120.14ZM479.237 122.087C481.921 123.334 484.214 125.206 486.121 127.724L487.716 126.516C485.623 123.754 483.077 121.666 480.08 120.273L479.237 122.087ZM486.126 127.73C488.032 130.208 489.522 133.325 490.575 137.108L492.502 136.572C491.395 132.595 489.805 129.232 487.711 126.51L486.126 127.73ZM490.575 137.108C491.626 140.882 492.159 145.249 492.159 150.22H494.159C494.159 145.111 493.611 140.558 492.502 136.572L490.575 137.108ZM492.159 150.22C492.159 154.61 491.571 158.69 490.403 162.465L492.314 163.055C493.546 159.07 494.159 154.79 494.159 150.22H492.159ZM490.404 162.462C489.237 166.195 487.553 169.421 485.359 172.154L486.918 173.406C489.284 170.459 491.08 167.005 492.313 163.058L490.404 162.462ZM485.358 172.155C483.21 174.84 480.565 176.969 477.411 178.546L478.306 180.334C481.712 178.631 484.587 176.32 486.919 173.405L485.358 172.155ZM477.416 178.543C474.33 180.067 470.825 180.84 466.879 180.84V182.84C471.092 182.84 474.907 182.013 478.301 180.337L477.416 178.543ZM466.879 180.84C463.267 180.84 460.217 180.238 457.699 179.072L456.859 180.888C459.7 182.202 463.05 182.84 466.879 182.84V180.84ZM457.715 179.08C455.193 177.858 452.955 176.176 450.998 174.027L449.519 175.373C451.642 177.704 454.084 179.542 456.842 180.88L457.715 179.08ZM449.259 174.7V201.58H451.259V174.7H449.259ZM450.259 200.58H439.519V202.58H450.259V200.58ZM440.519 201.58V120.22H438.519V201.58H440.519ZM439.519 121.22H445.939V119.22H439.519V121.22ZM445.939 121.22C446.536 121.22 446.914 121.363 447.165 121.561C447.416 121.758 447.645 122.094 447.787 122.676L449.73 122.204C449.512 121.306 449.091 120.532 448.402 119.989C447.713 119.447 446.861 119.22 445.939 119.22V121.22ZM447.767 122.572L448.727 129.772L450.71 129.508L449.75 122.308L447.767 122.572ZM517.524 166.36H516.524V166.691L516.721 166.956L517.524 166.36ZM523.944 171.94L524.366 171.033L523.944 171.94ZM544.824 167.5L544.025 166.899L544.824 167.5ZM548.304 140.02L547.332 140.253L547.335 140.266L548.304 140.02ZM545.304 133.06L544.492 133.643L544.498 133.651L545.304 133.06ZM540.444 129.04L540.845 128.124L540.444 129.04ZM524.724 130.18L524.206 129.325L524.2 129.328L524.724 130.18ZM517.524 136.96L516.726 136.358L516.524 136.625V136.96H517.524ZM516.984 129.64L515.993 129.772L516.3 132.073L517.761 130.269L516.984 129.64ZM525.864 122.02L525.368 121.152L525.864 122.02ZM546.924 121.18L546.492 122.082L546.503 122.087L546.924 121.18ZM554.184 127.12L553.387 127.724L553.392 127.73L554.184 127.12ZM558.804 136.84L557.841 137.108L558.804 136.84ZM558.624 162.76L559.579 163.058L559.58 163.055L558.624 162.76ZM553.404 172.78L552.624 172.154L552.623 172.155L553.404 172.78ZM545.124 179.44L545.567 180.337L545.571 180.334L545.124 179.44ZM524.544 179.98L524.108 180.88L524.116 180.884L524.124 180.888L524.544 179.98ZM517.524 174.7L518.264 174.027L516.524 172.117V174.7H517.524ZM517.524 201.58V202.58H518.524V201.58H517.524ZM506.784 201.58H505.784V202.58H506.784V201.58ZM506.784 120.22V119.22H505.784V120.22H506.784ZM516.024 122.44L517.015 122.308L517.008 122.255L516.996 122.204L516.024 122.44ZM516.721 166.956C518.753 169.693 521.014 171.679 523.522 172.847L524.366 171.033C522.234 170.041 520.215 168.307 518.327 165.764L516.721 166.956ZM523.522 172.847C525.99 173.995 528.737 174.56 531.744 174.56V172.56C528.992 172.56 526.538 172.045 524.366 171.033L523.522 172.847ZM531.744 174.56C537.694 174.56 542.369 172.426 545.623 168.101L544.025 166.899C541.199 170.654 537.154 172.56 531.744 172.56V174.56ZM545.623 168.101C548.843 163.822 550.384 157.817 550.384 150.22H548.384C548.384 157.583 546.885 163.098 544.025 166.899L545.623 168.101ZM550.384 150.22C550.384 146.204 550.02 142.717 549.274 139.774L547.335 140.266C548.029 143.003 548.384 146.316 548.384 150.22H550.384ZM549.277 139.787C548.575 136.856 547.529 134.403 546.111 132.469L544.498 133.651C545.719 135.317 546.674 137.504 547.332 140.253L549.277 139.787ZM546.117 132.477C544.701 130.503 542.943 129.042 540.845 128.124L540.043 129.956C541.785 130.718 543.268 131.937 544.492 133.643L546.117 132.477ZM540.845 128.124C538.78 127.22 536.46 126.78 533.904 126.78V128.78C536.229 128.78 538.269 129.18 540.043 129.956L540.845 128.124ZM533.904 126.78C530.265 126.78 527.021 127.618 524.206 129.325L525.243 131.035C527.707 129.542 530.583 128.78 533.904 128.78V126.78ZM524.2 129.328C521.475 131.005 518.986 133.358 516.726 136.358L518.323 137.562C520.462 134.722 522.773 132.555 525.248 131.032L524.2 129.328ZM516.524 136.96V166.36H518.524V136.96H516.524ZM517.761 130.269C520.247 127.201 523.113 124.744 526.36 122.888L525.368 121.152C521.895 123.136 518.841 125.759 516.207 129.011L517.761 130.269ZM526.36 122.888C529.552 121.064 533.218 120.14 537.384 120.14V118.14C532.911 118.14 528.896 119.136 525.368 121.152L526.36 122.888ZM537.384 120.14C540.772 120.14 543.802 120.794 546.492 122.082L547.356 120.278C544.366 118.846 541.036 118.14 537.384 118.14V120.14ZM546.503 122.087C549.186 123.334 551.48 125.206 553.387 127.724L554.981 126.516C552.889 123.754 550.342 121.666 547.346 120.273L546.503 122.087ZM553.392 127.73C555.298 130.208 556.788 133.325 557.841 137.108L559.768 136.572C558.661 132.595 557.071 129.232 554.977 126.51L553.392 127.73ZM557.841 137.108C558.891 140.882 559.424 145.249 559.424 150.22H561.424C561.424 145.111 560.877 140.558 559.768 136.572L557.841 137.108ZM559.424 150.22C559.424 154.61 558.836 158.69 557.669 162.465L559.58 163.055C560.812 159.07 561.424 154.79 561.424 150.22H559.424ZM557.67 162.462C556.503 166.195 554.818 169.421 552.624 172.154L554.184 173.406C556.55 170.459 558.345 167.005 559.579 163.058L557.67 162.462ZM552.623 172.155C550.476 174.84 547.831 176.969 544.677 178.546L545.571 180.334C548.978 178.631 551.853 176.32 554.185 173.405L552.623 172.155ZM544.681 178.543C541.596 180.067 538.091 180.84 534.144 180.84V182.84C538.358 182.84 542.172 182.013 545.567 180.337L544.681 178.543ZM534.144 180.84C530.533 180.84 527.483 180.238 524.964 179.072L524.124 180.888C526.965 182.202 530.316 182.84 534.144 182.84V180.84ZM524.98 179.08C522.459 177.858 520.221 176.176 518.264 174.027L516.785 175.373C518.908 177.704 521.35 179.542 524.108 180.88L524.98 179.08ZM516.524 174.7V201.58H518.524V174.7H516.524ZM517.524 200.58H506.784V202.58H517.524V200.58ZM507.784 201.58V120.22H505.784V201.58H507.784ZM506.784 121.22H513.204V119.22H506.784V121.22ZM513.204 121.22C513.801 121.22 514.18 121.363 514.431 121.561C514.682 121.758 514.911 122.094 515.053 122.676L516.996 122.204C516.778 121.306 516.357 120.532 515.668 119.989C514.978 119.447 514.127 119.22 513.204 119.22V121.22ZM515.033 122.572L515.993 129.772L517.975 129.508L517.015 122.308L515.033 122.572ZM585.09 92.62H586.09V91.62H585.09V92.62ZM585.09 181V182H586.09V181H585.09ZM574.41 181H573.41V182H574.41V181ZM574.41 92.62V91.62H573.41V92.62H574.41ZM584.09 92.62V181H586.09V92.62H584.09ZM585.09 180H574.41V182H585.09V180ZM575.41 181V92.62H573.41V181H575.41ZM574.41 93.62H585.09V91.62H574.41V93.62ZM613.689 120.22H614.689V119.22H613.689V120.22ZM613.689 181V182H614.689V181H613.689ZM603.009 181H602.009V182H603.009V181ZM603.009 120.22V119.22H602.009V120.22H603.009ZM615.309 104.08L614.407 103.649L614.403 103.657L614.399 103.666L615.309 104.08ZM613.629 106.48L612.922 105.773L613.629 106.48ZM611.169 108.1L610.785 107.177L610.778 107.18L610.771 107.183L611.169 108.1ZM605.289 108.1L604.875 109.01L604.883 109.014L604.891 109.017L605.289 108.1ZM602.949 106.48L602.222 107.167L602.232 107.177L602.242 107.187L602.949 106.48ZM601.329 104.08L600.412 104.479L600.415 104.486L600.419 104.494L601.329 104.08ZM601.329 98.2L602.246 98.5987L602.249 98.5917L602.252 98.5846L601.329 98.2ZM602.949 95.74L603.656 96.4471L603.666 96.437L603.676 96.4266L602.949 95.74ZM605.289 94.06L604.891 93.1429L604.883 93.1462L604.875 93.1496L605.289 94.06ZM611.169 94.06L610.771 94.9771L610.778 94.9801L610.785 94.9831L611.169 94.06ZM613.629 95.74L612.902 96.4266L612.922 96.4474L612.943 96.467L613.629 95.74ZM615.309 98.2L614.386 98.5846L614.396 98.6083L614.407 98.6315L615.309 98.2ZM612.689 120.22V181H614.689V120.22H612.689ZM613.689 180H603.009V182H613.689V180ZM604.009 181V120.22H602.009V181H604.009ZM603.009 121.22H613.689V119.22H603.009V121.22ZM614.969 101.14C614.969 102.034 614.781 102.866 614.407 103.649L616.211 104.511C616.717 103.454 616.969 102.326 616.969 101.14H614.969ZM614.399 103.666C614.051 104.431 613.562 105.133 612.922 105.773L614.336 107.187C615.137 106.387 615.767 105.489 616.22 104.494L614.399 103.666ZM612.922 105.773C612.342 106.353 611.634 106.823 610.785 107.177L611.554 109.023C612.625 108.577 613.557 107.967 614.336 107.187L612.922 105.773ZM610.771 107.183C609.981 107.526 609.137 107.7 608.229 107.7V109.7C609.401 109.7 610.517 109.474 611.568 109.017L610.771 107.183ZM608.229 107.7C607.321 107.7 606.478 107.526 605.688 107.183L604.891 109.017C605.941 109.474 607.057 109.7 608.229 109.7V107.7ZM605.703 107.19C604.932 106.839 604.251 106.368 603.656 105.773L602.242 107.187C603.007 107.952 603.887 108.561 604.875 109.01L605.703 107.19ZM603.676 105.793C603.07 105.152 602.593 104.443 602.24 103.666L600.419 104.494C600.866 105.477 601.468 106.368 602.222 107.167L603.676 105.793ZM602.246 103.681C601.903 102.892 601.729 102.048 601.729 101.14H599.729C599.729 102.312 599.955 103.428 600.412 104.479L602.246 103.681ZM601.729 101.14C601.729 100.232 601.903 99.3883 602.246 98.5987L600.412 97.8013C599.955 98.8517 599.729 99.968 599.729 101.14H601.729ZM602.252 98.5846C602.606 97.7353 603.076 97.0274 603.656 96.4471L602.242 95.0329C601.462 95.8125 600.852 96.7447 600.406 97.8154L602.252 98.5846ZM603.676 96.4266C604.27 95.7984 604.944 95.3154 605.703 94.9704L604.875 93.1496C603.875 93.6046 602.989 94.2416 602.222 95.0534L603.676 96.4266ZM605.688 94.9771C606.478 94.6338 607.321 94.46 608.229 94.46V92.46C607.057 92.46 605.941 92.6862 604.891 93.1429L605.688 94.9771ZM608.229 94.46C609.137 94.46 609.981 94.6338 610.771 94.9771L611.568 93.1429C610.517 92.6862 609.401 92.46 608.229 92.46V94.46ZM610.785 94.9831C611.622 95.3319 612.323 95.8137 612.902 96.4266L614.356 95.0534C613.575 94.2263 612.637 93.5881 611.554 93.1369L610.785 94.9831ZM612.943 96.467C613.556 97.0459 614.037 97.7474 614.386 98.5846L616.232 97.8154C615.781 96.7326 615.143 95.7941 614.316 95.013L612.943 96.467ZM614.407 98.6315C614.781 99.414 614.969 100.246 614.969 101.14H616.969C616.969 99.9537 616.717 98.826 616.211 97.7685L614.407 98.6315ZM673.537 131.02L672.731 130.428L672.729 130.432L673.537 131.02ZM669.277 131.68L668.692 132.491L668.707 132.502L668.723 132.512L669.277 131.68ZM666.577 130L666.078 130.866L666.085 130.87L666.092 130.874L666.577 130ZM662.677 128.38L662.354 129.326L662.368 129.331L662.383 129.336L662.677 128.38ZM649.117 129.22L649.532 130.13L649.539 130.127L649.545 130.124L649.117 129.22ZM643.357 133.78L642.569 133.165L642.561 133.175L643.357 133.78ZM639.877 141.04L638.915 140.769L638.911 140.781L639.877 141.04ZM639.997 160.42L639.037 160.7L639.038 160.704L639.997 160.42ZM643.537 167.62L642.747 168.233L642.754 168.242L642.761 168.251L643.537 167.62ZM649.117 172.06L648.684 172.961L648.693 172.966L648.704 172.97L649.117 172.06ZM662.917 172.66L663.254 173.602L663.264 173.598L663.273 173.594L662.917 172.66ZM667.057 170.56L666.496 169.733L666.489 169.737L666.482 169.742L667.057 170.56ZM669.817 168.52L670.458 169.288L670.461 169.285L669.817 168.52ZM674.077 168.58L673.26 169.157L673.272 169.173L673.285 169.19L674.077 168.58ZM677.077 172.48L677.856 173.107L678.35 172.494L677.87 171.87L677.077 172.48ZM672.577 176.68L672.009 175.857L672.577 176.68ZM667.117 179.62L667.485 180.55L667.495 180.546L667.117 179.62ZM661.057 181.3L660.89 180.314L661.057 181.3ZM643.957 179.74L643.561 180.658L643.565 180.66L643.957 179.74ZM635.497 173.68L634.752 174.347L634.757 174.353L635.497 173.68ZM629.677 138.04L628.729 137.724L628.726 137.733L629.677 138.04ZM635.197 128.14L634.443 127.483L634.443 127.484L635.197 128.14ZM644.137 121.6L643.736 120.684L643.732 120.686L644.137 121.6ZM667.657 121.36L667.261 122.278L667.268 122.281L667.274 122.284L667.657 121.36ZM676.357 127.18L677.163 127.772L677.672 127.08L677.064 126.473L676.357 127.18ZM672.729 130.432C672.448 130.818 672.195 131.077 671.977 131.24L673.177 132.84C673.6 132.523 673.987 132.102 674.346 131.608L672.729 130.432ZM671.977 131.24C671.888 131.307 671.685 131.4 671.257 131.4V133.4C671.949 133.4 672.627 133.253 673.177 132.84L671.977 131.24ZM671.257 131.4C670.924 131.4 670.457 131.265 669.832 130.848L668.723 132.512C669.538 133.055 670.391 133.4 671.257 133.4V131.4ZM669.863 130.869C669.101 130.319 668.165 129.738 667.063 129.126L666.092 130.874C667.149 131.462 668.013 132.001 668.692 132.491L669.863 130.869ZM667.077 129.134C665.954 128.486 664.579 127.919 662.971 127.424L662.383 129.336C663.895 129.801 665.121 130.314 666.078 130.866L667.077 129.134ZM663.001 127.434C661.345 126.867 659.347 126.6 657.037 126.6V128.6C659.207 128.6 660.97 128.853 662.354 129.326L663.001 127.434ZM657.037 126.6C653.917 126.6 651.126 127.162 648.689 128.316L649.545 130.124C651.669 129.118 654.158 128.6 657.037 128.6V126.6ZM648.702 128.31C646.274 129.418 644.227 131.04 642.569 133.165L644.146 134.395C645.608 132.52 647.401 131.102 649.532 130.13L648.702 128.31ZM642.561 133.175C640.953 135.291 639.743 137.829 638.915 140.769L640.84 141.311C641.612 138.571 642.721 136.269 644.154 134.385L642.561 133.175ZM638.911 140.781C638.125 143.72 637.737 146.989 637.737 150.58H639.737C639.737 147.131 640.11 144.04 640.843 141.299L638.911 140.781ZM637.737 150.58C637.737 154.334 638.166 157.711 639.037 160.7L640.957 160.14C640.149 157.369 639.737 154.186 639.737 150.58H637.737ZM639.038 160.704C639.907 163.64 641.138 166.157 642.747 168.233L644.328 167.007C642.897 165.163 641.768 162.88 640.956 160.136L639.038 160.704ZM642.761 168.251C644.411 170.281 646.387 171.855 648.684 172.961L649.551 171.159C647.528 170.185 645.784 168.799 644.313 166.989L642.761 168.251ZM648.704 172.97C651.049 174.036 653.653 174.56 656.497 174.56V172.56C653.902 172.56 651.586 172.084 649.531 171.15L648.704 172.97ZM656.497 174.56C659.164 174.56 661.428 174.254 663.254 173.602L662.581 171.718C661.046 172.266 659.03 172.56 656.497 172.56V174.56ZM663.273 173.594C665.005 172.935 666.465 172.199 667.633 171.378L666.482 169.742C665.489 170.441 664.19 171.105 662.561 171.726L663.273 173.594ZM667.619 171.387C668.755 170.616 669.704 169.916 670.458 169.288L669.177 167.752C668.491 168.324 667.599 168.984 666.496 169.733L667.619 171.387ZM670.461 169.285C671.109 168.739 671.629 168.56 672.037 168.56V166.56C671.006 166.56 670.045 167.021 669.173 167.755L670.461 169.285ZM672.037 168.56C672.614 168.56 672.98 168.76 673.26 169.157L674.894 168.003C674.215 167.04 673.22 166.56 672.037 166.56V168.56ZM673.285 169.19L676.285 173.09L677.87 171.87L674.87 167.97L673.285 169.19ZM676.298 171.853C675.037 173.42 673.607 174.754 672.009 175.857L673.146 177.503C674.907 176.286 676.478 174.82 677.856 173.107L676.298 171.853ZM672.009 175.857C670.391 176.975 668.635 177.92 666.739 178.694L667.495 180.546C669.52 179.72 671.404 178.705 673.146 177.503L672.009 175.857ZM666.749 178.69C664.897 179.424 662.944 179.965 660.89 180.314L661.225 182.286C663.411 181.915 665.498 181.336 667.485 180.55L666.749 178.69ZM660.89 180.314C658.826 180.665 656.723 180.84 654.577 180.84V182.84C656.832 182.84 659.048 182.655 661.225 182.286L660.89 180.314ZM654.577 180.84C650.903 180.84 647.498 180.164 644.35 178.82L643.565 180.66C646.977 182.116 650.651 182.84 654.577 182.84V180.84ZM644.354 178.822C641.246 177.479 638.543 175.543 636.237 173.007L634.757 174.353C637.252 177.097 640.189 179.201 643.561 180.658L644.354 178.822ZM636.242 173.013C633.942 170.444 632.124 167.283 630.801 163.509L628.914 164.171C630.311 168.157 632.253 171.556 634.752 174.347L636.242 173.013ZM630.801 163.509C629.485 159.755 628.817 155.45 628.817 150.58H626.817C626.817 155.63 627.51 160.165 628.914 164.171L630.801 163.509ZM628.817 150.58C628.817 146.152 629.425 142.077 630.629 138.347L628.726 137.733C627.45 141.683 626.817 145.968 626.817 150.58H628.817ZM630.626 138.356C631.869 134.628 633.647 131.447 635.952 128.796L634.443 127.484C631.948 130.353 630.046 133.772 628.729 137.724L630.626 138.356ZM635.951 128.797C638.292 126.111 641.151 124.017 644.543 122.514L643.732 120.686C640.084 122.303 636.983 124.569 634.443 127.483L635.951 128.797ZM644.539 122.516C647.951 121.021 651.891 120.26 656.377 120.26V118.26C651.664 118.26 647.444 119.059 643.736 120.684L644.539 122.516ZM656.377 120.26C660.549 120.26 664.17 120.942 667.261 122.278L668.054 120.442C664.665 118.978 660.765 118.26 656.377 118.26V120.26ZM667.274 122.284C670.433 123.593 673.223 125.46 675.65 127.887L677.064 126.473C674.452 123.86 671.442 121.847 668.04 120.436L667.274 122.284ZM675.551 126.588L672.731 130.428L674.343 131.612L677.163 127.772L675.551 126.588ZM721.482 153.64H722.482V152.607L721.45 152.641L721.482 153.64ZM708.882 154.84L709.054 155.825L709.063 155.824L708.882 154.84ZM700.422 157.24L700.008 156.33L700.002 156.333L700.422 157.24ZM695.682 160.78L694.876 160.188L694.871 160.195L694.865 160.203L695.682 160.78ZM695.022 169.48L694.109 169.889L695.022 169.48ZM697.122 172.36L696.468 173.117L696.487 173.133L696.506 173.148L697.122 172.36ZM700.302 173.98L700.015 174.938L700.033 174.943L700.052 174.948L700.302 173.98ZM709.422 173.92L709.647 174.894L709.659 174.892L709.67 174.889L709.422 173.92ZM713.802 172.24L713.345 171.351L713.334 171.356L713.802 172.24ZM717.762 169.66L717.146 168.872L717.14 168.877L717.134 168.882L717.762 169.66ZM721.482 166.24L722.212 166.924L722.482 166.635V166.24H721.482ZM686.982 128.8L686.288 128.08L685.732 128.616L686.11 129.29L686.982 128.8ZM697.842 121.54L697.461 120.616L697.842 121.54ZM719.802 120.82L720.193 119.899L719.802 120.82ZM726.462 125.5L727.205 124.831L726.462 125.5ZM730.542 132.76L729.591 133.068L730.542 132.76ZM731.922 181V182H732.922V181H731.922ZM724.782 180.52L724.241 181.361L724.263 181.375L724.286 181.388L724.782 180.52ZM723.462 178.48L722.483 178.684L722.494 178.735L722.51 178.785L723.462 178.48ZM722.262 172.72L723.241 172.516L722.88 170.786L721.583 171.986L722.262 172.72ZM717.582 176.68L718.175 177.485L718.182 177.48L718.189 177.475L717.582 176.68ZM712.782 179.56L713.194 180.471L713.203 180.467L713.212 180.463L712.782 179.56ZM707.382 181.3L707.178 180.321L707.166 180.324L707.154 180.326L707.382 181.3ZM694.422 181L694.111 181.95L694.12 181.953L694.128 181.956L694.422 181ZM688.962 178L688.306 178.755L688.316 178.763L688.962 178ZM685.302 173.02L684.384 173.416L684.389 173.427L684.394 173.438L685.302 173.02ZM685.962 158.92L686.82 159.435L686.824 159.428L685.962 158.92ZM692.382 152.98L692.884 153.845L692.382 152.98ZM703.962 148.78L704.183 149.755L704.191 149.753L703.962 148.78ZM721.482 146.86L721.505 147.86L722.482 147.837V146.86H721.482ZM718.422 131.44L717.655 132.081L717.66 132.088L718.422 131.44ZM702.822 128.8L703.164 129.74L703.175 129.735L702.822 128.8ZM698.202 131.02L698.732 131.868L698.739 131.864L698.202 131.02ZM694.842 133.24L695.413 134.061L695.42 134.056L694.842 133.24ZM690.222 133.66L689.612 134.453L689.632 134.468L689.653 134.482L690.222 133.66ZM688.902 132.22L688.03 132.71L688.045 132.736L688.061 132.761L688.902 132.22ZM721.45 152.641C716.497 152.802 712.245 153.205 708.701 153.856L709.063 155.824C712.479 155.195 716.627 154.798 721.515 154.639L721.45 152.641ZM708.71 153.855C705.22 154.464 702.311 155.283 700.008 156.33L700.836 158.15C702.933 157.197 705.664 156.416 709.054 155.825L708.71 153.855ZM700.002 156.333C697.748 157.376 696.009 158.647 694.876 160.188L696.488 161.372C697.355 160.193 698.776 159.104 700.842 158.147L700.002 156.333ZM694.865 160.203C693.785 161.734 693.242 163.456 693.242 165.34H695.242C695.242 163.864 695.659 162.546 696.499 161.357L694.865 160.203ZM693.242 165.34C693.242 167.046 693.519 168.572 694.109 169.889L695.935 169.071C695.485 168.068 695.242 166.834 695.242 165.34H693.242ZM694.109 169.889C694.684 171.17 695.468 172.253 696.468 173.117L697.776 171.603C697.016 170.947 696.4 170.11 695.935 169.071L694.109 169.889ZM696.506 173.148C697.531 173.95 698.704 174.545 700.015 174.938L700.589 173.022C699.5 172.695 698.553 172.21 697.738 171.572L696.506 173.148ZM700.052 174.948C701.381 175.291 702.786 175.46 704.262 175.46V173.46C702.939 173.46 701.703 173.309 700.552 173.012L700.052 174.948ZM704.262 175.46C706.205 175.46 708.002 175.274 709.647 174.894L709.197 172.946C707.722 173.286 706.079 173.46 704.262 173.46V175.46ZM709.67 174.889C711.303 174.47 712.837 173.882 714.27 173.124L713.334 171.356C712.047 172.038 710.661 172.57 709.174 172.951L709.67 174.889ZM714.259 173.129C715.721 172.378 717.098 171.481 718.39 170.438L717.134 168.882C715.947 169.839 714.684 170.662 713.345 171.351L714.259 173.129ZM718.378 170.448C719.701 169.414 720.979 168.239 722.212 166.924L720.753 165.556C719.585 166.801 718.383 167.906 717.146 168.872L718.378 170.448ZM722.482 166.24V153.64H720.482V166.24H722.482ZM687.676 129.52C690.956 126.357 694.472 124.011 698.223 122.464L697.461 120.616C693.452 122.269 689.728 124.763 686.288 128.08L687.676 129.52ZM698.223 122.464C701.968 120.92 706.137 120.14 710.742 120.14V118.14C705.907 118.14 701.476 118.96 697.461 120.616L698.223 122.464ZM710.742 120.14C714.032 120.14 716.916 120.682 719.411 121.741L720.193 119.899C717.408 118.718 714.252 118.14 710.742 118.14V120.14ZM719.411 121.741C721.926 122.807 724.023 124.285 725.719 126.169L727.205 124.831C725.301 122.715 722.958 121.073 720.193 119.899L719.411 121.741ZM725.719 126.169C727.415 128.054 728.709 130.347 729.591 133.068L731.493 132.452C730.535 129.493 729.109 126.946 727.205 124.831L725.719 126.169ZM729.591 133.068C730.474 135.796 730.922 138.81 730.922 142.12H732.922C732.922 138.63 732.45 135.404 731.493 132.452L729.591 133.068ZM730.922 142.12V181H732.922V142.12H730.922ZM731.922 180H727.182V182H731.922V180ZM727.182 180C726.22 180 725.621 179.848 725.278 179.652L724.286 181.388C725.063 181.832 726.064 182 727.182 182V180ZM725.323 179.679C725.043 179.499 724.702 179.074 724.414 178.175L722.51 178.785C722.862 179.886 723.401 180.821 724.241 181.361L725.323 179.679ZM724.441 178.276L723.241 172.516L721.283 172.924L722.483 178.684L724.441 178.276ZM721.583 171.986C720.003 173.447 718.467 174.747 716.975 175.885L718.189 177.475C719.737 176.293 721.321 174.953 722.941 173.454L721.583 171.986ZM716.989 175.875C715.519 176.958 713.974 177.885 712.352 178.657L713.212 180.463C714.95 179.635 716.605 178.642 718.175 177.485L716.989 175.875ZM712.37 178.649C710.761 179.377 709.031 179.935 707.178 180.321L707.586 182.279C709.573 181.865 711.443 181.263 713.194 180.471L712.37 178.649ZM707.154 180.326C705.362 180.746 703.34 180.96 701.082 180.96V182.96C703.464 182.96 705.642 182.734 707.61 182.274L707.154 180.326ZM701.082 180.96C698.813 180.96 696.693 180.653 694.716 180.044L694.128 181.956C696.311 182.627 698.631 182.96 701.082 182.96V180.96ZM694.733 180.05C692.767 179.407 691.063 178.467 689.608 177.237L688.316 178.763C689.982 180.173 691.917 181.233 694.111 181.95L694.733 180.05ZM689.618 177.245C688.215 176.027 687.077 174.485 686.211 172.602L684.394 173.438C685.367 175.555 686.669 177.333 688.306 178.755L689.618 177.245ZM686.22 172.624C685.406 170.735 684.982 168.476 684.982 165.82H682.982C682.982 168.684 683.438 171.225 684.384 173.416L686.22 172.624ZM684.982 165.82C684.982 163.614 685.586 161.49 686.82 159.434L685.105 158.406C683.698 160.75 682.982 163.226 682.982 165.82H684.982ZM686.824 159.428C688.033 157.375 690.027 155.505 692.884 153.845L691.88 152.115C688.817 153.895 686.531 155.985 685.1 158.412L686.824 159.428ZM692.884 153.845C695.728 152.192 699.484 150.822 704.183 149.755L703.741 147.805C698.92 148.898 694.956 150.328 691.88 152.115L692.884 153.845ZM704.191 149.753C708.862 148.654 714.628 148.019 721.505 147.86L721.459 145.86C714.496 146.021 708.582 146.666 703.733 147.807L704.191 149.753ZM722.482 146.86V142.12H720.482V146.86H722.482ZM722.482 142.12C722.482 137.277 721.438 133.444 719.184 130.792L717.66 132.088C719.486 134.236 720.482 137.523 720.482 142.12H722.482ZM719.189 130.799C716.916 128.079 713.623 126.78 709.482 126.78V128.78C713.181 128.78 715.848 129.921 717.655 132.081L719.189 130.799ZM709.482 126.78C706.763 126.78 704.415 127.129 702.469 127.865L703.175 129.735C704.829 129.111 706.921 128.78 709.482 128.78V126.78ZM702.48 127.86C700.665 128.52 699.057 129.291 697.665 130.176L698.739 131.864C699.987 131.069 701.459 130.36 703.164 129.74L702.48 127.86ZM697.672 130.172C696.38 130.98 695.243 131.73 694.264 132.424L695.42 134.056C696.361 133.39 697.464 132.66 698.732 131.868L697.672 130.172ZM694.271 132.419C693.481 132.968 692.757 133.2 692.082 133.2V135.2C693.247 135.2 694.363 134.792 695.413 134.061L694.271 132.419ZM692.082 133.2C691.536 133.2 691.122 133.066 690.791 132.838L689.653 134.482C690.363 134.974 691.188 135.2 692.082 135.2V133.2ZM690.832 132.867C690.404 132.538 690.042 132.144 689.743 131.679L688.061 132.761C688.482 133.416 689 133.982 689.612 134.453L690.832 132.867ZM689.774 131.73L687.854 128.31L686.11 129.29L688.03 132.71L689.774 131.73ZM803.77 181V182H804.77V181H803.77ZM793.09 181H792.09V182H793.09V181ZM793.09 129.16H794.09V128.16H793.09V129.16ZM761.77 129.16V128.16H760.77V129.16H761.77ZM763.63 171.34L764.337 170.633L763.63 171.34ZM771.31 172.78L771.641 173.724L771.653 173.719L771.666 173.714L771.31 172.78ZM773.47 171.76L772.956 170.903L773.47 171.76ZM774.97 170.8L775.544 171.619L775.551 171.614L775.558 171.609L774.97 170.8ZM777.61 171.34L778.463 170.818L778.457 170.807L778.45 170.797L777.61 171.34ZM780.73 176.44L781.413 177.171L782.009 176.614L781.583 175.918L780.73 176.44ZM774.07 180.52L774.417 181.458L774.429 181.453L774.07 180.52ZM754.93 177.94L754.207 178.631L754.212 178.636L754.93 177.94ZM751.09 129.16H752.09V128.16H751.09V129.16ZM742.15 128.62L741.477 129.36L741.497 129.377L741.517 129.394L742.15 128.62ZM741.49 122.56L741.359 121.569L740.49 121.684V122.56H741.49ZM751.45 121.24L751.582 122.231L752.342 122.131L752.442 121.37L751.45 121.24ZM753.91 102.52L752.93 102.324L752.923 102.357L752.919 102.39L753.91 102.52ZM754.69 101.08L755.359 101.823L755.363 101.82L754.69 101.08ZM761.77 100.48H762.77V99.48H761.77V100.48ZM761.77 121.42H760.77V122.42H761.77V121.42ZM803.77 121.42H804.77V120.42H803.77V121.42ZM805.75 103.66L804.848 103.229L804.844 103.237L804.84 103.246L805.75 103.66ZM804.07 106L803.384 105.273L803.373 105.283L803.363 105.293L804.07 106ZM795.79 107.62L795.376 108.53L795.384 108.534L795.391 108.537L795.79 107.62ZM793.45 106L792.743 106.707V106.707L793.45 106ZM791.83 103.66L790.913 104.059L790.916 104.066L790.92 104.074L791.83 103.66ZM791.83 97.78L792.747 98.1787L792.75 98.1717L792.753 98.1646L791.83 97.78ZM793.45 95.32L794.157 96.0271L794.167 96.017L794.177 96.0066L793.45 95.32ZM795.79 93.64L795.391 92.7229L795.384 92.7262L795.376 92.7296L795.79 93.64ZM804.07 95.32L803.343 96.0066L803.363 96.0274L803.384 96.047L804.07 95.32ZM805.75 97.78L804.827 98.1646L804.837 98.1883L804.848 98.2114L805.75 97.78ZM803.77 180H793.09V182H803.77V180ZM794.09 181V129.16H792.09V181H794.09ZM793.09 128.16H761.77V130.16H793.09V128.16ZM760.77 129.16V165.64H762.77V129.16H760.77ZM760.77 165.64C760.77 168.343 761.424 170.548 762.923 172.047L764.337 170.633C763.356 169.652 762.77 168.057 762.77 165.64H760.77ZM762.923 172.047C764.373 173.497 766.239 174.2 768.43 174.2V172.2C766.701 172.2 765.367 171.663 764.337 170.633L762.923 172.047ZM768.43 174.2C769.629 174.2 770.706 174.051 771.641 173.724L770.98 171.836C770.314 172.069 769.472 172.2 768.43 172.2V174.2ZM771.666 173.714C772.547 173.379 773.322 173.015 773.985 172.617L772.956 170.903C772.418 171.225 771.754 171.541 770.954 171.846L771.666 173.714ZM773.985 172.617C774.597 172.25 775.118 171.917 775.544 171.619L774.397 169.981C774.022 170.243 773.543 170.55 772.956 170.903L773.985 172.617ZM775.558 171.609C775.735 171.48 775.872 171.404 775.973 171.362C776.074 171.319 776.116 171.32 776.11 171.32V169.32C775.476 169.32 774.885 169.625 774.382 169.991L775.558 171.609ZM776.11 171.32C776.195 171.32 776.426 171.351 776.771 171.883L778.45 170.797C777.914 169.969 777.146 169.32 776.11 169.32V171.32ZM776.757 171.862L779.877 176.962L781.583 175.918L778.463 170.818L776.757 171.862ZM780.047 175.709C778.311 177.333 776.204 178.628 773.711 179.587L774.429 181.453C777.136 180.412 779.47 178.987 781.413 177.171L780.047 175.709ZM773.724 179.582C771.234 180.501 768.671 180.96 766.03 180.96V182.96C768.909 182.96 771.706 182.459 774.417 181.458L773.724 179.582ZM766.03 180.96C761.419 180.96 758.01 179.678 755.648 177.244L754.212 178.636C757.051 181.562 761.041 182.96 766.03 182.96V180.96ZM755.653 177.249C753.327 174.814 752.09 171.237 752.09 166.36H750.09C750.09 171.563 751.413 175.706 754.207 178.631L755.653 177.249ZM752.09 166.36V129.16H750.09V166.36H752.09ZM751.09 128.16H743.77V130.16H751.09V128.16ZM743.77 128.16C743.33 128.16 743.022 128.041 742.783 127.846L741.517 129.394C742.158 129.919 742.93 130.16 743.77 130.16V128.16ZM742.823 127.88C742.656 127.729 742.49 127.44 742.49 126.82H740.49C740.49 127.8 740.764 128.711 741.477 129.36L742.823 127.88ZM742.49 126.82V122.56H740.49V126.82H742.49ZM741.622 123.551L751.582 122.231L751.319 120.249L741.359 121.569L741.622 123.551ZM752.442 121.37L754.902 102.65L752.919 102.39L750.459 121.11L752.442 121.37ZM754.891 102.716C754.975 102.297 755.141 102.02 755.359 101.823L754.021 100.337C753.44 100.86 753.086 101.543 752.93 102.324L754.891 102.716ZM755.363 101.82C755.592 101.611 755.901 101.48 756.37 101.48V99.48C755.48 99.48 754.668 99.7487 754.017 100.34L755.363 101.82ZM756.37 101.48H761.77V99.48H756.37V101.48ZM760.77 100.48V121.42H762.77V100.48H760.77ZM761.77 122.42H803.77V120.42H761.77V122.42ZM802.77 121.42V181H804.77V121.42H802.77ZM805.41 100.72C805.41 101.614 805.222 102.446 804.848 103.229L806.652 104.091C807.158 103.034 807.41 101.906 807.41 100.72H805.41ZM804.84 103.246C804.495 104.005 804.012 104.68 803.384 105.273L804.757 106.727C805.569 105.96 806.206 105.075 806.661 104.074L804.84 103.246ZM803.363 105.293C802.776 105.88 802.081 106.351 801.271 106.703L802.069 108.537C803.099 108.089 804.005 107.48 804.777 106.707L803.363 105.293ZM801.271 106.703C800.482 107.046 799.638 107.22 798.73 107.22V109.22C799.902 109.22 801.018 108.994 802.069 108.537L801.271 106.703ZM798.73 107.22C797.822 107.22 796.978 107.046 796.189 106.703L795.391 108.537C796.442 108.994 797.558 109.22 798.73 109.22V107.22ZM796.204 106.71C795.433 106.359 794.752 105.888 794.157 105.293L792.743 106.707C793.508 107.472 794.388 108.081 795.376 108.53L796.204 106.71ZM794.157 105.293C793.562 104.698 793.091 104.018 792.741 103.246L790.92 104.074C791.369 105.062 791.978 105.942 792.743 106.707L794.157 105.293ZM792.747 103.261C792.404 102.472 792.23 101.628 792.23 100.72H790.23C790.23 101.892 790.456 103.008 790.913 104.059L792.747 103.261ZM792.23 100.72C792.23 99.812 792.404 98.9683 792.747 98.1787L790.913 97.3813C790.456 98.4317 790.23 99.548 790.23 100.72H792.23ZM792.753 98.1646C793.107 97.3153 793.577 96.6074 794.157 96.0271L792.743 94.6129C791.963 95.3925 791.353 96.3247 790.907 97.3954L792.753 98.1646ZM794.177 96.0066C794.77 95.3784 795.445 94.8954 796.204 94.5504L795.376 92.7296C794.376 93.1845 793.49 93.8216 792.723 94.6334L794.177 96.0066ZM796.189 94.5571C796.978 94.2138 797.822 94.04 798.73 94.04V92.04C797.558 92.04 796.442 92.2662 795.391 92.7229L796.189 94.5571ZM798.73 94.04C799.638 94.04 800.482 94.2138 801.271 94.5571L802.069 92.7229C801.018 92.2662 799.902 92.04 798.73 92.04V94.04ZM801.271 94.5571C802.069 94.9039 802.757 95.3861 803.343 96.0066L804.797 94.6334C804.023 93.8139 803.111 93.1761 802.069 92.7229L801.271 94.5571ZM803.384 96.047C803.997 96.6259 804.478 97.3274 804.827 98.1646L806.673 97.3954C806.222 96.3126 805.584 95.3741 804.757 94.593L803.384 96.047ZM804.848 98.2114C805.222 98.994 805.41 99.8263 805.41 100.72H807.41C807.41 99.5337 807.158 98.406 806.652 97.3485L804.848 98.2114ZM858.935 121.48L858.552 122.403L858.935 121.48ZM868.055 127.78L867.322 128.46V128.46L868.055 127.78ZM873.815 137.68L872.869 138.002L872.873 138.014L873.815 137.68ZM873.815 163.54L872.873 163.206L872.87 163.215L873.815 163.54ZM868.055 173.38L867.322 172.7L868.055 173.38ZM858.935 179.68L859.31 180.607L859.319 180.603L858.935 179.68ZM834.815 179.68L834.432 180.603L834.444 180.608L834.815 179.68ZM825.695 173.38L826.429 172.7L825.695 173.38ZM819.875 163.54L818.93 163.865L818.933 163.874L819.875 163.54ZM819.875 137.68L818.932 137.349L818.93 137.355L819.875 137.68ZM825.695 127.78L826.429 128.46L825.695 127.78ZM834.815 121.48L834.435 120.555L834.432 120.557L834.815 121.48ZM860.375 167.5L861.179 168.095L861.182 168.091L860.375 167.5ZM838.955 129.22L838.54 128.31L838.534 128.313L838.955 129.22ZM833.315 133.72L832.525 133.107L832.517 133.117L833.315 133.72ZM829.955 140.98L828.989 140.725L828.986 140.734L829.955 140.98ZM833.315 167.5L832.509 168.091L832.515 168.1L833.315 167.5ZM846.935 120.26C851.263 120.26 855.13 120.981 858.552 122.403L859.319 120.557C855.621 119.019 851.487 118.26 846.935 118.26V120.26ZM858.552 122.403C861.984 123.83 864.904 125.849 867.322 128.46L868.789 127.1C866.167 124.271 863.007 122.09 859.319 120.557L858.552 122.403ZM867.322 128.46C869.737 131.066 871.589 134.241 872.869 138.002L874.762 137.358C873.402 133.359 871.414 129.934 868.789 127.1L867.322 128.46ZM872.873 138.014C874.189 141.73 874.855 145.915 874.855 150.58H876.855C876.855 145.725 876.162 141.31 874.758 137.346L872.873 138.014ZM874.855 150.58C874.855 155.286 874.189 159.491 872.873 163.206L874.758 163.874C876.162 159.909 876.855 155.474 876.855 150.58H874.855ZM872.87 163.215C871.591 166.936 869.739 170.092 867.322 172.7L868.789 174.06C871.412 171.228 873.4 167.824 874.761 163.865L872.87 163.215ZM867.322 172.7C864.904 175.311 861.984 177.33 858.552 178.757L859.319 180.603C863.007 179.07 866.167 176.889 868.789 174.06L867.322 172.7ZM858.56 178.753C855.137 180.138 851.267 180.84 846.935 180.84V182.84C851.484 182.84 855.614 182.102 859.31 180.607L858.56 178.753ZM846.935 180.84C842.563 180.84 838.652 180.138 835.187 178.752L834.444 180.608C838.179 182.102 842.348 182.84 846.935 182.84V180.84ZM835.199 178.757C831.767 177.33 828.847 175.311 826.429 172.7L824.962 174.06C827.583 176.889 830.744 179.07 834.432 180.603L835.199 178.757ZM826.429 172.7C824.01 170.09 822.137 166.931 820.818 163.206L818.933 163.874C820.334 167.829 822.341 171.23 824.962 174.06L826.429 172.7ZM820.821 163.215C819.543 159.497 818.895 155.289 818.895 150.58H816.895C816.895 155.471 817.568 159.903 818.93 163.865L820.821 163.215ZM818.895 150.58C818.895 145.912 819.543 141.724 820.821 138.005L818.93 137.355C817.568 141.316 816.895 145.728 816.895 150.58H818.895ZM820.819 138.011C822.139 134.246 824.012 131.069 826.429 128.46L824.962 127.1C822.339 129.931 820.332 133.354 818.932 137.349L820.819 138.011ZM826.429 128.46C828.847 125.849 831.767 123.83 835.199 122.403L834.432 120.557C830.744 122.09 827.583 124.271 824.962 127.1L826.429 128.46ZM835.196 122.405C838.658 120.981 842.566 120.26 846.935 120.26V118.26C842.345 118.26 838.173 119.019 834.435 120.555L835.196 122.405ZM846.935 174.5C853.179 174.5 857.991 172.403 861.179 168.095L859.572 166.905C856.84 170.597 852.692 172.5 846.935 172.5V174.5ZM861.182 168.091C864.312 163.819 865.815 157.963 865.815 150.64H863.815C863.815 157.717 862.359 163.101 859.569 166.909L861.182 168.091ZM865.815 150.64C865.815 143.279 864.313 137.402 861.182 133.129L859.569 134.311C862.358 138.118 863.815 143.521 863.815 150.64H865.815ZM861.182 133.129C857.995 128.779 853.183 126.66 846.935 126.66V128.66C852.688 128.66 856.836 130.581 859.569 134.311L861.182 133.129ZM846.935 126.66C843.782 126.66 840.975 127.199 838.54 128.31L839.37 130.13C841.495 129.161 844.009 128.66 846.935 128.66V126.66ZM838.534 128.313C836.149 129.42 834.143 131.022 832.525 133.107L834.106 134.333C835.528 132.498 837.282 131.1 839.377 130.127L838.534 128.313ZM832.517 133.117C830.944 135.201 829.775 137.745 828.989 140.725L830.922 141.235C831.656 138.455 832.727 136.159 834.114 134.323L832.517 133.117ZM828.986 140.734C828.242 143.67 827.875 146.975 827.875 150.64H829.875C829.875 147.105 830.229 143.97 830.925 141.226L828.986 140.734ZM827.875 150.64C827.875 157.963 829.379 163.819 832.509 168.091L834.122 166.909C831.332 163.101 829.875 157.717 829.875 150.64H827.875ZM832.515 168.1C835.746 172.407 840.617 174.5 846.935 174.5V172.5C841.094 172.5 836.885 170.593 834.115 166.9L832.515 168.1ZM899.481 129.04L898.489 129.166L898.767 131.344L900.228 129.706L899.481 129.04ZM903.681 125.02L904.311 125.797L903.681 125.02ZM908.361 121.96L908.817 122.85L908.825 122.846L908.361 121.96ZM913.641 119.98L913.874 120.953L913.881 120.951L913.889 120.949L913.641 119.98ZM928.461 120.94L928.055 121.854L928.064 121.858L928.073 121.861L928.461 120.94ZM934.821 125.62L934.049 126.256L934.056 126.264L934.063 126.272L934.821 125.62ZM938.721 132.88L939.677 132.584L938.721 132.88ZM940.041 181V182H941.041V181H940.041ZM929.301 181H928.301V182H929.301V181ZM926.121 131.62L925.345 132.251L925.351 132.257L925.356 132.264L926.121 131.62ZM907.701 130.06L907.219 129.184L907.214 129.187L907.701 130.06ZM900.141 136.24L899.395 135.574L899.141 135.859V136.24H900.141ZM900.141 181V182H901.141V181H900.141ZM889.401 181H888.401V182H889.401V181ZM889.401 120.22V119.22H888.401V120.22H889.401ZM898.641 122.44L899.633 122.314L899.626 122.258L899.613 122.204L898.641 122.44ZM900.228 129.706C901.513 128.264 902.875 126.962 904.311 125.797L903.052 124.243C901.528 125.478 900.089 126.856 898.735 128.374L900.228 129.706ZM904.311 125.797C905.739 124.639 907.241 123.657 908.817 122.85L907.906 121.07C906.202 121.943 904.584 123.001 903.052 124.243L904.311 125.797ZM908.825 122.846C910.432 122.004 912.115 121.373 913.874 120.953L913.409 119.007C911.488 119.467 909.65 120.156 907.897 121.074L908.825 122.846ZM913.889 120.949C915.679 120.492 917.616 120.26 919.701 120.26V118.26C917.467 118.26 915.363 118.508 913.394 119.011L913.889 120.949ZM919.701 120.26C922.909 120.26 925.686 120.801 928.055 121.854L928.868 120.026C926.196 118.839 923.133 118.26 919.701 118.26V120.26ZM928.073 121.861C930.492 122.882 932.478 124.347 934.049 126.256L935.593 124.984C933.805 122.813 931.551 121.158 928.85 120.019L928.073 121.861ZM934.063 126.272C935.683 128.156 936.922 130.45 937.766 133.176L939.677 132.584C938.761 129.63 937.4 127.084 935.58 124.968L934.063 126.272ZM937.766 133.176C938.612 135.906 939.041 138.945 939.041 142.3H941.041C941.041 138.775 940.591 135.534 939.677 132.584L937.766 133.176ZM939.041 142.3V181H941.041V142.3H939.041ZM940.041 180H929.301V182H940.041V180ZM930.301 181V142.3H928.301V181H930.301ZM930.301 142.3C930.301 137.557 929.209 133.737 926.887 130.976L925.356 132.264C927.274 134.543 928.301 137.843 928.301 142.3H930.301ZM926.898 130.989C924.574 128.13 921.066 126.78 916.581 126.78V128.78C920.657 128.78 923.509 129.99 925.345 132.251L926.898 130.989ZM916.581 126.78C913.253 126.78 910.127 127.582 907.219 129.184L908.184 130.936C910.796 129.498 913.59 128.78 916.581 128.78V126.78ZM907.214 129.187C904.386 130.767 901.781 132.901 899.395 135.574L900.888 136.906C903.142 134.379 905.577 132.393 908.189 130.933L907.214 129.187ZM899.141 136.24V181H901.141V136.24H899.141ZM900.141 180H889.401V182H900.141V180ZM890.401 181V120.22H888.401V181H890.401ZM889.401 121.22H895.821V119.22H889.401V121.22ZM895.821 121.22C896.419 121.22 896.797 121.363 897.048 121.561C897.299 121.758 897.528 122.094 897.67 122.676L899.613 122.204C899.395 121.306 898.974 120.532 898.285 119.989C897.596 119.447 896.744 119.22 895.821 119.22V121.22ZM897.649 122.566L898.489 129.166L900.473 128.914L899.633 122.314L897.649 122.566Z" fill="#5086EB" mask="url(#path-2-outside-1_70_63)"/>
</svg>
