<svg width="117" height="190" viewBox="0 0 117 190" fill="none" xmlns="http://www.w3.org/2000/svg">
<path d="M47.478 90.9956L107.733 30.7408C111.135 27.3387 113.009 22.815 113.009 18.004C113.009 13.193 111.135 8.66944 107.733 5.26725C100.709 -1.75539 89.2825 -1.7561 82.2592 5.26725L9.26725 78.2592C2.24425 85.2822 2.24425 96.7094 9.26725 103.733L82.2592 176.724C85.6614 180.127 90.1844 182 94.9956 182C99.8068 182 104.33 180.127 107.732 176.725C111.135 173.323 113.009 168.799 113.009 163.988C113.009 159.177 111.135 154.653 107.732 151.251L47.478 90.9956ZM102.605 171.597C100.573 173.629 97.8696 174.749 94.9956 174.749C92.1216 174.749 89.419 173.629 87.3868 171.597L14.3949 98.6052C10.1993 94.4092 10.1993 87.5821 14.3949 83.3865L87.3872 10.3945C89.4848 8.29692 92.2404 7.24757 94.996 7.24757C97.7516 7.24757 100.508 8.29692 102.605 10.3949C104.637 12.4275 105.757 15.1297 105.757 18.004C105.757 20.8783 104.637 23.581 102.605 25.6136L39.7867 88.432C38.3709 89.8482 38.3709 92.1438 39.7867 93.5596L102.605 156.378C104.637 158.411 105.757 161.114 105.757 163.988C105.757 166.862 104.637 169.564 102.605 171.597Z" fill="#466CAE"/>
<path d="M103.929 150.824C97.4393 144.956 91.7432 138.483 86.2524 131.693C80.5699 124.665 73.4844 119.207 66.579 113.44C63.038 110.482 59.5438 107.455 55.9499 104.562C55.4557 104.165 54.9702 103.786 54.4749 103.429C53.2128 101.196 50.9201 99.7243 48.5037 98.5851C49.3747 96.7571 49.2979 94.5131 47.5786 93.0209C46.4868 92.0733 45.3617 90.9544 44.1811 89.8556C48.7782 85.4807 52.8151 80.5949 57.1191 75.9193C59.62 73.2024 62.2185 70.5247 65.1119 68.2187C67.6696 66.1802 70.5964 64.5779 72.9889 62.3273C75.5373 59.93 78.1239 55.5276 77.734 51.7967C78.7433 51.9713 79.8221 51.822 80.8599 51.2136C86.7992 47.7317 99.5063 41.8094 97.6921 33.401C102.723 31.4146 107.316 28.5884 109.824 23.4385C112.818 17.2914 110.896 10.082 105.055 6.45141C99.0924 2.74499 93.1359 4.63037 88.0318 8.72405C81.3714 14.066 75.3141 20.1455 69.7192 26.5828C69.3587 26.9974 69.0866 27.4294 68.8827 27.8684C67.3654 28.1 65.7975 28.8082 65.1048 30.2785C65.0376 30.4211 64.9704 30.5637 64.9032 30.7062C64.4571 31.6532 64.3031 32.6408 64.3841 33.5777C64.054 33.9272 63.711 34.3334 63.4566 34.6425C61.3423 33.5547 58.5267 33.8556 56.9221 36.4328C56.0309 37.8642 55.3462 39.5002 54.9263 41.2095C51.4738 46.9252 43.9113 49.8274 38.9898 54.0777C35.8436 56.7949 33.5215 60.1695 30.9837 63.4231C28.133 67.0777 24.8934 69.9444 21.2469 72.7811C15.1573 77.518 8.95029 83.0283 7.95908 91.1554C7.52604 94.7057 8.41959 97.2412 11.2219 99.5074C12.8744 100.844 14.3403 102.042 15.649 103.386C16.9197 105.416 18.4177 107.338 19.9111 109.153C21.4244 110.992 23.4206 111.135 25.0899 110.335C25.9061 111.528 26.789 112.627 27.6572 113.568C32.4482 118.759 38.9502 122.104 44.3946 126.52C48.6056 129.935 52.5273 133.682 56.3392 137.538C57.4308 139.653 58.5795 141.723 59.8309 143.7C62.0799 147.254 65.5253 148.389 68.5586 151.011C71.4792 153.536 73.9325 156.862 76.4192 159.799C79.2306 163.119 81.9686 166.504 84.5977 169.97C86.6581 172.687 88.5547 176.212 92.0683 177.24C98.1444 179.018 106.432 172.447 109.675 167.869C114.634 160.866 108.975 155.387 103.929 150.824Z" fill="#105FD8"/>
<path d="M85.6173 159.543C79.5243 151.249 71.8213 144.698 64.5354 137.514C57.8083 130.881 52.8482 121.87 44.3939 117.246C38.7452 114.156 33.6928 122.788 39.3467 125.88C46.8208 129.969 51.4735 138.678 57.4643 144.585C64.0907 151.119 71.441 157.047 76.9826 164.59C80.7531 169.723 89.4351 164.74 85.6173 159.543Z" fill="#105FD8"/>
<path d="M63.5154 28.3823C57.0809 28.3823 57.0703 38.3823 63.5154 38.3823C69.95 38.3823 69.9606 28.3823 63.5154 28.3823Z" fill="#105FD8"/>
<g filter="url(#filter0_d_170_63)">
<path d="M47.478 90.9956L107.733 30.7408C111.135 27.3387 113.009 22.815 113.009 18.004C113.009 13.1928 111.135 8.66944 107.733 5.26725C100.709 -1.75539 89.2825 -1.7561 82.2592 5.26725L9.26725 78.2592C2.24425 85.2822 2.24425 96.7094 9.26725 103.733L82.2592 176.724C85.6614 180.127 90.1844 182 94.9956 182C99.8069 182 104.33 180.127 107.732 176.725C111.135 173.323 113.009 168.799 113.009 163.988C113.009 159.177 111.135 154.653 107.732 151.251L47.478 90.9956ZM102.605 171.597C100.573 173.629 97.8696 174.749 94.9956 174.749C92.1217 174.749 89.419 173.629 87.3868 171.597L14.3949 98.6052C10.1993 94.4092 10.1993 87.5821 14.3949 83.3865L87.3872 10.3945C89.4848 8.29691 92.2404 7.24756 94.996 7.24756C97.7516 7.24756 100.508 8.29691 102.605 10.3949C104.637 12.4275 105.757 15.1297 105.757 18.004C105.757 20.8784 104.637 23.581 102.605 25.6136L39.7867 88.432C38.3709 89.8482 38.3709 92.1438 39.7867 93.5596L102.605 156.378C104.637 158.411 105.757 161.114 105.757 163.988C105.757 166.862 104.637 169.564 102.605 171.597Z" fill="#5086EB"/>
</g>
<defs>
<filter id="filter0_d_170_63" x="0" y="0" width="117.009" height="190" filterUnits="userSpaceOnUse" color-interpolation-filters="sRGB">
<feFlood flood-opacity="0" result="BackgroundImageFix"/>
<feColorMatrix in="SourceAlpha" type="matrix" values="0 0 0 0 0 0 0 0 0 0 0 0 0 0 0 0 0 0 127 0" result="hardAlpha"/>
<feOffset dy="4"/>
<feGaussianBlur stdDeviation="2"/>
<feComposite in2="hardAlpha" operator="out"/>
<feColorMatrix type="matrix" values="0 0 0 0 0 0 0 0 0 0 0 0 0 0 0 0 0 0 0.25 0"/>
<feBlend mode="normal" in2="BackgroundImageFix" result="effect1_dropShadow_170_63"/>
<feBlend mode="normal" in="SourceGraphic" in2="effect1_dropShadow_170_63" result="shape"/>
</filter>
</defs>
</svg>
