<svg width="137" height="137" viewBox="0 0 137 137" fill="none" xmlns="http://www.w3.org/2000/svg">
<path d="M135.714 74.425C134.534 87.1915 129.743 99.358 121.9 109.501C114.058 119.644 103.49 127.343 91.4314 131.699C79.373 136.055 66.3235 136.886 53.8099 134.096C41.2962 131.305 29.8361 125.009 20.7703 115.943C11.7045 106.878 5.40816 95.4174 2.61792 82.9037C-0.172318 70.3901 0.658986 57.3406 5.01456 45.2822C9.37014 33.2238 17.0698 22.6552 27.2127 14.8131C37.3556 6.97105 49.5221 2.17979 62.2886 1C54.8142 11.112 51.2175 23.5709 52.1526 36.1106C53.0877 48.6503 58.4926 60.4379 67.3841 69.3295C76.2757 78.221 88.0633 83.6259 100.603 84.561C113.143 85.4961 125.602 81.8994 135.714 74.425Z" fill="#F1A93C" stroke="black" stroke-width="2" stroke-linecap="round" stroke-linejoin="round"/>
</svg>
