<svg width="1056" height="271" viewBox="0 0 1056 271" fill="none" xmlns="http://www.w3.org/2000/svg">
<rect x="2.5" y="2.5" width="1051" height="266" rx="97.5" fill="#101B2F" stroke="#5086EB" stroke-width="5"/>
<mask id="path-2-outside-1_44_11" maskUnits="userSpaceOnUse" x="104" y="91" width="853" height="112" fill="black">
<rect fill="white" x="104" y="91" width="853" height="112"/>
<path d="M174.726 95.02V181H168.906C167.986 181 167.206 180.84 166.566 180.52C165.966 180.2 165.366 179.66 164.766 178.9L115.026 114.1C115.106 115.1 115.166 116.08 115.206 117.04C115.246 118 115.266 118.9 115.266 119.74V181H105.066V95.02H111.066C111.586 95.02 112.026 95.06 112.386 95.14C112.746 95.18 113.066 95.28 113.346 95.44C113.626 95.56 113.906 95.76 114.186 96.04C114.466 96.28 114.766 96.6 115.086 97L164.826 161.74C164.746 160.7 164.666 159.7 164.586 158.74C164.546 157.74 164.526 156.8 164.526 155.92V95.02H174.726ZM232.992 143.98C232.992 141.5 232.632 139.24 231.912 137.2C231.232 135.12 230.212 133.34 228.852 131.86C227.532 130.34 225.912 129.18 223.992 128.38C222.072 127.54 219.892 127.12 217.452 127.12C212.332 127.12 208.272 128.62 205.272 131.62C202.312 134.58 200.472 138.7 199.752 143.98H232.992ZM241.632 172.48C240.312 174.08 238.732 175.48 236.892 176.68C235.052 177.84 233.072 178.8 230.952 179.56C228.872 180.32 226.712 180.88 224.472 181.24C222.232 181.64 220.012 181.84 217.812 181.84C213.612 181.84 209.732 181.14 206.172 179.74C202.652 178.3 199.592 176.22 196.992 173.5C194.432 170.74 192.432 167.34 190.992 163.3C189.552 159.26 188.832 154.62 188.832 149.38C188.832 145.14 189.472 141.18 190.752 137.5C192.072 133.82 193.952 130.64 196.392 127.96C198.832 125.24 201.812 123.12 205.332 121.6C208.852 120.04 212.812 119.26 217.212 119.26C220.852 119.26 224.212 119.88 227.292 121.12C230.412 122.32 233.092 124.08 235.332 126.4C237.612 128.68 239.392 131.52 240.672 134.92C241.952 138.28 242.592 142.12 242.592 146.44C242.592 148.12 242.412 149.24 242.052 149.8C241.692 150.36 241.012 150.64 240.012 150.64H199.392C199.512 154.48 200.032 157.82 200.952 160.66C201.912 163.5 203.232 165.88 204.912 167.8C206.592 169.68 208.592 171.1 210.912 172.06C213.232 172.98 215.832 173.44 218.712 173.44C221.392 173.44 223.692 173.14 225.612 172.54C227.572 171.9 229.252 171.22 230.652 170.5C232.052 169.78 233.212 169.12 234.132 168.52C235.092 167.88 235.912 167.56 236.592 167.56C237.472 167.56 238.152 167.9 238.632 168.58L241.632 172.48ZM338.944 120.22L319.264 181H310.804C309.764 181 309.044 180.32 308.644 178.96L295.204 137.74C294.884 136.82 294.624 135.9 294.424 134.98C294.224 134.02 294.024 133.08 293.824 132.16C293.624 133.08 293.424 134.02 293.224 134.98C293.024 135.9 292.764 136.84 292.444 137.8L278.764 178.96C278.404 180.32 277.604 181 276.364 181H268.324L248.644 120.22H257.044C257.884 120.22 258.584 120.44 259.144 120.88C259.744 121.32 260.144 121.84 260.344 122.44L271.984 161.56C272.664 164.44 273.204 167.16 273.604 169.72C273.964 168.4 274.324 167.06 274.684 165.7C275.084 164.34 275.504 162.96 275.944 161.56L288.784 122.2C288.984 121.6 289.324 121.1 289.804 120.7C290.324 120.3 290.944 120.1 291.664 120.1H296.344C297.144 120.1 297.804 120.3 298.324 120.7C298.844 121.1 299.204 121.6 299.404 122.2L311.944 161.56C312.384 162.96 312.784 164.34 313.144 165.7C313.504 167.06 313.844 168.4 314.164 169.72C314.364 168.4 314.604 167.08 314.884 165.76C315.204 164.4 315.544 163 315.904 161.56L327.784 122.44C327.984 121.8 328.364 121.28 328.924 120.88C329.484 120.44 330.144 120.22 330.904 120.22H338.944ZM421.781 149.08L408.281 114.1C407.881 113.06 407.461 111.86 407.021 110.5C406.581 109.1 406.161 107.62 405.761 106.06C404.921 109.3 404.061 112 403.181 114.16L389.681 149.08H421.781ZM446.021 181H437.021C435.981 181 435.141 180.74 434.501 180.22C433.861 179.7 433.381 179.04 433.061 178.24L425.021 157.48H386.441L378.401 178.24C378.161 178.96 377.701 179.6 377.021 180.16C376.341 180.72 375.501 181 374.501 181H365.501L399.881 95.02H411.641L446.021 181ZM465.317 166.36C467.277 169 469.417 170.86 471.737 171.94C474.057 173.02 476.657 173.56 479.537 173.56C485.217 173.56 489.577 171.54 492.617 167.5C495.657 163.46 497.177 157.7 497.177 150.22C497.177 146.26 496.817 142.86 496.097 140.02C495.417 137.18 494.417 134.86 493.097 133.06C491.777 131.22 490.157 129.88 488.237 129.04C486.317 128.2 484.137 127.78 481.697 127.78C478.217 127.78 475.157 128.58 472.517 130.18C469.917 131.78 467.517 134.04 465.317 136.96V166.36ZM464.777 129.64C467.337 126.48 470.297 123.94 473.657 122.02C477.017 120.1 480.857 119.14 485.177 119.14C488.697 119.14 491.877 119.82 494.717 121.18C497.557 122.5 499.977 124.48 501.977 127.12C503.977 129.72 505.517 132.96 506.597 136.84C507.677 140.72 508.217 145.18 508.217 150.22C508.217 154.7 507.617 158.88 506.417 162.76C505.217 166.6 503.477 169.94 501.197 172.78C498.957 175.58 496.197 177.8 492.917 179.44C489.677 181.04 486.017 181.84 481.937 181.84C478.217 181.84 475.017 181.22 472.337 179.98C469.697 178.7 467.357 176.94 465.317 174.7V201.58H454.577V120.22H460.997C462.517 120.22 463.457 120.96 463.817 122.44L464.777 129.64ZM532.583 166.36C534.543 169 536.683 170.86 539.003 171.94C541.323 173.02 543.923 173.56 546.803 173.56C552.483 173.56 556.843 171.54 559.883 167.5C562.923 163.46 564.443 157.7 564.443 150.22C564.443 146.26 564.083 142.86 563.363 140.02C562.683 137.18 561.683 134.86 560.363 133.06C559.043 131.22 557.423 129.88 555.503 129.04C553.583 128.2 551.403 127.78 548.963 127.78C545.483 127.78 542.423 128.58 539.783 130.18C537.183 131.78 534.783 134.04 532.583 136.96V166.36ZM532.043 129.64C534.603 126.48 537.563 123.94 540.923 122.02C544.283 120.1 548.123 119.14 552.443 119.14C555.963 119.14 559.143 119.82 561.983 121.18C564.823 122.5 567.243 124.48 569.243 127.12C571.243 129.72 572.783 132.96 573.863 136.84C574.943 140.72 575.483 145.18 575.483 150.22C575.483 154.7 574.883 158.88 573.683 162.76C572.483 166.6 570.743 169.94 568.463 172.78C566.223 175.58 563.463 177.8 560.183 179.44C556.943 181.04 553.283 181.84 549.203 181.84C545.483 181.84 542.283 181.22 539.603 179.98C536.963 178.7 534.623 176.94 532.583 174.7V201.58H521.843V120.22H528.263C529.783 120.22 530.723 120.96 531.083 122.44L532.043 129.64ZM600.148 92.62V181H589.468V92.62H600.148ZM628.748 120.22V181H618.068V120.22H628.748ZM631.028 101.14C631.028 102.18 630.808 103.16 630.368 104.08C629.968 104.96 629.408 105.76 628.688 106.48C628.008 107.16 627.188 107.7 626.228 108.1C625.308 108.5 624.328 108.7 623.288 108.7C622.248 108.7 621.268 108.5 620.348 108.1C619.468 107.7 618.688 107.16 618.008 106.48C617.328 105.76 616.788 104.96 616.388 104.08C615.988 103.16 615.788 102.18 615.788 101.14C615.788 100.1 615.988 99.12 616.388 98.2C616.788 97.24 617.328 96.42 618.008 95.74C618.688 95.02 619.468 94.46 620.348 94.06C621.268 93.66 622.248 93.46 623.288 93.46C624.328 93.46 625.308 93.66 626.228 94.06C627.188 94.46 628.008 95.02 628.688 95.74C629.408 96.42 629.968 97.24 630.368 98.2C630.808 99.12 631.028 100.1 631.028 101.14ZM688.596 131.02C688.276 131.46 687.956 131.8 687.636 132.04C687.316 132.28 686.876 132.4 686.316 132.4C685.716 132.4 685.056 132.16 684.336 131.68C683.616 131.16 682.716 130.6 681.636 130C680.596 129.4 679.296 128.86 677.736 128.38C676.216 127.86 674.336 127.6 672.096 127.6C669.096 127.6 666.456 128.14 664.176 129.22C661.896 130.26 659.976 131.78 658.416 133.78C656.896 135.78 655.736 138.2 654.936 141.04C654.176 143.88 653.796 147.06 653.796 150.58C653.796 154.26 654.216 157.54 655.056 160.42C655.896 163.26 657.076 165.66 658.596 167.62C660.156 169.54 662.016 171.02 664.176 172.06C666.376 173.06 668.836 173.56 671.556 173.56C674.156 173.56 676.296 173.26 677.976 172.66C679.656 172.02 681.036 171.32 682.116 170.56C683.236 169.8 684.156 169.12 684.876 168.52C685.636 167.88 686.376 167.56 687.096 167.56C687.976 167.56 688.656 167.9 689.136 168.58L692.136 172.48C690.816 174.12 689.316 175.52 687.636 176.68C685.956 177.84 684.136 178.82 682.176 179.62C680.256 180.38 678.236 180.94 676.116 181.3C673.996 181.66 671.836 181.84 669.636 181.84C665.836 181.84 662.296 181.14 659.016 179.74C655.776 178.34 652.956 176.32 650.556 173.68C648.156 171 646.276 167.72 644.916 163.84C643.556 159.96 642.876 155.54 642.876 150.58C642.876 146.06 643.496 141.88 644.736 138.04C646.016 134.2 647.856 130.9 650.256 128.14C652.696 125.34 655.676 123.16 659.196 121.6C662.756 120.04 666.836 119.26 671.436 119.26C675.716 119.26 679.476 119.96 682.716 121.36C685.996 122.72 688.896 124.66 691.416 127.18L688.596 131.02ZM736.541 153.64C731.621 153.8 727.421 154.2 723.941 154.84C720.501 155.44 717.681 156.24 715.481 157.24C713.321 158.24 711.741 159.42 710.741 160.78C709.781 162.14 709.301 163.66 709.301 165.34C709.301 166.94 709.561 168.32 710.081 169.48C710.601 170.64 711.301 171.6 712.181 172.36C713.101 173.08 714.161 173.62 715.361 173.98C716.601 174.3 717.921 174.46 719.321 174.46C721.201 174.46 722.921 174.28 724.481 173.92C726.041 173.52 727.501 172.96 728.861 172.24C730.261 171.52 731.581 170.66 732.821 169.66C734.101 168.66 735.341 167.52 736.541 166.24V153.64ZM702.041 128.8C705.401 125.56 709.021 123.14 712.901 121.54C716.781 119.94 721.081 119.14 725.801 119.14C729.201 119.14 732.221 119.7 734.861 120.82C737.501 121.94 739.721 123.5 741.521 125.5C743.321 127.5 744.681 129.92 745.601 132.76C746.521 135.6 746.981 138.72 746.981 142.12V181H742.241C741.201 181 740.401 180.84 739.841 180.52C739.281 180.16 738.841 179.48 738.521 178.48L737.321 172.72C735.721 174.2 734.161 175.52 732.641 176.68C731.121 177.8 729.521 178.76 727.841 179.56C726.161 180.32 724.361 180.9 722.441 181.3C720.561 181.74 718.461 181.96 716.141 181.96C713.781 181.96 711.561 181.64 709.481 181C707.401 180.32 705.581 179.32 704.021 178C702.501 176.68 701.281 175.02 700.361 173.02C699.481 170.98 699.041 168.58 699.041 165.82C699.041 163.42 699.701 161.12 701.021 158.92C702.341 156.68 704.481 154.7 707.441 152.98C710.401 151.26 714.261 149.86 719.021 148.78C723.781 147.66 729.621 147.02 736.541 146.86V142.12C736.541 137.4 735.521 133.84 733.481 131.44C731.441 129 728.461 127.78 724.541 127.78C721.901 127.78 719.681 128.12 717.881 128.8C716.121 129.44 714.581 130.18 713.261 131.02C711.981 131.82 710.861 132.56 709.901 133.24C708.981 133.88 708.061 134.2 707.141 134.2C706.421 134.2 705.801 134.02 705.281 133.66C704.761 133.26 704.321 132.78 703.961 132.22L702.041 128.8ZM818.829 181H808.149V129.16H776.829V165.64C776.829 168.2 777.449 170.1 778.689 171.34C779.929 172.58 781.529 173.2 783.489 173.2C784.609 173.2 785.569 173.06 786.369 172.78C787.209 172.46 787.929 172.12 788.529 171.76C789.129 171.4 789.629 171.08 790.029 170.8C790.469 170.48 790.849 170.32 791.169 170.32C791.729 170.32 792.229 170.66 792.669 171.34L795.789 176.44C793.949 178.16 791.729 179.52 789.129 180.52C786.529 181.48 783.849 181.96 781.089 181.96C776.289 181.96 772.589 180.62 769.989 177.94C767.429 175.26 766.149 171.4 766.149 166.36V129.16H758.829C758.189 129.16 757.649 128.98 757.209 128.62C756.769 128.22 756.549 127.62 756.549 126.82V122.56L766.509 121.24L768.969 102.52C769.089 101.92 769.349 101.44 769.749 101.08C770.189 100.68 770.749 100.48 771.429 100.48H776.829V121.42H818.829V181ZM821.469 100.72C821.469 101.76 821.249 102.74 820.809 103.66C820.409 104.54 819.849 105.32 819.129 106C818.449 106.68 817.649 107.22 816.729 107.62C815.809 108.02 814.829 108.22 813.789 108.22C812.749 108.22 811.769 108.02 810.849 107.62C809.969 107.22 809.189 106.68 808.509 106C807.829 105.32 807.289 104.54 806.889 103.66C806.489 102.74 806.289 101.76 806.289 100.72C806.289 99.68 806.489 98.7 806.889 97.78C807.289 96.82 807.829 96 808.509 95.32C809.189 94.6 809.969 94.04 810.849 93.64C811.769 93.24 812.749 93.04 813.789 93.04C814.829 93.04 815.809 93.24 816.729 93.64C817.649 94.04 818.449 94.6 819.129 95.32C819.849 96 820.409 96.82 820.809 97.78C821.249 98.7 821.469 99.68 821.469 100.72ZM861.994 119.26C866.434 119.26 870.434 120 873.994 121.48C877.554 122.96 880.594 125.06 883.114 127.78C885.634 130.5 887.554 133.8 888.874 137.68C890.234 141.52 890.914 145.82 890.914 150.58C890.914 155.38 890.234 159.7 888.874 163.54C887.554 167.38 885.634 170.66 883.114 173.38C880.594 176.1 877.554 178.2 873.994 179.68C870.434 181.12 866.434 181.84 861.994 181.84C857.514 181.84 853.474 181.12 849.874 179.68C846.314 178.2 843.274 176.1 840.754 173.38C838.234 170.66 836.294 167.38 834.934 163.54C833.614 159.7 832.954 155.38 832.954 150.58C832.954 145.82 833.614 141.52 834.934 137.68C836.294 133.8 838.234 130.5 840.754 127.78C843.274 125.06 846.314 122.96 849.874 121.48C853.474 120 857.514 119.26 861.994 119.26ZM861.994 173.5C867.994 173.5 872.474 171.5 875.434 167.5C878.394 163.46 879.874 157.84 879.874 150.64C879.874 143.4 878.394 137.76 875.434 133.72C872.474 129.68 867.994 127.66 861.994 127.66C858.954 127.66 856.294 128.18 854.014 129.22C851.774 130.26 849.894 131.76 848.374 133.72C846.894 135.68 845.774 138.1 845.014 140.98C844.294 143.82 843.934 147.04 843.934 150.64C843.934 157.84 845.414 163.46 848.374 167.5C851.374 171.5 855.914 173.5 861.994 173.5ZM914.54 129.04C915.86 127.56 917.26 126.22 918.74 125.02C920.22 123.82 921.78 122.8 923.42 121.96C925.1 121.08 926.86 120.42 928.7 119.98C930.58 119.5 932.6 119.26 934.76 119.26C938.08 119.26 941 119.82 943.52 120.94C946.08 122.02 948.2 123.58 949.88 125.62C951.6 127.62 952.9 130.04 953.78 132.88C954.66 135.72 955.1 138.86 955.1 142.3V181H944.36V142.3C944.36 137.7 943.3 134.14 941.18 131.62C939.1 129.06 935.92 127.78 931.64 127.78C928.48 127.78 925.52 128.54 922.76 130.06C920.04 131.58 917.52 133.64 915.2 136.24V181H904.46V120.22H910.88C912.4 120.22 913.34 120.96 913.7 122.44L914.54 129.04Z"/>
</mask>
<path d="M174.726 95.02V181H168.906C167.986 181 167.206 180.84 166.566 180.52C165.966 180.2 165.366 179.66 164.766 178.9L115.026 114.1C115.106 115.1 115.166 116.08 115.206 117.04C115.246 118 115.266 118.9 115.266 119.74V181H105.066V95.02H111.066C111.586 95.02 112.026 95.06 112.386 95.14C112.746 95.18 113.066 95.28 113.346 95.44C113.626 95.56 113.906 95.76 114.186 96.04C114.466 96.28 114.766 96.6 115.086 97L164.826 161.74C164.746 160.7 164.666 159.7 164.586 158.74C164.546 157.74 164.526 156.8 164.526 155.92V95.02H174.726ZM232.992 143.98C232.992 141.5 232.632 139.24 231.912 137.2C231.232 135.12 230.212 133.34 228.852 131.86C227.532 130.34 225.912 129.18 223.992 128.38C222.072 127.54 219.892 127.12 217.452 127.12C212.332 127.12 208.272 128.62 205.272 131.62C202.312 134.58 200.472 138.7 199.752 143.98H232.992ZM241.632 172.48C240.312 174.08 238.732 175.48 236.892 176.68C235.052 177.84 233.072 178.8 230.952 179.56C228.872 180.32 226.712 180.88 224.472 181.24C222.232 181.64 220.012 181.84 217.812 181.84C213.612 181.84 209.732 181.14 206.172 179.74C202.652 178.3 199.592 176.22 196.992 173.5C194.432 170.74 192.432 167.34 190.992 163.3C189.552 159.26 188.832 154.62 188.832 149.38C188.832 145.14 189.472 141.18 190.752 137.5C192.072 133.82 193.952 130.64 196.392 127.96C198.832 125.24 201.812 123.12 205.332 121.6C208.852 120.04 212.812 119.26 217.212 119.26C220.852 119.26 224.212 119.88 227.292 121.12C230.412 122.32 233.092 124.08 235.332 126.4C237.612 128.68 239.392 131.52 240.672 134.92C241.952 138.28 242.592 142.12 242.592 146.44C242.592 148.12 242.412 149.24 242.052 149.8C241.692 150.36 241.012 150.64 240.012 150.64H199.392C199.512 154.48 200.032 157.82 200.952 160.66C201.912 163.5 203.232 165.88 204.912 167.8C206.592 169.68 208.592 171.1 210.912 172.06C213.232 172.98 215.832 173.44 218.712 173.44C221.392 173.44 223.692 173.14 225.612 172.54C227.572 171.9 229.252 171.22 230.652 170.5C232.052 169.78 233.212 169.12 234.132 168.52C235.092 167.88 235.912 167.56 236.592 167.56C237.472 167.56 238.152 167.9 238.632 168.58L241.632 172.48ZM338.944 120.22L319.264 181H310.804C309.764 181 309.044 180.32 308.644 178.96L295.204 137.74C294.884 136.82 294.624 135.9 294.424 134.98C294.224 134.02 294.024 133.08 293.824 132.16C293.624 133.08 293.424 134.02 293.224 134.98C293.024 135.9 292.764 136.84 292.444 137.8L278.764 178.96C278.404 180.32 277.604 181 276.364 181H268.324L248.644 120.22H257.044C257.884 120.22 258.584 120.44 259.144 120.88C259.744 121.32 260.144 121.84 260.344 122.44L271.984 161.56C272.664 164.44 273.204 167.16 273.604 169.72C273.964 168.4 274.324 167.06 274.684 165.7C275.084 164.34 275.504 162.96 275.944 161.56L288.784 122.2C288.984 121.6 289.324 121.1 289.804 120.7C290.324 120.3 290.944 120.1 291.664 120.1H296.344C297.144 120.1 297.804 120.3 298.324 120.7C298.844 121.1 299.204 121.6 299.404 122.2L311.944 161.56C312.384 162.96 312.784 164.34 313.144 165.7C313.504 167.06 313.844 168.4 314.164 169.72C314.364 168.4 314.604 167.08 314.884 165.76C315.204 164.4 315.544 163 315.904 161.56L327.784 122.44C327.984 121.8 328.364 121.28 328.924 120.88C329.484 120.44 330.144 120.22 330.904 120.22H338.944ZM421.781 149.08L408.281 114.1C407.881 113.06 407.461 111.86 407.021 110.5C406.581 109.1 406.161 107.62 405.761 106.06C404.921 109.3 404.061 112 403.181 114.16L389.681 149.08H421.781ZM446.021 181H437.021C435.981 181 435.141 180.74 434.501 180.22C433.861 179.7 433.381 179.04 433.061 178.24L425.021 157.48H386.441L378.401 178.24C378.161 178.96 377.701 179.6 377.021 180.16C376.341 180.72 375.501 181 374.501 181H365.501L399.881 95.02H411.641L446.021 181ZM465.317 166.36C467.277 169 469.417 170.86 471.737 171.94C474.057 173.02 476.657 173.56 479.537 173.56C485.217 173.56 489.577 171.54 492.617 167.5C495.657 163.46 497.177 157.7 497.177 150.22C497.177 146.26 496.817 142.86 496.097 140.02C495.417 137.18 494.417 134.86 493.097 133.06C491.777 131.22 490.157 129.88 488.237 129.04C486.317 128.2 484.137 127.78 481.697 127.78C478.217 127.78 475.157 128.58 472.517 130.18C469.917 131.78 467.517 134.04 465.317 136.96V166.36ZM464.777 129.64C467.337 126.48 470.297 123.94 473.657 122.02C477.017 120.1 480.857 119.14 485.177 119.14C488.697 119.14 491.877 119.82 494.717 121.18C497.557 122.5 499.977 124.48 501.977 127.12C503.977 129.72 505.517 132.96 506.597 136.84C507.677 140.72 508.217 145.18 508.217 150.22C508.217 154.7 507.617 158.88 506.417 162.76C505.217 166.6 503.477 169.94 501.197 172.78C498.957 175.58 496.197 177.8 492.917 179.44C489.677 181.04 486.017 181.84 481.937 181.84C478.217 181.84 475.017 181.22 472.337 179.98C469.697 178.7 467.357 176.94 465.317 174.7V201.58H454.577V120.22H460.997C462.517 120.22 463.457 120.96 463.817 122.44L464.777 129.64ZM532.583 166.36C534.543 169 536.683 170.86 539.003 171.94C541.323 173.02 543.923 173.56 546.803 173.56C552.483 173.56 556.843 171.54 559.883 167.5C562.923 163.46 564.443 157.7 564.443 150.22C564.443 146.26 564.083 142.86 563.363 140.02C562.683 137.18 561.683 134.86 560.363 133.06C559.043 131.22 557.423 129.88 555.503 129.04C553.583 128.2 551.403 127.78 548.963 127.78C545.483 127.78 542.423 128.58 539.783 130.18C537.183 131.78 534.783 134.04 532.583 136.96V166.36ZM532.043 129.64C534.603 126.48 537.563 123.94 540.923 122.02C544.283 120.1 548.123 119.14 552.443 119.14C555.963 119.14 559.143 119.82 561.983 121.18C564.823 122.5 567.243 124.48 569.243 127.12C571.243 129.72 572.783 132.96 573.863 136.84C574.943 140.72 575.483 145.18 575.483 150.22C575.483 154.7 574.883 158.88 573.683 162.76C572.483 166.6 570.743 169.94 568.463 172.78C566.223 175.58 563.463 177.8 560.183 179.44C556.943 181.04 553.283 181.84 549.203 181.84C545.483 181.84 542.283 181.22 539.603 179.98C536.963 178.7 534.623 176.94 532.583 174.7V201.58H521.843V120.22H528.263C529.783 120.22 530.723 120.96 531.083 122.44L532.043 129.64ZM600.148 92.62V181H589.468V92.62H600.148ZM628.748 120.22V181H618.068V120.22H628.748ZM631.028 101.14C631.028 102.18 630.808 103.16 630.368 104.08C629.968 104.96 629.408 105.76 628.688 106.48C628.008 107.16 627.188 107.7 626.228 108.1C625.308 108.5 624.328 108.7 623.288 108.7C622.248 108.7 621.268 108.5 620.348 108.1C619.468 107.7 618.688 107.16 618.008 106.48C617.328 105.76 616.788 104.96 616.388 104.08C615.988 103.16 615.788 102.18 615.788 101.14C615.788 100.1 615.988 99.12 616.388 98.2C616.788 97.24 617.328 96.42 618.008 95.74C618.688 95.02 619.468 94.46 620.348 94.06C621.268 93.66 622.248 93.46 623.288 93.46C624.328 93.46 625.308 93.66 626.228 94.06C627.188 94.46 628.008 95.02 628.688 95.74C629.408 96.42 629.968 97.24 630.368 98.2C630.808 99.12 631.028 100.1 631.028 101.14ZM688.596 131.02C688.276 131.46 687.956 131.8 687.636 132.04C687.316 132.28 686.876 132.4 686.316 132.4C685.716 132.4 685.056 132.16 684.336 131.68C683.616 131.16 682.716 130.6 681.636 130C680.596 129.4 679.296 128.86 677.736 128.38C676.216 127.86 674.336 127.6 672.096 127.6C669.096 127.6 666.456 128.14 664.176 129.22C661.896 130.26 659.976 131.78 658.416 133.78C656.896 135.78 655.736 138.2 654.936 141.04C654.176 143.88 653.796 147.06 653.796 150.58C653.796 154.26 654.216 157.54 655.056 160.42C655.896 163.26 657.076 165.66 658.596 167.62C660.156 169.54 662.016 171.02 664.176 172.06C666.376 173.06 668.836 173.56 671.556 173.56C674.156 173.56 676.296 173.26 677.976 172.66C679.656 172.02 681.036 171.32 682.116 170.56C683.236 169.8 684.156 169.12 684.876 168.52C685.636 167.88 686.376 167.56 687.096 167.56C687.976 167.56 688.656 167.9 689.136 168.58L692.136 172.48C690.816 174.12 689.316 175.52 687.636 176.68C685.956 177.84 684.136 178.82 682.176 179.62C680.256 180.38 678.236 180.94 676.116 181.3C673.996 181.66 671.836 181.84 669.636 181.84C665.836 181.84 662.296 181.14 659.016 179.74C655.776 178.34 652.956 176.32 650.556 173.68C648.156 171 646.276 167.72 644.916 163.84C643.556 159.96 642.876 155.54 642.876 150.58C642.876 146.06 643.496 141.88 644.736 138.04C646.016 134.2 647.856 130.9 650.256 128.14C652.696 125.34 655.676 123.16 659.196 121.6C662.756 120.04 666.836 119.26 671.436 119.26C675.716 119.26 679.476 119.96 682.716 121.36C685.996 122.72 688.896 124.66 691.416 127.18L688.596 131.02ZM736.541 153.64C731.621 153.8 727.421 154.2 723.941 154.84C720.501 155.44 717.681 156.24 715.481 157.24C713.321 158.24 711.741 159.42 710.741 160.78C709.781 162.14 709.301 163.66 709.301 165.34C709.301 166.94 709.561 168.32 710.081 169.48C710.601 170.64 711.301 171.6 712.181 172.36C713.101 173.08 714.161 173.62 715.361 173.98C716.601 174.3 717.921 174.46 719.321 174.46C721.201 174.46 722.921 174.28 724.481 173.92C726.041 173.52 727.501 172.96 728.861 172.24C730.261 171.52 731.581 170.66 732.821 169.66C734.101 168.66 735.341 167.52 736.541 166.24V153.64ZM702.041 128.8C705.401 125.56 709.021 123.14 712.901 121.54C716.781 119.94 721.081 119.14 725.801 119.14C729.201 119.14 732.221 119.7 734.861 120.82C737.501 121.94 739.721 123.5 741.521 125.5C743.321 127.5 744.681 129.92 745.601 132.76C746.521 135.6 746.981 138.72 746.981 142.12V181H742.241C741.201 181 740.401 180.84 739.841 180.52C739.281 180.16 738.841 179.48 738.521 178.48L737.321 172.72C735.721 174.2 734.161 175.52 732.641 176.68C731.121 177.8 729.521 178.76 727.841 179.56C726.161 180.32 724.361 180.9 722.441 181.3C720.561 181.74 718.461 181.96 716.141 181.96C713.781 181.96 711.561 181.64 709.481 181C707.401 180.32 705.581 179.32 704.021 178C702.501 176.68 701.281 175.02 700.361 173.02C699.481 170.98 699.041 168.58 699.041 165.82C699.041 163.42 699.701 161.12 701.021 158.92C702.341 156.68 704.481 154.7 707.441 152.98C710.401 151.26 714.261 149.86 719.021 148.78C723.781 147.66 729.621 147.02 736.541 146.86V142.12C736.541 137.4 735.521 133.84 733.481 131.44C731.441 129 728.461 127.78 724.541 127.78C721.901 127.78 719.681 128.12 717.881 128.8C716.121 129.44 714.581 130.18 713.261 131.02C711.981 131.82 710.861 132.56 709.901 133.24C708.981 133.88 708.061 134.2 707.141 134.2C706.421 134.2 705.801 134.02 705.281 133.66C704.761 133.26 704.321 132.78 703.961 132.22L702.041 128.8ZM818.829 181H808.149V129.16H776.829V165.64C776.829 168.2 777.449 170.1 778.689 171.34C779.929 172.58 781.529 173.2 783.489 173.2C784.609 173.2 785.569 173.06 786.369 172.78C787.209 172.46 787.929 172.12 788.529 171.76C789.129 171.4 789.629 171.08 790.029 170.8C790.469 170.48 790.849 170.32 791.169 170.32C791.729 170.32 792.229 170.66 792.669 171.34L795.789 176.44C793.949 178.16 791.729 179.52 789.129 180.52C786.529 181.48 783.849 181.96 781.089 181.96C776.289 181.96 772.589 180.62 769.989 177.94C767.429 175.26 766.149 171.4 766.149 166.36V129.16H758.829C758.189 129.16 757.649 128.98 757.209 128.62C756.769 128.22 756.549 127.62 756.549 126.82V122.56L766.509 121.24L768.969 102.52C769.089 101.92 769.349 101.44 769.749 101.08C770.189 100.68 770.749 100.48 771.429 100.48H776.829V121.42H818.829V181ZM821.469 100.72C821.469 101.76 821.249 102.74 820.809 103.66C820.409 104.54 819.849 105.32 819.129 106C818.449 106.68 817.649 107.22 816.729 107.62C815.809 108.02 814.829 108.22 813.789 108.22C812.749 108.22 811.769 108.02 810.849 107.62C809.969 107.22 809.189 106.68 808.509 106C807.829 105.32 807.289 104.54 806.889 103.66C806.489 102.74 806.289 101.76 806.289 100.72C806.289 99.68 806.489 98.7 806.889 97.78C807.289 96.82 807.829 96 808.509 95.32C809.189 94.6 809.969 94.04 810.849 93.64C811.769 93.24 812.749 93.04 813.789 93.04C814.829 93.04 815.809 93.24 816.729 93.64C817.649 94.04 818.449 94.6 819.129 95.32C819.849 96 820.409 96.82 820.809 97.78C821.249 98.7 821.469 99.68 821.469 100.72ZM861.994 119.26C866.434 119.26 870.434 120 873.994 121.48C877.554 122.96 880.594 125.06 883.114 127.78C885.634 130.5 887.554 133.8 888.874 137.68C890.234 141.52 890.914 145.82 890.914 150.58C890.914 155.38 890.234 159.7 888.874 163.54C887.554 167.38 885.634 170.66 883.114 173.38C880.594 176.1 877.554 178.2 873.994 179.68C870.434 181.12 866.434 181.84 861.994 181.84C857.514 181.84 853.474 181.12 849.874 179.68C846.314 178.2 843.274 176.1 840.754 173.38C838.234 170.66 836.294 167.38 834.934 163.54C833.614 159.7 832.954 155.38 832.954 150.58C832.954 145.82 833.614 141.52 834.934 137.68C836.294 133.8 838.234 130.5 840.754 127.78C843.274 125.06 846.314 122.96 849.874 121.48C853.474 120 857.514 119.26 861.994 119.26ZM861.994 173.5C867.994 173.5 872.474 171.5 875.434 167.5C878.394 163.46 879.874 157.84 879.874 150.64C879.874 143.4 878.394 137.76 875.434 133.72C872.474 129.68 867.994 127.66 861.994 127.66C858.954 127.66 856.294 128.18 854.014 129.22C851.774 130.26 849.894 131.76 848.374 133.72C846.894 135.68 845.774 138.1 845.014 140.98C844.294 143.82 843.934 147.04 843.934 150.64C843.934 157.84 845.414 163.46 848.374 167.5C851.374 171.5 855.914 173.5 861.994 173.5ZM914.54 129.04C915.86 127.56 917.26 126.22 918.74 125.02C920.22 123.82 921.78 122.8 923.42 121.96C925.1 121.08 926.86 120.42 928.7 119.98C930.58 119.5 932.6 119.26 934.76 119.26C938.08 119.26 941 119.82 943.52 120.94C946.08 122.02 948.2 123.58 949.88 125.62C951.6 127.62 952.9 130.04 953.78 132.88C954.66 135.72 955.1 138.86 955.1 142.3V181H944.36V142.3C944.36 137.7 943.3 134.14 941.18 131.62C939.1 129.06 935.92 127.78 931.64 127.78C928.48 127.78 925.52 128.54 922.76 130.06C920.04 131.58 917.52 133.64 915.2 136.24V181H904.46V120.22H910.88C912.4 120.22 913.34 120.96 913.7 122.44L914.54 129.04Z" fill="#D9D9D9"/>
<path d="M174.726 95.02H175.726V94.02H174.726V95.02ZM174.726 181V182H175.726V181H174.726ZM166.566 180.52L166.095 181.402L166.107 181.409L166.119 181.414L166.566 180.52ZM164.766 178.9L163.973 179.509L163.981 179.52L164.766 178.9ZM115.026 114.1L115.819 113.491L113.759 110.808L114.029 114.18L115.026 114.1ZM115.206 117.04L116.205 116.998L115.206 117.04ZM115.266 181V182H116.266V181H115.266ZM105.066 181H104.066V182H105.066V181ZM105.066 95.02V94.02H104.066V95.02H105.066ZM112.386 95.14L112.169 96.1162L112.222 96.1279L112.276 96.1339L112.386 95.14ZM113.346 95.44L112.85 96.3082L112.899 96.3366L112.952 96.3591L113.346 95.44ZM114.186 96.04L113.479 96.7471L113.506 96.7743L113.535 96.7993L114.186 96.04ZM115.086 97L115.879 96.3907L115.873 96.383L115.867 96.3753L115.086 97ZM164.826 161.74L164.033 162.349L166.081 165.015L165.823 161.663L164.826 161.74ZM164.586 158.74L163.587 158.78L163.588 158.802L163.589 158.823L164.586 158.74ZM164.526 95.02V94.02H163.526V95.02H164.526ZM173.726 95.02V181H175.726V95.02H173.726ZM174.726 180H168.906V182H174.726V180ZM168.906 180C168.098 180 167.48 179.859 167.013 179.626L166.119 181.414C166.931 181.821 167.874 182 168.906 182V180ZM167.037 179.638C166.598 179.404 166.099 178.975 165.551 178.28L163.981 179.52C164.633 180.345 165.333 180.996 166.095 181.402L167.037 179.638ZM165.559 178.291L115.819 113.491L114.233 114.709L163.973 179.509L165.559 178.291ZM114.029 114.18C114.108 115.168 114.167 116.135 114.207 117.082L116.205 116.998C116.165 116.025 116.104 115.032 116.023 114.02L114.029 114.18ZM114.207 117.082C114.246 118.03 114.266 118.916 114.266 119.74H116.266C116.266 118.884 116.246 117.97 116.205 116.998L114.207 117.082ZM114.266 119.74V181H116.266V119.74H114.266ZM115.266 180H105.066V182H115.266V180ZM106.066 181V95.02H104.066V181H106.066ZM105.066 96.02H111.066V94.02H105.066V96.02ZM111.066 96.02C111.54 96.02 111.903 96.057 112.169 96.1162L112.603 94.1638C112.149 94.063 111.632 94.02 111.066 94.02V96.02ZM112.276 96.1339C112.516 96.1606 112.702 96.2239 112.85 96.3082L113.842 94.5717C113.43 94.3361 112.975 94.1993 112.496 94.1461L112.276 96.1339ZM112.952 96.3591C113.086 96.4165 113.263 96.5314 113.479 96.7471L114.893 95.3329C114.549 94.9886 114.166 94.7035 113.74 94.5208L112.952 96.3591ZM113.535 96.7993C113.753 96.9863 114.01 97.2562 114.305 97.6247L115.867 96.3753C115.522 95.9438 115.178 95.5737 114.837 95.2807L113.535 96.7993ZM114.293 97.6092L164.033 162.349L165.619 161.131L115.879 96.3907L114.293 97.6092ZM165.823 161.663C165.743 160.621 165.663 159.619 165.582 158.657L163.589 158.823C163.669 159.781 163.749 160.779 163.829 161.817L165.823 161.663ZM165.585 158.7C165.546 157.712 165.526 156.785 165.526 155.92H163.526C163.526 156.815 163.546 157.768 163.587 158.78L165.585 158.7ZM165.526 155.92V95.02H163.526V155.92H165.526ZM164.526 96.02H174.726V94.02H164.526V96.02ZM232.992 143.98V144.98H233.992V143.98H232.992ZM231.912 137.2L230.961 137.511L230.965 137.522L230.969 137.533L231.912 137.2ZM228.852 131.86L228.097 132.516L228.106 132.526L228.115 132.537L228.852 131.86ZM223.992 128.38L223.591 129.296L223.599 129.3L223.607 129.303L223.992 128.38ZM205.272 131.62L205.979 132.327L205.272 131.62ZM199.752 143.98L198.761 143.845L198.606 144.98H199.752V143.98ZM241.632 172.48L242.403 173.116L242.91 172.502L242.424 171.87L241.632 172.48ZM236.892 176.68L237.425 177.526L237.431 177.522L237.438 177.518L236.892 176.68ZM230.952 179.56L230.614 178.619L230.608 178.621L230.952 179.56ZM224.472 181.24L224.313 180.253L224.304 180.254L224.296 180.256L224.472 181.24ZM206.172 179.74L205.793 180.666L205.806 180.671L206.172 179.74ZM196.992 173.5L196.258 174.18L196.263 174.186L196.269 174.191L196.992 173.5ZM190.752 137.5L189.81 137.162L189.807 137.171L190.752 137.5ZM196.392 127.96L197.131 128.633L197.136 128.628L196.392 127.96ZM205.332 121.6L205.728 122.518L205.737 122.514L205.332 121.6ZM227.292 121.12L226.918 122.048L226.925 122.051L226.933 122.053L227.292 121.12ZM235.332 126.4L234.612 127.095L234.618 127.101L234.624 127.107L235.332 126.4ZM240.672 134.92L239.736 135.272L239.737 135.276L240.672 134.92ZM199.392 150.64V149.64H198.36L198.392 150.671L199.392 150.64ZM200.952 160.66L200 160.968L200.004 160.98L200.952 160.66ZM204.912 167.8L204.159 168.459L204.166 168.466L204.912 167.8ZM210.912 172.06L210.529 172.984L210.536 172.987L210.543 172.99L210.912 172.06ZM225.612 172.54L225.91 173.495L225.922 173.491L225.612 172.54ZM230.652 170.5L230.194 169.611L230.652 170.5ZM234.132 168.52L234.678 169.358L234.686 169.352L234.132 168.52ZM238.632 168.58L237.815 169.157L237.826 169.173L237.839 169.19L238.632 168.58ZM233.992 143.98C233.992 141.403 233.617 139.028 232.855 136.867L230.969 137.533C231.646 139.452 231.992 141.597 231.992 143.98H233.992ZM232.862 136.889C232.142 134.686 231.053 132.778 229.588 131.183L228.115 132.537C229.37 133.902 230.322 135.554 230.961 137.511L232.862 136.889ZM229.607 131.204C228.182 129.564 226.434 128.314 224.376 127.457L223.607 129.303C225.389 130.046 226.881 131.116 228.097 132.516L229.607 131.204ZM224.392 127.464C222.327 126.56 220.007 126.12 217.452 126.12V128.12C219.776 128.12 221.816 128.52 223.591 129.296L224.392 127.464ZM217.452 126.12C212.125 126.12 207.79 127.688 204.564 130.913L205.979 132.327C208.753 129.552 212.538 128.12 217.452 128.12V126.12ZM204.564 130.913C201.412 134.065 199.502 138.408 198.761 143.845L200.742 144.115C201.441 138.992 203.211 135.095 205.979 132.327L204.564 130.913ZM199.752 144.98H232.992V142.98H199.752V144.98ZM240.86 171.844C239.608 173.361 238.106 174.694 236.345 175.842L237.438 177.518C239.358 176.266 241.015 174.799 242.403 173.116L240.86 171.844ZM236.358 175.834C234.582 176.954 232.668 177.882 230.614 178.619L231.289 180.501C233.475 179.718 235.521 178.726 237.425 177.526L236.358 175.834ZM230.608 178.621C228.59 179.358 226.492 179.903 224.313 180.253L224.63 182.227C226.932 181.857 229.153 181.282 231.295 180.499L230.608 178.621ZM224.296 180.256C222.112 180.646 219.951 180.84 217.812 180.84V182.84C220.072 182.84 222.351 182.634 224.647 182.224L224.296 180.256ZM217.812 180.84C213.725 180.84 209.97 180.159 206.538 178.809L205.806 180.671C209.493 182.121 213.499 182.84 217.812 182.84V180.84ZM206.55 178.814C203.159 177.427 200.216 175.426 197.714 172.809L196.269 174.191C198.967 177.014 202.144 179.173 205.793 180.666L206.55 178.814ZM197.725 172.82C195.269 170.172 193.334 166.894 191.934 162.964L190.05 163.636C191.529 167.786 193.594 171.308 196.258 174.18L197.725 172.82ZM191.934 162.964C190.539 159.053 189.832 154.53 189.832 149.38H187.832C187.832 154.71 188.564 159.467 190.05 163.636L191.934 162.964ZM189.832 149.38C189.832 145.242 190.456 141.394 191.696 137.829L189.807 137.171C188.487 140.966 187.832 145.038 187.832 149.38H189.832ZM191.693 137.838C192.972 134.272 194.787 131.208 197.131 128.633L195.652 127.287C193.117 130.072 191.171 133.368 189.81 137.162L191.693 137.838ZM197.136 128.628C199.475 126.021 202.334 123.984 205.728 122.518L204.935 120.682C201.289 122.256 198.188 124.459 195.647 127.292L197.136 128.628ZM205.737 122.514C209.112 121.018 212.931 120.26 217.212 120.26V118.26C212.692 118.26 208.591 119.062 204.926 120.686L205.737 122.514ZM217.212 120.26C220.736 120.26 223.968 120.86 226.918 122.048L227.665 120.192C224.455 118.9 220.967 118.26 217.212 118.26V120.26ZM226.933 122.053C229.922 123.203 232.477 124.883 234.612 127.095L236.051 125.705C233.706 123.277 230.902 121.437 227.651 120.187L226.933 122.053ZM234.624 127.107C236.792 129.274 238.499 131.989 239.736 135.272L241.607 134.568C240.284 131.051 238.431 128.086 236.039 125.693L234.624 127.107ZM239.737 135.276C240.966 138.502 241.592 142.218 241.592 146.44H243.592C243.592 142.022 242.937 138.058 241.606 134.564L239.737 135.276ZM241.592 146.44C241.592 147.25 241.548 147.892 241.469 148.381C241.388 148.888 241.281 149.149 241.21 149.259L242.893 150.341C243.182 149.891 243.345 149.312 243.444 148.699C243.545 148.068 243.592 147.31 243.592 146.44H241.592ZM241.21 149.259C241.115 149.408 240.853 149.64 240.012 149.64V151.64C241.17 151.64 242.268 151.312 242.893 150.341L241.21 149.259ZM240.012 149.64H199.392V151.64H240.012V149.64ZM198.392 150.671C198.514 154.58 199.044 158.017 200 160.968L201.903 160.352C201.019 157.623 200.509 154.38 200.391 150.609L198.392 150.671ZM200.004 160.98C200.999 163.923 202.379 166.424 204.159 168.459L205.664 167.141C204.084 165.336 202.824 163.077 201.899 160.34L200.004 160.98ZM204.166 168.466C205.946 170.458 208.07 171.966 210.529 172.984L211.294 171.136C209.113 170.234 207.237 168.902 205.657 167.134L204.166 168.466ZM210.543 172.99C212.997 173.963 215.725 174.44 218.712 174.44V172.44C215.939 172.44 213.466 171.997 211.28 171.13L210.543 172.99ZM218.712 174.44C221.461 174.44 223.867 174.133 225.91 173.494L225.313 171.586C223.516 172.147 221.322 172.44 218.712 172.44V174.44ZM225.922 173.491C227.918 172.839 229.65 172.14 231.109 171.389L230.194 169.611C228.853 170.3 227.225 170.961 225.301 171.589L225.922 173.491ZM231.109 171.389C232.528 170.66 233.72 169.982 234.678 169.358L233.585 167.682C232.703 168.258 231.576 168.9 230.194 169.611L231.109 171.389ZM234.686 169.352C235.584 168.754 236.204 168.56 236.592 168.56V166.56C235.62 166.56 234.599 167.006 233.577 167.688L234.686 169.352ZM236.592 168.56C237.169 168.56 237.534 168.76 237.815 169.157L239.449 168.003C238.769 167.04 237.775 166.56 236.592 166.56V168.56ZM237.839 169.19L240.839 173.09L242.424 171.87L239.424 167.97L237.839 169.19ZM338.944 120.22L339.895 120.528L340.319 119.22H338.944V120.22ZM319.264 181V182H319.991L320.215 181.308L319.264 181ZM308.644 178.96L309.603 178.678L309.599 178.664L309.595 178.65L308.644 178.96ZM295.204 137.74L296.155 137.43L296.152 137.421L296.149 137.411L295.204 137.74ZM294.424 134.98L293.445 135.184L293.447 135.192L294.424 134.98ZM293.824 132.16L294.801 131.948H292.847L293.824 132.16ZM293.224 134.98L294.201 135.192L294.203 135.184L293.224 134.98ZM292.444 137.8L291.495 137.484L291.495 137.485L292.444 137.8ZM278.764 178.96L277.815 178.645L277.805 178.674L277.797 178.704L278.764 178.96ZM268.324 181L267.373 181.308L267.597 182H268.324V181ZM248.644 120.22V119.22H247.269L247.693 120.528L248.644 120.22ZM259.144 120.88L258.526 121.666L258.539 121.677L258.553 121.686L259.144 120.88ZM260.344 122.44L261.303 122.155L261.298 122.139L261.293 122.124L260.344 122.44ZM271.984 161.56L272.957 161.33L272.951 161.302L272.943 161.275L271.984 161.56ZM273.604 169.72L272.616 169.874L274.569 169.983L273.604 169.72ZM274.684 165.7L273.725 165.418L273.721 165.431L273.717 165.444L274.684 165.7ZM275.944 161.56L274.993 161.25L274.99 161.26L275.944 161.56ZM288.784 122.2L287.835 121.884L287.833 121.89L288.784 122.2ZM289.804 120.7L289.194 119.907L289.179 119.919L289.164 119.932L289.804 120.7ZM298.324 120.7L297.714 121.493V121.493L298.324 120.7ZM299.404 122.2L300.357 121.896L300.353 121.884L299.404 122.2ZM311.944 161.56L312.898 161.26L312.897 161.256L311.944 161.56ZM313.144 165.7L312.177 165.956V165.956L313.144 165.7ZM314.164 169.72L313.192 169.956L315.153 169.87L314.164 169.72ZM314.884 165.76L313.911 165.531L313.908 165.542L313.906 165.552L314.884 165.76ZM315.904 161.56L314.947 161.269L314.94 161.293L314.934 161.317L315.904 161.56ZM327.784 122.44L326.83 122.142L326.827 122.149L327.784 122.44ZM328.924 120.88L329.505 121.694L329.524 121.68L329.542 121.666L328.924 120.88ZM337.993 119.912L318.313 180.692L320.215 181.308L339.895 120.528L337.993 119.912ZM319.264 180H310.804V182H319.264V180ZM310.804 180C310.525 180 310.335 179.918 310.171 179.763C309.983 179.586 309.774 179.257 309.603 178.678L307.685 179.242C307.914 180.023 308.265 180.714 308.797 181.217C309.353 181.742 310.043 182 310.804 182V180ZM309.595 178.65L296.155 137.43L294.253 138.05L307.693 179.27L309.595 178.65ZM296.149 137.411C295.841 136.528 295.592 135.647 295.401 134.768L293.447 135.192C293.656 136.153 293.927 137.112 294.26 138.069L296.149 137.411ZM295.403 134.776C295.202 133.813 295.002 132.871 294.801 131.948L292.847 132.372C293.046 133.289 293.246 134.227 293.445 135.184L295.403 134.776ZM292.847 131.948C292.646 132.871 292.446 133.813 292.245 134.776L294.203 135.184C294.402 134.227 294.602 133.289 294.801 132.372L292.847 131.948ZM292.247 134.768C292.055 135.65 291.805 136.555 291.495 137.484L293.393 138.116C293.723 137.125 293.993 136.15 294.201 135.192L292.247 134.768ZM291.495 137.485L277.815 178.645L279.713 179.275L293.393 138.115L291.495 137.485ZM277.797 178.704C277.652 179.253 277.446 179.558 277.246 179.728C277.059 179.887 276.792 180 276.364 180V182C277.176 182 277.929 181.773 278.542 181.252C279.142 180.742 279.516 180.027 279.731 179.216L277.797 178.704ZM276.364 180H268.324V182H276.364V180ZM269.275 180.692L249.595 119.912L247.693 120.528L267.373 181.308L269.275 180.692ZM248.644 121.22H257.044V119.22H248.644V121.22ZM257.044 121.22C257.702 121.22 258.173 121.389 258.526 121.666L259.762 120.094C258.995 119.491 258.066 119.22 257.044 119.22V121.22ZM258.553 121.686C259.016 122.026 259.272 122.386 259.395 122.756L261.293 122.124C261.016 121.294 260.472 120.614 259.735 120.074L258.553 121.686ZM259.386 122.725L271.026 161.845L272.943 161.275L261.303 122.155L259.386 122.725ZM271.011 161.79C271.686 164.648 272.221 167.343 272.616 169.874L274.592 169.566C274.188 166.977 273.642 164.232 272.957 161.33L271.011 161.79ZM274.569 169.983C274.93 168.661 275.29 167.318 275.651 165.956L273.717 165.444C273.358 166.802 272.999 168.139 272.639 169.457L274.569 169.983ZM275.643 165.982C276.042 164.628 276.46 163.254 276.898 161.86L274.99 161.26C274.548 162.666 274.126 164.052 273.725 165.418L275.643 165.982ZM276.895 161.87L289.735 122.51L287.833 121.89L274.993 161.25L276.895 161.87ZM289.733 122.516C289.875 122.09 290.109 121.748 290.444 121.468L289.164 119.932C288.539 120.452 288.093 121.11 287.835 121.884L289.733 122.516ZM290.414 121.493C290.742 121.24 291.142 121.1 291.664 121.1V119.1C290.746 119.1 289.906 119.36 289.194 119.907L290.414 121.493ZM291.664 121.1H296.344V119.1H291.664V121.1ZM296.344 121.1C296.973 121.1 297.405 121.255 297.714 121.493L298.934 119.907C298.203 119.345 297.315 119.1 296.344 119.1V121.1ZM297.714 121.493C298.083 121.776 298.321 122.113 298.455 122.516L300.353 121.884C300.087 121.087 299.605 120.424 298.934 119.907L297.714 121.493ZM298.451 122.504L310.991 161.864L312.897 161.256L300.357 121.896L298.451 122.504ZM310.99 161.86C311.426 163.246 311.821 164.611 312.177 165.956L314.111 165.444C313.747 164.069 313.342 162.674 312.898 161.26L310.99 161.86ZM312.177 165.956C312.536 167.309 312.874 168.643 313.192 169.956L315.136 169.484C314.814 168.157 314.472 166.811 314.111 165.444L312.177 165.956ZM315.153 169.87C315.35 168.569 315.586 167.269 315.862 165.968L313.906 165.552C313.622 166.891 313.378 168.231 313.175 169.57L315.153 169.87ZM315.857 165.989C316.176 164.634 316.515 163.238 316.874 161.803L314.934 161.317C314.573 162.762 314.232 164.166 313.911 165.531L315.857 165.989ZM316.861 161.851L328.741 122.731L326.827 122.149L314.947 161.269L316.861 161.851ZM328.739 122.738C328.872 122.312 329.118 121.971 329.505 121.694L328.343 120.066C327.611 120.589 327.096 121.288 326.83 122.142L328.739 122.738ZM329.542 121.666C329.913 121.374 330.352 121.22 330.904 121.22V119.22C329.936 119.22 329.055 119.506 328.306 120.094L329.542 121.666ZM330.904 121.22H338.944V119.22H330.904V121.22ZM421.781 149.08V150.08H423.238L422.714 148.72L421.781 149.08ZM408.281 114.1L407.347 114.459L407.348 114.46L408.281 114.1ZM407.021 110.5L406.067 110.8L406.069 110.808L407.021 110.5ZM405.761 106.06L406.729 105.812L404.793 105.809L405.761 106.06ZM403.181 114.16L402.255 113.783L402.251 113.791L402.248 113.799L403.181 114.16ZM389.681 149.08L388.748 148.719L388.222 150.08H389.681V149.08ZM446.021 181V182H447.497L446.949 180.629L446.021 181ZM434.501 180.22L433.87 180.996V180.996L434.501 180.22ZM433.061 178.24L432.128 178.601L432.132 178.611L433.061 178.24ZM425.021 157.48L425.953 157.119L425.706 156.48H425.021V157.48ZM386.441 157.48V156.48H385.756L385.508 157.119L386.441 157.48ZM378.401 178.24L377.468 177.879L377.46 177.901L377.452 177.924L378.401 178.24ZM377.021 180.16L377.656 180.932L377.021 180.16ZM365.501 181L364.572 180.629L364.024 182H365.501V181ZM399.881 95.02V94.02H399.204L398.952 94.6487L399.881 95.02ZM411.641 95.02L412.569 94.6487L412.318 94.02H411.641V95.02ZM422.714 148.72L409.214 113.74L407.348 114.46L420.848 149.44L422.714 148.72ZM409.214 113.741C408.822 112.722 408.408 111.539 407.972 110.192L406.069 110.808C406.513 112.181 406.939 113.398 407.347 114.459L409.214 113.741ZM407.975 110.2C407.54 108.819 407.125 107.356 406.729 105.812L404.792 106.308C405.196 107.884 405.621 109.381 406.067 110.8L407.975 110.2ZM404.793 105.809C403.959 109.023 403.112 111.677 402.255 113.783L404.107 114.537C405.009 112.323 405.882 109.577 406.729 106.311L404.793 105.809ZM402.248 113.799L388.748 148.719L390.613 149.441L404.113 114.521L402.248 113.799ZM389.681 150.08H421.781V148.08H389.681V150.08ZM446.021 180H437.021V182H446.021V180ZM437.021 180C436.149 180 435.551 179.785 435.131 179.444L433.87 180.996C434.731 181.695 435.812 182 437.021 182V180ZM435.131 179.444C434.629 179.036 434.249 178.518 433.989 177.869L432.132 178.611C432.512 179.562 433.092 180.364 433.87 180.996L435.131 179.444ZM433.993 177.879L425.953 157.119L424.088 157.841L432.128 178.601L433.993 177.879ZM425.021 156.48H386.441V158.48H425.021V156.48ZM385.508 157.119L377.468 177.879L379.333 178.601L387.373 157.841L385.508 157.119ZM377.452 177.924C377.28 178.438 376.944 178.928 376.385 179.388L377.656 180.932C378.458 180.272 379.041 179.482 379.349 178.556L377.452 177.924ZM376.385 179.388C375.908 179.781 375.302 180 374.501 180V182C375.699 182 376.773 181.659 377.656 180.932L376.385 179.388ZM374.501 180H365.501V182H374.501V180ZM366.429 181.371L400.809 95.3913L398.952 94.6487L364.572 180.629L366.429 181.371ZM399.881 96.02H411.641V94.02H399.881V96.02ZM410.712 95.3913L445.092 181.371L446.949 180.629L412.569 94.6487L410.712 95.3913ZM465.317 166.36H464.317V166.691L464.514 166.956L465.317 166.36ZM471.737 171.94L472.159 171.033L471.737 171.94ZM492.617 167.5L491.818 166.899L492.617 167.5ZM496.097 140.02L495.125 140.253L495.128 140.266L496.097 140.02ZM493.097 133.06L492.285 133.643L492.291 133.651L493.097 133.06ZM488.237 129.04L488.638 128.124L488.237 129.04ZM472.517 130.18L471.999 129.325L471.993 129.328L472.517 130.18ZM465.317 136.96L464.518 136.358L464.317 136.625V136.96H465.317ZM464.777 129.64L463.786 129.772L464.093 132.073L465.554 130.269L464.777 129.64ZM473.657 122.02L473.161 121.152L473.657 122.02ZM494.717 121.18L494.285 122.082L494.296 122.087L494.717 121.18ZM501.977 127.12L501.18 127.724L501.185 127.73L501.977 127.12ZM506.597 136.84L505.634 137.108L506.597 136.84ZM506.417 162.76L507.372 163.058L507.373 163.055L506.417 162.76ZM501.197 172.78L500.417 172.154L500.416 172.155L501.197 172.78ZM492.917 179.44L493.36 180.337L493.364 180.334L492.917 179.44ZM472.337 179.98L471.901 180.88L471.909 180.884L471.917 180.888L472.337 179.98ZM465.317 174.7L466.057 174.027L464.317 172.117V174.7H465.317ZM465.317 201.58V202.58H466.317V201.58H465.317ZM454.577 201.58H453.577V202.58H454.577V201.58ZM454.577 120.22V119.22H453.577V120.22H454.577ZM463.817 122.44L464.808 122.308L464.801 122.255L464.789 122.204L463.817 122.44ZM464.514 166.956C466.546 169.693 468.807 171.679 471.315 172.847L472.159 171.033C470.027 170.041 468.008 168.307 466.12 165.764L464.514 166.956ZM471.315 172.847C473.783 173.995 476.53 174.56 479.537 174.56V172.56C476.785 172.56 474.331 172.045 472.159 171.033L471.315 172.847ZM479.537 174.56C485.487 174.56 490.162 172.426 493.416 168.101L491.818 166.899C488.992 170.654 484.947 172.56 479.537 172.56V174.56ZM493.416 168.101C496.636 163.822 498.177 157.817 498.177 150.22H496.177C496.177 157.583 494.678 163.098 491.818 166.899L493.416 168.101ZM498.177 150.22C498.177 146.204 497.813 142.717 497.067 139.774L495.128 140.266C495.822 143.003 496.177 146.316 496.177 150.22H498.177ZM497.07 139.787C496.368 136.856 495.322 134.403 493.904 132.469L492.291 133.651C493.512 135.317 494.467 137.504 495.125 140.253L497.07 139.787ZM493.91 132.477C492.494 130.503 490.736 129.042 488.638 128.124L487.836 129.956C489.578 130.718 491.061 131.937 492.285 133.643L493.91 132.477ZM488.638 128.124C486.573 127.22 484.253 126.78 481.697 126.78V128.78C484.022 128.78 486.062 129.18 487.836 129.956L488.638 128.124ZM481.697 126.78C478.058 126.78 474.814 127.618 471.999 129.325L473.035 131.035C475.5 129.542 478.376 128.78 481.697 128.78V126.78ZM471.993 129.328C469.268 131.005 466.779 133.358 464.518 136.358L466.116 137.562C468.255 134.722 470.566 132.555 473.041 131.032L471.993 129.328ZM464.317 136.96V166.36H466.317V136.96H464.317ZM465.554 130.269C468.04 127.201 470.906 124.744 474.153 122.888L473.161 121.152C469.688 123.136 466.634 125.759 464 129.011L465.554 130.269ZM474.153 122.888C477.345 121.064 481.011 120.14 485.177 120.14V118.14C480.704 118.14 476.689 119.136 473.161 121.152L474.153 122.888ZM485.177 120.14C488.565 120.14 491.595 120.794 494.285 122.082L495.149 120.278C492.159 118.846 488.829 118.14 485.177 118.14V120.14ZM494.296 122.087C496.979 123.334 499.273 125.206 501.18 127.724L502.774 126.516C500.682 123.754 498.135 121.666 495.139 120.273L494.296 122.087ZM501.185 127.73C503.091 130.208 504.581 133.325 505.634 137.108L507.561 136.572C506.454 132.595 504.864 129.232 502.77 126.51L501.185 127.73ZM505.634 137.108C506.684 140.882 507.217 145.249 507.217 150.22H509.217C509.217 145.111 508.67 140.558 507.561 136.572L505.634 137.108ZM507.217 150.22C507.217 154.61 506.629 158.69 505.462 162.465L507.373 163.055C508.605 159.07 509.217 154.79 509.217 150.22H507.217ZM505.463 162.462C504.296 166.195 502.611 169.421 500.417 172.154L501.977 173.406C504.343 170.459 506.138 167.005 507.372 163.058L505.463 162.462ZM500.416 172.155C498.269 174.84 495.624 176.969 492.47 178.546L493.364 180.334C496.771 178.631 499.646 176.32 501.978 173.405L500.416 172.155ZM492.474 178.543C489.389 180.067 485.884 180.84 481.937 180.84V182.84C486.151 182.84 489.965 182.013 493.36 180.337L492.474 178.543ZM481.937 180.84C478.326 180.84 475.276 180.238 472.757 179.072L471.917 180.888C474.758 182.202 478.109 182.84 481.937 182.84V180.84ZM472.773 179.08C470.252 177.858 468.014 176.176 466.057 174.027L464.578 175.373C466.701 177.704 469.143 179.542 471.901 180.88L472.773 179.08ZM464.317 174.7V201.58H466.317V174.7H464.317ZM465.317 200.58H454.577V202.58H465.317V200.58ZM455.577 201.58V120.22H453.577V201.58H455.577ZM454.577 121.22H460.997V119.22H454.577V121.22ZM460.997 121.22C461.594 121.22 461.973 121.363 462.224 121.561C462.475 121.758 462.704 122.094 462.846 122.676L464.789 122.204C464.571 121.306 464.15 120.532 463.461 119.989C462.771 119.447 461.92 119.22 460.997 119.22V121.22ZM462.826 122.572L463.786 129.772L465.768 129.508L464.808 122.308L462.826 122.572ZM532.583 166.36H531.583V166.691L531.78 166.956L532.583 166.36ZM539.003 171.94L539.425 171.033L539.003 171.94ZM559.883 167.5L559.084 166.899L559.883 167.5ZM563.363 140.02L562.39 140.253L562.393 140.266L563.363 140.02ZM560.363 133.06L559.55 133.643L559.556 133.651L560.363 133.06ZM555.503 129.04L555.904 128.124L555.503 129.04ZM539.783 130.18L539.264 129.325L539.259 129.328L539.783 130.18ZM532.583 136.96L531.784 136.358L531.583 136.625V136.96H532.583ZM532.043 129.64L531.052 129.772L531.358 132.073L532.82 130.269L532.043 129.64ZM540.923 122.02L540.427 121.152L540.923 122.02ZM561.983 121.18L561.551 122.082L561.561 122.087L561.983 121.18ZM569.243 127.12L568.446 127.724L568.45 127.73L569.243 127.12ZM573.863 136.84L572.899 137.108L573.863 136.84ZM573.683 162.76L574.637 163.058L574.638 163.055L573.683 162.76ZM568.463 172.78L567.683 172.154L567.682 172.155L568.463 172.78ZM560.183 179.44L560.626 180.337L560.63 180.334L560.183 179.44ZM539.603 179.98L539.167 180.88L539.175 180.884L539.183 180.888L539.603 179.98ZM532.583 174.7L533.322 174.027L531.583 172.117V174.7H532.583ZM532.583 201.58V202.58H533.583V201.58H532.583ZM521.843 201.58H520.843V202.58H521.843V201.58ZM521.843 120.22V119.22H520.843V120.22H521.843ZM531.083 122.44L532.074 122.308L532.067 122.255L532.054 122.204L531.083 122.44ZM531.78 166.956C533.812 169.693 536.073 171.679 538.581 172.847L539.425 171.033C537.293 170.041 535.274 168.307 533.386 165.764L531.78 166.956ZM538.581 172.847C541.049 173.995 543.795 174.56 546.803 174.56V172.56C544.05 172.56 541.597 172.045 539.425 171.033L538.581 172.847ZM546.803 174.56C552.753 174.56 557.428 172.426 560.682 168.101L559.084 166.899C556.258 170.654 552.213 172.56 546.803 172.56V174.56ZM560.682 168.101C563.902 163.822 565.443 157.817 565.443 150.22H563.443C563.443 157.583 561.944 163.098 559.084 166.899L560.682 168.101ZM565.443 150.22C565.443 146.204 565.078 142.717 564.332 139.774L562.393 140.266C563.087 143.003 563.443 146.316 563.443 150.22H565.443ZM564.335 139.787C563.633 136.856 562.588 134.403 561.169 132.469L559.556 133.651C560.778 135.317 561.732 137.504 562.39 140.253L564.335 139.787ZM561.175 132.477C559.759 130.503 558.002 129.042 555.904 128.124L555.102 129.956C556.844 130.718 558.326 131.937 559.55 133.643L561.175 132.477ZM555.904 128.124C553.838 127.22 551.518 126.78 548.963 126.78V128.78C551.287 128.78 553.327 129.18 555.102 129.956L555.904 128.124ZM548.963 126.78C545.324 126.78 542.08 127.618 539.265 129.325L540.301 131.035C542.766 129.542 545.642 128.78 548.963 128.78V126.78ZM539.259 129.328C536.534 131.005 534.045 133.358 531.784 136.358L533.382 137.562C535.521 134.722 537.832 132.555 540.307 131.032L539.259 129.328ZM531.583 136.96V166.36H533.583V136.96H531.583ZM532.82 130.269C535.306 127.201 538.172 124.744 541.419 122.888L540.427 121.152C536.954 123.136 533.9 125.759 531.266 129.011L532.82 130.269ZM541.419 122.888C544.611 121.064 548.276 120.14 552.443 120.14V118.14C547.969 118.14 543.955 119.136 540.427 121.152L541.419 122.888ZM552.443 120.14C555.831 120.14 558.861 120.794 561.551 122.082L562.415 120.278C559.425 118.846 556.095 118.14 552.443 118.14V120.14ZM561.561 122.087C564.245 123.334 566.538 125.206 568.446 127.724L570.04 126.516C567.947 123.754 565.401 121.666 562.404 120.273L561.561 122.087ZM568.45 127.73C570.356 130.208 571.846 133.325 572.899 137.108L574.826 136.572C573.719 132.595 572.129 129.232 570.035 126.51L568.45 127.73ZM572.899 137.108C573.95 140.882 574.483 145.249 574.483 150.22H576.483C576.483 145.111 575.936 140.558 574.826 136.572L572.899 137.108ZM574.483 150.22C574.483 154.61 573.895 158.69 572.727 162.465L574.638 163.055C575.871 159.07 576.483 154.79 576.483 150.22H574.483ZM572.728 162.462C571.562 166.195 569.877 169.421 567.683 172.154L569.243 173.406C571.609 170.459 573.404 167.005 574.637 163.058L572.728 162.462ZM567.682 172.155C565.534 174.84 562.889 176.969 559.736 178.546L560.63 180.334C564.036 178.631 566.911 176.32 569.244 173.405L567.682 172.155ZM559.74 178.543C556.655 180.067 553.149 180.84 549.203 180.84V182.84C553.416 182.84 557.231 182.013 560.626 180.337L559.74 178.543ZM549.203 180.84C545.591 180.84 542.542 180.238 540.023 179.072L539.183 180.888C542.024 182.202 545.374 182.84 549.203 182.84V180.84ZM540.039 179.08C537.517 177.858 535.279 176.176 533.322 174.027L531.843 175.373C533.966 177.704 536.408 179.542 539.167 180.88L540.039 179.08ZM531.583 174.7V201.58H533.583V174.7H531.583ZM532.583 200.58H521.843V202.58H532.583V200.58ZM522.843 201.58V120.22H520.843V201.58H522.843ZM521.843 121.22H528.263V119.22H521.843V121.22ZM528.263 121.22C528.86 121.22 529.239 121.363 529.489 121.561C529.74 121.758 529.969 122.094 530.111 122.676L532.054 122.204C531.836 121.306 531.415 120.532 530.726 119.989C530.037 119.447 529.186 119.22 528.263 119.22V121.22ZM530.092 122.572L531.052 129.772L533.034 129.508L532.074 122.308L530.092 122.572ZM600.148 92.62H601.148V91.62H600.148V92.62ZM600.148 181V182H601.148V181H600.148ZM589.468 181H588.468V182H589.468V181ZM589.468 92.62V91.62H588.468V92.62H589.468ZM599.148 92.62V181H601.148V92.62H599.148ZM600.148 180H589.468V182H600.148V180ZM590.468 181V92.62H588.468V181H590.468ZM589.468 93.62H600.148V91.62H589.468V93.62ZM628.748 120.22H629.748V119.22H628.748V120.22ZM628.748 181V182H629.748V181H628.748ZM618.068 181H617.068V182H618.068V181ZM618.068 120.22V119.22H617.068V120.22H618.068ZM630.368 104.08L629.466 103.649L629.461 103.657L629.457 103.666L630.368 104.08ZM628.688 106.48L627.981 105.773L628.688 106.48ZM626.228 108.1L625.843 107.177L625.836 107.18L625.829 107.183L626.228 108.1ZM620.348 108.1L619.934 109.01L619.942 109.014L619.949 109.017L620.348 108.1ZM618.008 106.48L617.281 107.167L617.291 107.177L617.301 107.187L618.008 106.48ZM616.388 104.08L615.471 104.479L615.474 104.486L615.477 104.494L616.388 104.08ZM616.388 98.2L617.305 98.5987L617.308 98.5917L617.311 98.5846L616.388 98.2ZM618.008 95.74L618.715 96.4471L618.725 96.437L618.735 96.4266L618.008 95.74ZM620.348 94.06L619.949 93.1429L619.942 93.1462L619.934 93.1496L620.348 94.06ZM626.228 94.06L625.829 94.9771L625.836 94.9801L625.843 94.9831L626.228 94.06ZM628.688 95.74L627.961 96.4266L627.98 96.4474L628.001 96.467L628.688 95.74ZM630.368 98.2L629.445 98.5846L629.455 98.6083L629.466 98.6315L630.368 98.2ZM627.748 120.22V181H629.748V120.22H627.748ZM628.748 180H618.068V182H628.748V180ZM619.068 181V120.22H617.068V181H619.068ZM618.068 121.22H628.748V119.22H618.068V121.22ZM630.028 101.14C630.028 102.034 629.84 102.866 629.466 103.649L631.27 104.511C631.776 103.454 632.028 102.326 632.028 101.14H630.028ZM629.457 103.666C629.11 104.431 628.62 105.133 627.981 105.773L629.395 107.187C630.195 106.387 630.826 105.489 631.278 104.494L629.457 103.666ZM627.981 105.773C627.4 106.353 626.693 106.823 625.843 107.177L626.612 109.023C627.683 108.577 628.615 107.967 629.395 107.187L627.981 105.773ZM625.829 107.183C625.04 107.526 624.196 107.7 623.288 107.7V109.7C624.46 109.7 625.576 109.474 626.627 109.017L625.829 107.183ZM623.288 107.7C622.38 107.7 621.536 107.526 620.747 107.183L619.949 109.017C621 109.474 622.116 109.7 623.288 109.7V107.7ZM620.762 107.19C619.99 106.839 619.31 106.368 618.715 105.773L617.301 107.187C618.066 107.952 618.945 108.561 619.934 109.01L620.762 107.19ZM618.735 105.793C618.129 105.152 617.651 104.443 617.298 103.666L615.477 104.494C615.924 105.477 616.527 106.368 617.281 107.167L618.735 105.793ZM617.305 103.681C616.962 102.892 616.788 102.048 616.788 101.14H614.788C614.788 102.312 615.014 103.428 615.471 104.479L617.305 103.681ZM616.788 101.14C616.788 100.232 616.962 99.3883 617.305 98.5987L615.471 97.8013C615.014 98.8517 614.788 99.968 614.788 101.14H616.788ZM617.311 98.5846C617.665 97.7353 618.135 97.0274 618.715 96.4471L617.301 95.0329C616.521 95.8125 615.911 96.7447 615.465 97.8154L617.311 98.5846ZM618.735 96.4266C619.328 95.7984 620.002 95.3154 620.762 94.9704L619.934 93.1496C618.933 93.6046 618.047 94.2416 617.281 95.0534L618.735 96.4266ZM620.747 94.9771C621.536 94.6338 622.38 94.46 623.288 94.46V92.46C622.116 92.46 621 92.6862 619.949 93.1429L620.747 94.9771ZM623.288 94.46C624.196 94.46 625.04 94.6338 625.829 94.9771L626.627 93.1429C625.576 92.6862 624.46 92.46 623.288 92.46V94.46ZM625.843 94.9831C626.68 95.3319 627.382 95.8137 627.961 96.4266L629.415 95.0534C628.634 94.2263 627.695 93.5881 626.612 93.1369L625.843 94.9831ZM628.001 96.467C628.614 97.0459 629.096 97.7474 629.445 98.5846L631.291 97.8154C630.84 96.7326 630.201 95.7941 629.374 95.013L628.001 96.467ZM629.466 98.6315C629.84 99.414 630.028 100.246 630.028 101.14H632.028C632.028 99.9537 631.776 98.826 631.27 97.7685L629.466 98.6315ZM688.596 131.02L687.79 130.428L687.787 130.432L688.596 131.02ZM684.336 131.68L683.75 132.491L683.766 132.502L683.781 132.512L684.336 131.68ZM681.636 130L681.136 130.866L681.143 130.87L681.15 130.874L681.636 130ZM677.736 128.38L677.412 129.326L677.427 129.331L677.442 129.336L677.736 128.38ZM664.176 129.22L664.591 130.13L664.598 130.127L664.604 130.124L664.176 129.22ZM658.416 133.78L657.627 133.165L657.62 133.175L658.416 133.78ZM654.936 141.04L653.973 140.769L653.97 140.781L654.936 141.04ZM655.056 160.42L654.096 160.7L654.097 160.704L655.056 160.42ZM658.596 167.62L657.806 168.233L657.813 168.242L657.82 168.251L658.596 167.62ZM664.176 172.06L663.742 172.961L663.752 172.966L663.762 172.97L664.176 172.06ZM677.976 172.66L678.312 173.602L678.322 173.598L678.332 173.594L677.976 172.66ZM682.116 170.56L681.554 169.733L681.547 169.737L681.54 169.742L682.116 170.56ZM684.876 168.52L685.516 169.288L685.52 169.285L684.876 168.52ZM689.136 168.58L688.319 169.157L688.331 169.173L688.343 169.19L689.136 168.58ZM692.136 172.48L692.915 173.107L693.408 172.494L692.929 171.87L692.136 172.48ZM687.636 176.68L687.068 175.857L687.636 176.68ZM682.176 179.62L682.544 180.55L682.554 180.546L682.176 179.62ZM676.116 181.3L675.949 180.314L676.116 181.3ZM659.016 179.74L658.619 180.658L658.623 180.66L659.016 179.74ZM650.556 173.68L649.811 174.347L649.816 174.353L650.556 173.68ZM644.736 138.04L643.787 137.724L643.784 137.733L644.736 138.04ZM650.256 128.14L649.502 127.483L649.501 127.484L650.256 128.14ZM659.196 121.6L658.795 120.684L658.791 120.686L659.196 121.6ZM682.716 121.36L682.319 122.278L682.326 122.281L682.333 122.284L682.716 121.36ZM691.416 127.18L692.222 127.772L692.73 127.08L692.123 126.473L691.416 127.18ZM687.787 130.432C687.506 130.818 687.253 131.077 687.036 131.24L688.236 132.84C688.659 132.523 689.046 132.102 689.405 131.608L687.787 130.432ZM687.036 131.24C686.946 131.307 686.744 131.4 686.316 131.4V133.4C687.008 133.4 687.686 133.253 688.236 132.84L687.036 131.24ZM686.316 131.4C685.983 131.4 685.516 131.265 684.891 130.848L683.781 132.512C684.596 133.055 685.449 133.4 686.316 133.4V131.4ZM684.921 130.869C684.16 130.319 683.224 129.738 682.122 129.126L681.15 130.874C682.208 131.462 683.072 132.001 683.75 132.491L684.921 130.869ZM682.136 129.134C681.012 128.486 679.638 127.919 678.03 127.424L677.442 129.336C678.954 129.801 680.18 130.314 681.136 130.866L682.136 129.134ZM678.06 127.434C676.403 126.867 674.406 126.6 672.096 126.6V128.6C674.266 128.6 676.029 128.853 677.412 129.326L678.06 127.434ZM672.096 126.6C668.976 126.6 666.185 127.162 663.748 128.316L664.604 130.124C666.727 129.118 669.216 128.6 672.096 128.6V126.6ZM663.761 128.31C661.333 129.418 659.285 131.04 657.627 133.165L659.204 134.395C660.667 132.52 662.459 131.102 664.591 130.13L663.761 128.31ZM657.62 133.175C656.012 135.291 654.802 137.829 653.973 140.769L655.898 141.311C656.67 138.571 657.78 136.269 659.212 134.385L657.62 133.175ZM653.97 140.781C653.183 143.72 652.796 146.989 652.796 150.58H654.796C654.796 147.131 655.168 144.04 655.902 141.299L653.97 140.781ZM652.796 150.58C652.796 154.334 653.224 157.711 654.096 160.7L656.016 160.14C655.208 157.369 654.796 154.186 654.796 150.58H652.796ZM654.097 160.704C654.966 163.64 656.196 166.157 657.806 168.233L659.386 167.007C657.956 165.163 656.826 162.88 656.015 160.136L654.097 160.704ZM657.82 168.251C659.47 170.281 661.445 171.855 663.742 172.961L664.61 171.159C662.587 170.185 660.842 168.799 659.372 166.989L657.82 168.251ZM663.762 172.97C666.107 174.036 668.711 174.56 671.556 174.56V172.56C668.961 172.56 666.644 172.084 664.59 171.15L663.762 172.97ZM671.556 174.56C674.223 174.56 676.487 174.254 678.312 173.602L677.64 171.718C676.105 172.266 674.089 172.56 671.556 172.56V174.56ZM678.332 173.594C680.064 172.935 681.524 172.199 682.691 171.378L681.54 169.742C680.548 170.441 679.248 171.105 677.62 171.726L678.332 173.594ZM682.677 171.387C683.814 170.616 684.763 169.916 685.516 169.288L684.236 167.752C683.549 168.324 682.658 168.984 681.554 169.733L682.677 171.387ZM685.52 169.285C686.168 168.739 686.688 168.56 687.096 168.56V166.56C686.064 166.56 685.104 167.021 684.232 167.755L685.52 169.285ZM687.096 168.56C687.673 168.56 688.039 168.76 688.319 169.157L689.953 168.003C689.273 167.04 688.279 166.56 687.096 166.56V168.56ZM688.343 169.19L691.343 173.09L692.929 171.87L689.929 167.97L688.343 169.19ZM691.357 171.853C690.095 173.42 688.666 174.754 687.068 175.857L688.204 177.503C689.966 176.286 691.536 174.82 692.915 173.107L691.357 171.853ZM687.068 175.857C685.449 176.975 683.694 177.92 681.798 178.694L682.554 180.546C684.578 179.72 686.462 178.705 688.204 177.503L687.068 175.857ZM681.808 178.69C679.955 179.424 678.003 179.965 675.949 180.314L676.283 182.286C678.469 181.915 680.557 181.336 682.544 180.55L681.808 178.69ZM675.949 180.314C673.885 180.665 671.781 180.84 669.636 180.84V182.84C671.891 182.84 674.107 182.655 676.283 182.286L675.949 180.314ZM669.636 180.84C665.962 180.84 662.556 180.164 659.409 178.82L658.623 180.66C662.035 182.116 665.71 182.84 669.636 182.84V180.84ZM659.413 178.822C656.305 177.479 653.601 175.543 651.296 173.007L649.816 174.353C652.311 177.097 655.247 179.201 658.619 180.658L659.413 178.822ZM651.301 173.013C649 170.444 647.182 167.283 645.86 163.509L643.972 164.171C645.37 168.157 647.312 171.556 649.811 174.347L651.301 173.013ZM645.86 163.509C644.544 159.755 643.876 155.45 643.876 150.58H641.876C641.876 155.63 642.568 160.165 643.972 164.171L645.86 163.509ZM643.876 150.58C643.876 146.152 644.483 142.077 645.688 138.347L643.784 137.733C642.509 141.683 641.876 145.968 641.876 150.58H643.876ZM645.685 138.356C646.927 134.628 648.706 131.447 651.011 128.796L649.501 127.484C647.006 130.353 645.104 133.772 643.787 137.724L645.685 138.356ZM651.01 128.797C653.35 126.111 656.21 124.017 659.601 122.514L658.791 120.686C655.142 122.303 652.042 124.569 649.502 127.483L651.01 128.797ZM659.597 122.516C663.01 121.021 666.949 120.26 671.436 120.26V118.26C666.723 118.26 662.502 119.059 658.795 120.684L659.597 122.516ZM671.436 120.26C675.608 120.26 679.228 120.942 682.319 122.278L683.113 120.442C679.724 118.978 675.824 118.26 671.436 118.26V120.26ZM682.333 122.284C685.491 123.593 688.281 125.46 690.709 127.887L692.123 126.473C689.511 123.86 686.501 121.847 683.099 120.436L682.333 122.284ZM690.61 126.588L687.79 130.428L689.402 131.612L692.222 127.772L690.61 126.588ZM736.541 153.64H737.541V152.607L736.508 152.641L736.541 153.64ZM723.941 154.84L724.112 155.825L724.122 155.824L723.941 154.84ZM715.481 157.24L715.067 156.33L715.06 156.333L715.481 157.24ZM710.741 160.78L709.935 160.188L709.929 160.195L709.924 160.203L710.741 160.78ZM710.081 169.48L709.168 169.889L710.081 169.48ZM712.181 172.36L711.527 173.117L711.545 173.133L711.564 173.148L712.181 172.36ZM715.361 173.98L715.073 174.938L715.092 174.943L715.111 174.948L715.361 173.98ZM724.481 173.92L724.706 174.894L724.717 174.892L724.729 174.889L724.481 173.92ZM728.861 172.24L728.403 171.351L728.393 171.356L728.861 172.24ZM732.821 169.66L732.205 168.872L732.199 168.877L732.193 168.882L732.821 169.66ZM736.541 166.24L737.27 166.924L737.541 166.635V166.24H736.541ZM702.041 128.8L701.346 128.08L700.791 128.616L701.169 129.29L702.041 128.8ZM712.901 121.54L712.519 120.616L712.901 121.54ZM734.861 120.82L735.251 119.899L734.861 120.82ZM741.521 125.5L742.264 124.831L741.521 125.5ZM745.601 132.76L744.649 133.068L745.601 132.76ZM746.981 181V182H747.981V181H746.981ZM739.841 180.52L739.3 181.361L739.322 181.375L739.344 181.388L739.841 180.52ZM738.521 178.48L737.542 178.684L737.552 178.735L737.568 178.785L738.521 178.48ZM737.321 172.72L738.3 172.516L737.939 170.786L736.642 171.986L737.321 172.72ZM732.641 176.68L733.234 177.485L733.241 177.48L733.247 177.475L732.641 176.68ZM727.841 179.56L728.253 180.471L728.262 180.467L728.271 180.463L727.841 179.56ZM722.441 181.3L722.237 180.321L722.225 180.324L722.213 180.326L722.441 181.3ZM709.481 181L709.17 181.95L709.178 181.953L709.187 181.956L709.481 181ZM704.021 178L703.365 178.755L703.375 178.763L704.021 178ZM700.361 173.02L699.442 173.416L699.447 173.427L699.452 173.438L700.361 173.02ZM701.021 158.92L701.878 159.435L701.882 159.428L701.021 158.92ZM707.441 152.98L707.943 153.845L707.441 152.98ZM719.021 148.78L719.242 149.755L719.25 149.753L719.021 148.78ZM736.541 146.86L736.564 147.86L737.541 147.837V146.86H736.541ZM733.481 131.44L732.713 132.081L732.719 132.088L733.481 131.44ZM717.881 128.8L718.222 129.74L718.234 129.735L717.881 128.8ZM713.261 131.02L713.791 131.868L713.797 131.864L713.261 131.02ZM709.901 133.24L710.472 134.061L710.479 134.056L709.901 133.24ZM705.281 133.66L704.671 134.453L704.691 134.468L704.711 134.482L705.281 133.66ZM703.961 132.22L703.089 132.71L703.103 132.736L703.119 132.761L703.961 132.22ZM736.508 152.641C731.556 152.802 727.304 153.205 723.76 153.856L724.122 155.824C727.538 155.195 731.685 154.798 736.573 154.639L736.508 152.641ZM723.769 153.855C720.279 154.464 717.37 155.283 715.067 156.33L715.894 158.15C717.991 157.197 720.722 156.416 724.112 155.825L723.769 153.855ZM715.06 156.333C712.807 157.376 711.067 158.647 709.935 160.188L711.546 161.372C712.414 160.193 713.835 159.104 715.901 158.147L715.06 156.333ZM709.924 160.203C708.843 161.734 708.301 163.456 708.301 165.34H710.301C710.301 163.864 710.718 162.546 711.558 161.357L709.924 160.203ZM708.301 165.34C708.301 167.046 708.578 168.572 709.168 169.889L710.993 169.071C710.544 168.068 710.301 166.834 710.301 165.34H708.301ZM709.168 169.889C709.742 171.17 710.526 172.253 711.527 173.117L712.834 171.603C712.075 170.947 711.459 170.11 710.993 169.071L709.168 169.889ZM711.564 173.148C712.589 173.95 713.763 174.545 715.073 174.938L715.648 173.022C714.559 172.695 713.612 172.21 712.797 171.572L711.564 173.148ZM715.111 174.948C716.44 175.291 717.844 175.46 719.321 175.46V173.46C717.997 173.46 716.762 173.309 715.61 173.012L715.111 174.948ZM719.321 175.46C721.264 175.46 723.06 175.274 724.706 174.894L724.256 172.946C722.781 173.286 721.138 173.46 719.321 173.46V175.46ZM724.729 174.889C726.362 174.47 727.896 173.882 729.328 173.124L728.393 171.356C727.105 172.038 725.72 172.57 724.232 172.951L724.729 174.889ZM729.318 173.129C730.779 172.378 732.156 171.481 733.448 170.438L732.193 168.882C731.005 169.839 729.742 170.662 728.403 171.351L729.318 173.129ZM733.436 170.448C734.76 169.414 736.038 168.239 737.27 166.924L735.811 165.556C734.644 166.801 733.441 167.906 732.205 168.872L733.436 170.448ZM737.541 166.24V153.64H735.541V166.24H737.541ZM702.735 129.52C706.014 126.357 709.53 124.011 713.282 122.464L712.519 120.616C708.511 122.269 704.787 124.763 701.346 128.08L702.735 129.52ZM713.282 122.464C717.027 120.92 721.195 120.14 725.801 120.14V118.14C720.966 118.14 716.534 118.96 712.519 120.616L713.282 122.464ZM725.801 120.14C729.091 120.14 731.974 120.682 734.47 121.741L735.251 119.899C732.467 118.718 729.31 118.14 725.801 118.14V120.14ZM734.47 121.741C736.985 122.807 739.081 124.285 740.777 126.169L742.264 124.831C740.36 122.715 738.017 121.073 735.251 119.899L734.47 121.741ZM740.777 126.169C742.474 128.054 743.768 130.347 744.649 133.068L746.552 132.452C745.593 129.493 744.168 126.946 742.264 124.831L740.777 126.169ZM744.649 133.068C745.533 135.796 745.981 138.81 745.981 142.12H747.981C747.981 138.63 747.508 135.404 746.552 132.452L744.649 133.068ZM745.981 142.12V181H747.981V142.12H745.981ZM746.981 180H742.241V182H746.981V180ZM742.241 180C741.279 180 740.68 179.848 740.337 179.652L739.344 181.388C740.121 181.832 741.122 182 742.241 182V180ZM740.381 179.679C740.102 179.499 739.761 179.074 739.473 178.175L737.568 178.785C737.92 179.886 738.46 180.821 739.3 181.361L740.381 179.679ZM739.5 178.276L738.3 172.516L736.342 172.924L737.542 178.684L739.5 178.276ZM736.642 171.986C735.062 173.447 733.526 174.747 732.034 175.885L733.247 177.475C734.796 176.293 736.38 174.953 738 173.454L736.642 171.986ZM732.047 175.875C730.578 176.958 729.032 177.885 727.411 178.657L728.271 180.463C730.009 179.635 731.663 178.642 733.234 177.485L732.047 175.875ZM727.428 178.649C725.819 179.377 724.09 179.935 722.237 180.321L722.645 182.279C724.632 181.865 726.502 181.263 728.253 180.471L727.428 178.649ZM722.213 180.326C720.421 180.746 718.399 180.96 716.141 180.96V182.96C718.523 182.96 720.701 182.734 722.669 182.274L722.213 180.326ZM716.141 180.96C713.872 180.96 711.752 180.653 709.775 180.044L709.187 181.956C711.37 182.627 713.689 182.96 716.141 182.96V180.96ZM709.791 180.05C707.825 179.407 706.121 178.467 704.667 177.237L703.375 178.763C705.04 180.173 706.976 181.233 709.17 181.95L709.791 180.05ZM704.676 177.245C703.273 176.027 702.135 174.485 701.269 172.602L699.452 173.438C700.426 175.555 701.728 177.333 703.365 178.755L704.676 177.245ZM701.279 172.624C700.464 170.735 700.041 168.476 700.041 165.82H698.041C698.041 168.684 698.497 171.225 699.442 173.416L701.279 172.624ZM700.041 165.82C700.041 163.614 700.645 161.49 701.878 159.434L700.163 158.406C698.757 160.75 698.041 163.226 698.041 165.82H700.041ZM701.882 159.428C703.092 157.375 705.086 155.505 707.943 153.845L706.938 152.115C703.875 153.895 701.589 155.985 700.159 158.412L701.882 159.428ZM707.943 153.845C710.787 152.192 714.542 150.822 719.242 149.755L718.799 147.805C713.979 148.898 710.014 150.328 706.938 152.115L707.943 153.845ZM719.25 149.753C723.921 148.654 729.687 148.019 736.564 147.86L736.518 145.86C729.554 146.021 723.641 146.666 718.792 147.807L719.25 149.753ZM737.541 146.86V142.12H735.541V146.86H737.541ZM737.541 142.12C737.541 137.277 736.497 133.444 734.243 130.792L732.719 132.088C734.544 134.236 735.541 137.523 735.541 142.12H737.541ZM734.248 130.799C731.974 128.079 728.682 126.78 724.541 126.78V128.78C728.24 128.78 730.907 129.921 732.713 132.081L734.248 130.799ZM724.541 126.78C721.822 126.78 719.474 127.129 717.527 127.865L718.234 129.735C719.888 129.111 721.979 128.78 724.541 128.78V126.78ZM717.539 127.86C715.723 128.52 714.116 129.291 712.724 130.176L713.797 131.864C715.046 131.069 716.518 130.36 718.222 129.74L717.539 127.86ZM712.731 130.172C711.439 130.98 710.302 131.73 709.323 132.424L710.479 134.056C711.419 133.39 712.523 132.66 713.791 131.868L712.731 130.172ZM709.33 132.419C708.54 132.968 707.815 133.2 707.141 133.2V135.2C708.306 135.2 709.421 134.792 710.472 134.061L709.33 132.419ZM707.141 133.2C706.595 133.2 706.18 133.066 705.85 132.838L704.711 134.482C705.421 134.974 706.246 135.2 707.141 135.2V133.2ZM705.89 132.867C705.463 132.538 705.101 132.144 704.802 131.679L703.119 132.761C703.541 133.416 704.059 133.982 704.671 134.453L705.89 132.867ZM704.833 131.73L702.913 128.31L701.169 129.29L703.089 132.71L704.833 131.73ZM818.829 181V182H819.829V181H818.829ZM808.149 181H807.149V182H808.149V181ZM808.149 129.16H809.149V128.16H808.149V129.16ZM776.829 129.16V128.16H775.829V129.16H776.829ZM778.689 171.34L779.396 170.633L778.689 171.34ZM786.369 172.78L786.699 173.724L786.712 173.719L786.725 173.714L786.369 172.78ZM788.529 171.76L788.014 170.903L788.529 171.76ZM790.029 170.8L790.602 171.619L790.61 171.614L790.617 171.609L790.029 170.8ZM792.669 171.34L793.522 170.818L793.515 170.807L793.508 170.797L792.669 171.34ZM795.789 176.44L796.472 177.171L797.067 176.614L796.642 175.918L795.789 176.44ZM789.129 180.52L789.475 181.458L789.488 181.453L789.129 180.52ZM769.989 177.94L769.266 178.631L769.271 178.636L769.989 177.94ZM766.149 129.16H767.149V128.16H766.149V129.16ZM757.209 128.62L756.536 129.36L756.555 129.377L756.576 129.394L757.209 128.62ZM756.549 122.56L756.417 121.569L755.549 121.684V122.56H756.549ZM766.509 121.24L766.64 122.231L767.4 122.131L767.5 121.37L766.509 121.24ZM768.969 102.52L767.988 102.324L767.982 102.357L767.977 102.39L768.969 102.52ZM769.749 101.08L770.418 101.823L770.421 101.82L769.749 101.08ZM776.829 100.48H777.829V99.48H776.829V100.48ZM776.829 121.42H775.829V122.42H776.829V121.42ZM818.829 121.42H819.829V120.42H818.829V121.42ZM820.809 103.66L819.907 103.229L819.902 103.237L819.898 103.246L820.809 103.66ZM819.129 106L818.442 105.273L818.432 105.283L818.422 105.293L819.129 106ZM810.849 107.62L810.435 108.53L810.442 108.534L810.45 108.537L810.849 107.62ZM808.509 106L807.802 106.707V106.707L808.509 106ZM806.889 103.66L805.972 104.059L805.975 104.066L805.978 104.074L806.889 103.66ZM806.889 97.78L807.806 98.1787L807.809 98.1717L807.812 98.1646L806.889 97.78ZM808.509 95.32L809.216 96.0271L809.226 96.017L809.236 96.0066L808.509 95.32ZM810.849 93.64L810.45 92.7229L810.442 92.7262L810.435 92.7296L810.849 93.64ZM819.129 95.32L818.402 96.0066L818.421 96.0274L818.442 96.047L819.129 95.32ZM820.809 97.78L819.886 98.1646L819.896 98.1883L819.907 98.2114L820.809 97.78ZM818.829 180H808.149V182H818.829V180ZM809.149 181V129.16H807.149V181H809.149ZM808.149 128.16H776.829V130.16H808.149V128.16ZM775.829 129.16V165.64H777.829V129.16H775.829ZM775.829 165.64C775.829 168.343 776.483 170.548 777.982 172.047L779.396 170.633C778.415 169.652 777.829 168.057 777.829 165.64H775.829ZM777.982 172.047C779.432 173.497 781.298 174.2 783.489 174.2V172.2C781.76 172.2 780.425 171.663 779.396 170.633L777.982 172.047ZM783.489 174.2C784.687 174.2 785.765 174.051 786.699 173.724L786.038 171.836C785.372 172.069 784.53 172.2 783.489 172.2V174.2ZM786.725 173.714C787.605 173.379 788.381 173.015 789.043 172.617L788.014 170.903C787.477 171.225 786.812 171.541 786.013 171.846L786.725 173.714ZM789.043 172.617C789.656 172.25 790.177 171.917 790.602 171.619L789.455 169.981C789.081 170.243 788.602 170.55 788.014 170.903L789.043 172.617ZM790.617 171.609C790.793 171.48 790.931 171.404 791.032 171.362C791.133 171.319 791.174 171.32 791.169 171.32V169.32C790.535 169.32 789.944 169.625 789.441 169.991L790.617 171.609ZM791.169 171.32C791.253 171.32 791.485 171.351 791.829 171.883L793.508 170.797C792.973 169.969 792.204 169.32 791.169 169.32V171.32ZM791.816 171.862L794.936 176.962L796.642 175.918L793.522 170.818L791.816 171.862ZM795.106 175.709C793.369 177.333 791.263 178.628 788.77 179.587L789.488 181.453C792.195 180.412 794.528 178.987 796.472 177.171L795.106 175.709ZM788.782 179.582C786.293 180.501 783.73 180.96 781.089 180.96V182.96C783.967 182.96 786.765 182.459 789.475 181.458L788.782 179.582ZM781.089 180.96C776.478 180.96 773.068 179.678 770.706 177.244L769.271 178.636C772.109 181.562 776.099 182.96 781.089 182.96V180.96ZM770.712 177.249C768.385 174.814 767.149 171.237 767.149 166.36H765.149C765.149 171.563 766.472 175.706 769.266 178.631L770.712 177.249ZM767.149 166.36V129.16H765.149V166.36H767.149ZM766.149 128.16H758.829V130.16H766.149V128.16ZM758.829 128.16C758.389 128.16 758.081 128.041 757.842 127.846L756.576 129.394C757.217 129.919 757.989 130.16 758.829 130.16V128.16ZM757.881 127.88C757.715 127.729 757.549 127.44 757.549 126.82H755.549C755.549 127.8 755.823 128.711 756.536 129.36L757.881 127.88ZM757.549 126.82V122.56H755.549V126.82H757.549ZM756.68 123.551L766.64 122.231L766.377 120.249L756.417 121.569L756.68 123.551ZM767.5 121.37L769.96 102.65L767.977 102.39L765.517 121.11L767.5 121.37ZM769.949 102.716C770.033 102.297 770.199 102.02 770.418 101.823L769.08 100.337C768.498 100.86 768.144 101.543 767.988 102.324L769.949 102.716ZM770.421 101.82C770.651 101.611 770.959 101.48 771.429 101.48V99.48C770.538 99.48 769.727 99.7487 769.076 100.34L770.421 101.82ZM771.429 101.48H776.829V99.48H771.429V101.48ZM775.829 100.48V121.42H777.829V100.48H775.829ZM776.829 122.42H818.829V120.42H776.829V122.42ZM817.829 121.42V181H819.829V121.42H817.829ZM820.469 100.72C820.469 101.614 820.281 102.446 819.907 103.229L821.711 104.091C822.217 103.034 822.469 101.906 822.469 100.72H820.469ZM819.898 103.246C819.553 104.005 819.07 104.68 818.442 105.273L819.815 106.727C820.627 105.96 821.264 105.075 821.719 104.074L819.898 103.246ZM818.422 105.293C817.834 105.88 817.14 106.351 816.33 106.703L817.128 108.537C818.157 108.089 819.063 107.48 819.836 106.707L818.422 105.293ZM816.33 106.703C815.54 107.046 814.697 107.22 813.789 107.22V109.22C814.961 109.22 816.077 108.994 817.128 108.537L816.33 106.703ZM813.789 107.22C812.881 107.22 812.037 107.046 811.247 106.703L810.45 108.537C811.5 108.994 812.617 109.22 813.789 109.22V107.22ZM811.263 106.71C810.491 106.359 809.811 105.888 809.216 105.293L807.802 106.707C808.567 107.472 809.446 108.081 810.435 108.53L811.263 106.71ZM809.216 105.293C808.621 104.698 808.15 104.018 807.799 103.246L805.978 104.074C806.428 105.062 807.036 105.942 807.802 106.707L809.216 105.293ZM807.806 103.261C807.463 102.472 807.289 101.628 807.289 100.72H805.289C805.289 101.892 805.515 103.008 805.972 104.059L807.806 103.261ZM807.289 100.72C807.289 99.812 807.463 98.9683 807.806 98.1787L805.972 97.3813C805.515 98.4317 805.289 99.548 805.289 100.72H807.289ZM807.812 98.1646C808.166 97.3153 808.635 96.6074 809.216 96.0271L807.802 94.6129C807.022 95.3925 806.412 96.3247 805.966 97.3954L807.812 98.1646ZM809.236 96.0066C809.829 95.3784 810.503 94.8954 811.263 94.5504L810.435 92.7296C809.434 93.1845 808.548 93.8216 807.782 94.6334L809.236 96.0066ZM811.247 94.5571C812.037 94.2138 812.881 94.04 813.789 94.04V92.04C812.617 92.04 811.5 92.2662 810.45 92.7229L811.247 94.5571ZM813.789 94.04C814.697 94.04 815.54 94.2138 816.33 94.5571L817.128 92.7229C816.077 92.2662 814.961 92.04 813.789 92.04V94.04ZM816.33 94.5571C817.128 94.9039 817.816 95.3861 818.402 96.0066L819.856 94.6334C819.082 93.8139 818.17 93.1761 817.128 92.7229L816.33 94.5571ZM818.442 96.047C819.055 96.6259 819.537 97.3274 819.886 98.1646L821.732 97.3954C821.281 96.3126 820.642 95.3741 819.815 94.593L818.442 96.047ZM819.907 98.2114C820.281 98.994 820.469 99.8263 820.469 100.72H822.469C822.469 99.5337 822.217 98.406 821.711 97.3485L819.907 98.2114ZM873.994 121.48L873.61 122.403L873.994 121.48ZM883.114 127.78L882.38 128.46V128.46L883.114 127.78ZM888.874 137.68L887.927 138.002L887.931 138.014L888.874 137.68ZM888.874 163.54L887.931 163.206L887.928 163.215L888.874 163.54ZM883.114 173.38L882.38 172.7L883.114 173.38ZM873.994 179.68L874.369 180.607L874.378 180.603L873.994 179.68ZM849.874 179.68L849.49 180.603L849.503 180.608L849.874 179.68ZM840.754 173.38L841.488 172.7L840.754 173.38ZM834.934 163.54L833.988 163.865L833.991 163.874L834.934 163.54ZM834.934 137.68L833.99 137.349L833.988 137.355L834.934 137.68ZM840.754 127.78L841.488 128.46L840.754 127.78ZM849.874 121.48L849.494 120.555L849.49 120.557L849.874 121.48ZM875.434 167.5L876.238 168.095L876.241 168.091L875.434 167.5ZM854.014 129.22L853.599 128.31L853.593 128.313L854.014 129.22ZM848.374 133.72L847.584 133.107L847.576 133.117L848.374 133.72ZM845.014 140.98L844.047 140.725L844.045 140.734L845.014 140.98ZM848.374 167.5L847.567 168.091L847.574 168.1L848.374 167.5ZM861.994 120.26C866.322 120.26 870.189 120.981 873.61 122.403L874.378 120.557C870.679 119.019 866.546 118.26 861.994 118.26V120.26ZM873.61 122.403C877.043 123.83 879.962 125.849 882.38 128.46L883.848 127.1C881.226 124.271 878.065 122.09 874.378 120.557L873.61 122.403ZM882.38 128.46C884.796 131.066 886.648 134.241 887.927 138.002L889.821 137.358C888.46 133.359 886.473 129.934 883.848 127.1L882.38 128.46ZM887.931 138.014C889.248 141.73 889.914 145.915 889.914 150.58H891.914C891.914 145.725 891.22 141.31 889.817 137.346L887.931 138.014ZM889.914 150.58C889.914 155.286 889.247 159.491 887.931 163.206L889.817 163.874C891.221 159.909 891.914 155.474 891.914 150.58H889.914ZM887.928 163.215C886.649 166.936 884.797 170.092 882.38 172.7L883.848 174.06C886.471 171.228 888.459 167.824 889.82 163.865L887.928 163.215ZM882.38 172.7C879.962 175.311 877.043 177.33 873.61 178.757L874.378 180.603C878.065 179.07 881.226 176.889 883.848 174.06L882.38 172.7ZM873.619 178.753C870.195 180.138 866.325 180.84 861.994 180.84V182.84C866.543 182.84 870.673 182.102 874.369 180.607L873.619 178.753ZM861.994 180.84C857.622 180.84 853.71 180.138 850.245 178.752L849.503 180.608C853.238 182.102 857.406 182.84 861.994 182.84V180.84ZM850.258 178.757C846.825 177.33 843.906 175.311 841.488 172.7L840.021 174.06C842.642 176.889 845.803 179.07 849.49 180.603L850.258 178.757ZM841.488 172.7C839.069 170.09 837.196 166.931 835.877 163.206L833.991 163.874C835.392 167.829 837.399 171.23 840.021 174.06L841.488 172.7ZM835.88 163.215C834.602 159.497 833.954 155.289 833.954 150.58H831.954C831.954 155.471 832.627 159.903 833.988 163.865L835.88 163.215ZM833.954 150.58C833.954 145.912 834.601 141.724 835.88 138.005L833.988 137.355C832.627 141.316 831.954 145.728 831.954 150.58H833.954ZM835.878 138.011C837.197 134.246 839.071 131.069 841.488 128.46L840.021 127.1C837.398 129.931 835.391 133.354 833.99 137.349L835.878 138.011ZM841.488 128.46C843.906 125.849 846.825 123.83 850.258 122.403L849.49 120.557C845.803 122.09 842.642 124.271 840.021 127.1L841.488 128.46ZM850.254 122.405C853.717 120.981 857.625 120.26 861.994 120.26V118.26C857.403 118.26 853.231 119.019 849.494 120.555L850.254 122.405ZM861.994 174.5C868.238 174.5 873.05 172.403 876.238 168.095L874.63 166.905C871.899 170.597 867.75 172.5 861.994 172.5V174.5ZM876.241 168.091C879.371 163.819 880.874 157.963 880.874 150.64H878.874C878.874 157.717 877.418 163.101 874.627 166.909L876.241 168.091ZM880.874 150.64C880.874 143.279 879.371 137.402 876.241 133.129L874.627 134.311C877.417 138.118 878.874 143.521 878.874 150.64H880.874ZM876.241 133.129C873.054 128.779 868.241 126.66 861.994 126.66V128.66C867.747 128.66 871.894 130.581 874.627 134.311L876.241 133.129ZM861.994 126.66C858.841 126.66 856.034 127.199 853.599 128.31L854.429 130.13C856.554 129.161 859.067 128.66 861.994 128.66V126.66ZM853.593 128.313C851.208 129.42 849.201 131.022 847.584 133.107L849.164 134.333C850.587 132.498 852.341 131.1 854.435 130.127L853.593 128.313ZM847.576 133.117C846.003 135.201 844.833 137.745 844.047 140.725L845.981 141.235C846.715 138.455 847.785 136.159 849.172 134.323L847.576 133.117ZM844.045 140.734C843.3 143.67 842.934 146.975 842.934 150.64H844.934C844.934 147.105 845.288 143.97 845.983 141.226L844.045 140.734ZM842.934 150.64C842.934 157.963 844.438 163.819 847.567 168.091L849.181 166.909C846.391 163.101 844.934 157.717 844.934 150.64H842.934ZM847.574 168.1C850.804 172.407 855.675 174.5 861.994 174.5V172.5C856.153 172.5 851.944 170.593 849.174 166.9L847.574 168.1ZM914.54 129.04L913.548 129.166L913.825 131.344L915.286 129.706L914.54 129.04ZM918.74 125.02L919.37 125.797L918.74 125.02ZM923.42 121.96L923.876 122.85L923.884 122.846L923.42 121.96ZM928.7 119.98L928.933 120.953L928.94 120.951L928.947 120.949L928.7 119.98ZM943.52 120.94L943.114 121.854L943.123 121.858L943.131 121.861L943.52 120.94ZM949.88 125.62L949.108 126.256L949.115 126.264L949.122 126.272L949.88 125.62ZM953.78 132.88L954.735 132.584L953.78 132.88ZM955.1 181V182H956.1V181H955.1ZM944.36 181H943.36V182H944.36V181ZM941.18 131.62L940.404 132.251L940.409 132.257L940.415 132.264L941.18 131.62ZM922.76 130.06L922.278 129.184L922.272 129.187L922.76 130.06ZM915.2 136.24L914.454 135.574L914.2 135.859V136.24H915.2ZM915.2 181V182H916.2V181H915.2ZM904.46 181H903.46V182H904.46V181ZM904.46 120.22V119.22H903.46V120.22H904.46ZM913.7 122.44L914.692 122.314L914.685 122.258L914.672 122.204L913.7 122.44ZM915.286 129.706C916.572 128.264 917.933 126.962 919.37 125.797L918.11 124.243C916.587 125.478 915.148 126.856 913.794 128.374L915.286 129.706ZM919.37 125.797C920.798 124.639 922.3 123.657 923.876 122.85L922.964 121.07C921.26 121.943 919.642 123.001 918.11 124.243L919.37 125.797ZM923.884 122.846C925.491 122.004 927.173 121.373 928.933 120.953L928.467 119.007C926.547 119.467 924.709 120.156 922.956 121.074L923.884 122.846ZM928.947 120.949C930.738 120.492 932.674 120.26 934.76 120.26V118.26C932.526 118.26 930.422 118.508 928.453 119.011L928.947 120.949ZM934.76 120.26C937.968 120.26 940.745 120.801 943.114 121.854L943.926 120.026C941.255 118.839 938.192 118.26 934.76 118.26V120.26ZM943.131 121.861C945.55 122.882 947.536 124.347 949.108 126.256L950.652 124.984C948.864 122.813 946.61 121.158 943.909 120.019L943.131 121.861ZM949.122 126.272C950.742 128.156 951.98 130.45 952.825 133.176L954.735 132.584C953.82 129.63 952.458 127.084 950.638 124.968L949.122 126.272ZM952.825 133.176C953.671 135.906 954.1 138.945 954.1 142.3H956.1C956.1 138.775 955.649 135.534 954.735 132.584L952.825 133.176ZM954.1 142.3V181H956.1V142.3H954.1ZM955.1 180H944.36V182H955.1V180ZM945.36 181V142.3H943.36V181H945.36ZM945.36 142.3C945.36 137.557 944.267 133.737 941.945 130.976L940.415 132.264C942.333 134.543 943.36 137.843 943.36 142.3H945.36ZM941.956 130.989C939.633 128.13 936.124 126.78 931.64 126.78V128.78C935.716 128.78 938.567 129.99 940.404 132.251L941.956 130.989ZM931.64 126.78C928.312 126.78 925.186 127.582 922.278 129.184L923.242 130.936C925.854 129.498 928.648 128.78 931.64 128.78V126.78ZM922.272 129.187C919.444 130.767 916.839 132.901 914.454 135.574L915.946 136.906C918.201 134.379 920.636 132.393 923.248 130.933L922.272 129.187ZM914.2 136.24V181H916.2V136.24H914.2ZM915.2 180H904.46V182H915.2V180ZM905.46 181V120.22H903.46V181H905.46ZM904.46 121.22H910.88V119.22H904.46V121.22ZM910.88 121.22C911.477 121.22 911.856 121.363 912.106 121.561C912.357 121.758 912.587 122.094 912.728 122.676L914.672 122.204C914.453 121.306 914.033 120.532 913.344 119.989C912.654 119.447 911.803 119.22 910.88 119.22V121.22ZM912.708 122.566L913.548 129.166L915.532 128.914L914.692 122.314L912.708 122.566Z" fill="#5086EB" mask="url(#path-2-outside-1_44_11)"/>
</svg>
