<svg width="117" height="190" viewBox="0 0 117 190" fill="none" xmlns="http://www.w3.org/2000/svg">
<path d="M69.531 91.0046L9.27603 151.259C5.87403 154.662 4.00003 159.185 4.00003 163.996C4.00003 168.807 5.87403 173.331 9.27603 176.733C16.3 183.756 27.7265 183.756 34.7498 176.733L107.742 103.741C114.765 96.718 114.765 85.2908 107.742 78.2672L34.7498 5.27625C31.3476 1.87325 26.8246 0.000244141 22.0134 0.000244141C17.2022 0.000244141 12.679 1.87325 9.27703 5.27524C5.87403 8.67725 4.00003 13.2012 4.00003 18.0122C4.00003 22.8232 5.87403 27.3472 9.27703 30.7492L69.531 91.0046ZM14.404 10.4032C16.436 8.37125 19.1394 7.25125 22.0134 7.25125C24.8875 7.25125 27.59 8.37125 29.6222 10.4032L102.614 83.395C106.81 87.591 106.81 94.4181 102.614 98.6137L29.6218 171.606C27.5242 173.703 24.7686 174.753 22.013 174.753C19.2574 174.753 16.501 173.703 14.404 171.605C12.372 169.573 11.252 166.871 11.252 163.996C11.252 161.122 12.372 158.419 14.404 156.387L77.2223 93.5682C78.6381 92.152 78.6381 89.8564 77.2223 88.4406L14.404 25.6222C12.372 23.5892 11.252 20.8862 11.252 18.0122C11.252 15.1382 12.372 12.4362 14.404 10.4032Z" fill="#466CAE"/>
<path d="M13.0799 31.1763C19.5697 37.0447 25.2658 43.517 30.7566 50.3077C36.4391 57.3355 43.5246 62.7932 50.43 68.5605C53.971 71.5179 57.4652 74.5455 61.0591 77.4378C61.5533 77.8355 62.0388 78.2139 62.5341 78.5717C63.7962 80.8043 66.0889 82.2759 68.5053 83.4151C67.6343 85.2432 67.7111 87.4871 69.4305 88.9794C70.5222 89.9269 71.6474 91.0458 72.8279 92.1446C68.2308 96.5195 64.1939 101.405 59.89 106.081C57.3891 108.798 54.7905 111.476 51.8971 113.782C49.3394 115.82 46.4126 117.422 44.0201 119.673C41.4718 122.07 38.8852 126.473 39.275 130.203C38.2658 130.029 37.187 130.178 36.1491 130.787C30.2098 134.269 17.5028 140.191 19.317 148.599C14.2864 150.586 9.69331 153.412 7.18484 158.562C4.1907 164.709 6.11337 171.918 11.954 175.549C17.9167 179.255 23.8731 177.37 28.9772 173.276C35.6377 167.934 41.695 161.855 47.2899 155.417C47.6503 155.003 47.9225 154.571 48.1264 154.132C49.6436 153.9 51.2115 153.192 51.9043 151.722C51.9715 151.579 52.0386 151.437 52.1058 151.294C52.552 150.347 52.7059 149.359 52.625 148.423C52.955 148.073 53.2981 147.667 53.5525 147.358C55.6668 148.446 58.4823 148.145 60.0869 145.567C60.9782 144.136 61.6629 142.5 62.0827 140.791C65.5352 135.075 73.0977 132.173 78.0193 127.923C81.1654 125.205 83.4875 121.831 86.0254 118.577C88.8761 114.923 92.1156 112.056 95.7622 109.219C101.852 104.482 108.059 98.9719 109.05 90.8448C109.483 87.2945 108.589 84.7591 105.787 82.4928C104.135 81.1563 102.669 79.9586 101.36 78.6139C100.089 76.5838 98.5913 74.6626 97.0979 72.8477C95.5846 71.0087 93.5884 70.8654 91.9191 71.6649C91.1029 70.4717 90.2201 69.3734 89.3518 68.4326C84.5609 63.241 78.0589 59.8966 72.6144 55.4805C68.4034 52.065 64.4818 48.3184 60.6699 44.4626C59.5782 42.3469 58.4295 40.2775 57.1781 38.3C54.9292 34.746 51.4838 33.6109 48.4504 30.9888C45.5299 28.4642 43.0765 25.1384 40.5898 22.2016C37.7785 18.8814 35.0405 15.4964 32.4113 12.0298C30.351 9.31313 28.4543 5.78853 24.9407 4.76039C18.8646 2.98244 10.5767 9.55348 7.33424 14.1317C2.37507 21.1339 8.03365 26.6134 13.0799 31.1763Z" fill="#105FD8"/>
<path d="M31.3918 22.4571C37.4848 30.7511 45.1877 37.3022 52.4736 44.4862C59.2007 51.1192 64.1608 60.1302 72.6151 64.7544C78.2638 67.8442 83.3162 59.2123 77.6623 56.1197C70.1882 52.0317 65.5356 43.3222 59.5447 37.4151C52.9184 30.8815 45.568 24.9532 40.0265 17.41C36.2559 12.2775 27.5739 17.2604 31.3918 22.4571Z" fill="#105FD8"/>
<path d="M53.4936 153.618C59.9281 153.618 59.9388 143.618 53.4936 143.618C47.0591 143.618 47.0484 153.618 53.4936 153.618Z" fill="#105FD8"/>
<g filter="url(#filter0_d_170_64)">
<path d="M69.531 91.0046L9.27625 151.259C5.87405 154.662 4.00003 159.185 4.00003 163.996C4.00003 168.807 5.8737 173.331 9.27625 176.733C16.2996 183.756 27.7265 183.756 34.7498 176.733L107.742 103.741C114.765 96.718 114.765 85.2908 107.742 78.2674L34.7498 5.27586C31.3477 1.87367 26.8247 0 22.0134 0C17.2021 0 12.6788 1.87367 9.2766 5.2755C5.87441 8.67769 4.00038 13.201 4.00038 18.0123C4.00038 22.8236 5.87405 27.3469 9.2766 30.7491L69.531 91.0046ZM14.4042 10.4035C16.4364 8.37093 19.1394 7.25154 22.0134 7.25154C24.8874 7.25154 27.59 8.37093 29.6222 10.4035L102.614 83.3951C106.81 87.591 106.81 94.4182 102.614 98.6138L29.6218 171.606C27.5242 173.703 24.7686 174.753 22.013 174.753C19.2574 174.753 16.5015 173.703 14.4042 171.605C12.3717 169.573 11.2519 166.871 11.2519 163.996C11.2519 161.122 12.3717 158.419 14.4042 156.387L77.2223 93.5682C78.6381 92.1521 78.6381 89.8564 77.2223 88.4406L14.4042 25.6218C12.3717 23.5892 11.2519 20.8866 11.2519 18.0126C11.2523 15.1387 12.3717 12.4361 14.4042 10.4035Z" fill="#5086EB"/>
</g>
<defs>
<filter id="filter0_d_170_64" x="0" y="0" width="117.009" height="190" filterUnits="userSpaceOnUse" color-interpolation-filters="sRGB">
<feFlood flood-opacity="0" result="BackgroundImageFix"/>
<feColorMatrix in="SourceAlpha" type="matrix" values="0 0 0 0 0 0 0 0 0 0 0 0 0 0 0 0 0 0 127 0" result="hardAlpha"/>
<feOffset dy="4"/>
<feGaussianBlur stdDeviation="2"/>
<feComposite in2="hardAlpha" operator="out"/>
<feColorMatrix type="matrix" values="0 0 0 0 0 0 0 0 0 0 0 0 0 0 0 0 0 0 0.25 0"/>
<feBlend mode="normal" in2="BackgroundImageFix" result="effect1_dropShadow_170_64"/>
<feBlend mode="normal" in="SourceGraphic" in2="effect1_dropShadow_170_64" result="shape"/>
</filter>
</defs>
</svg>
