<svg width="2664" height="232" viewBox="0 0 2664 232" fill="none" xmlns="http://www.w3.org/2000/svg">
<g filter="url(#filter0_d_70_91)">
<rect x="9" y="5" width="2646" height="213.551" rx="95" fill="#05080D" fill-opacity="0.05" stroke="#47597F" stroke-width="10"/>
<path d="M161.667 133.667L204 176M126.389 147.778C99.1122 147.778 77 125.666 77 98.3889C77 71.1122 99.1122 49 126.389 49C153.666 49 175.778 71.1122 175.778 98.3889C175.778 125.666 153.666 147.778 126.389 147.778Z" stroke="#90CAF9" stroke-width="15" stroke-linecap="round" stroke-linejoin="round"/>
<path d="M337.84 89.85H316.96V147H308.275V89.85H287.35V82.515H337.84V89.85ZM377.027 101.415L351.602 160.455C351.332 161.055 350.987 161.535 350.567 161.895C350.177 162.255 349.562 162.435 348.722 162.435H342.782L351.107 144.345L332.297 101.415H339.227C339.917 101.415 340.457 101.595 340.847 101.955C341.267 102.285 341.552 102.66 341.702 103.08L353.897 131.79C354.377 133.05 354.782 134.37 355.112 135.75C355.532 134.34 355.982 133.005 356.462 131.745L368.297 103.08C368.477 102.6 368.777 102.21 369.197 101.91C369.647 101.58 370.142 101.415 370.682 101.415H377.027ZM392.158 136.02C393.628 138 395.233 139.395 396.973 140.205C398.713 141.015 400.663 141.42 402.823 141.42C407.083 141.42 410.353 139.905 412.633 136.875C414.913 133.845 416.053 129.525 416.053 123.915C416.053 120.945 415.783 118.395 415.243 116.265C414.733 114.135 413.983 112.395 412.993 111.045C412.003 109.665 410.788 108.66 409.348 108.03C407.908 107.4 406.273 107.085 404.443 107.085C401.833 107.085 399.538 107.685 397.558 108.885C395.608 110.085 393.808 111.78 392.158 113.97V136.02ZM391.753 108.48C393.673 106.11 395.893 104.205 398.413 102.765C400.933 101.325 403.813 100.605 407.053 100.605C409.693 100.605 412.078 101.115 414.208 102.135C416.338 103.125 418.153 104.61 419.653 106.59C421.153 108.54 422.308 110.97 423.118 113.88C423.928 116.79 424.333 120.135 424.333 123.915C424.333 127.275 423.883 130.41 422.983 133.32C422.083 136.2 420.778 138.705 419.068 140.835C417.388 142.935 415.318 144.6 412.858 145.83C410.428 147.03 407.683 147.63 404.623 147.63C401.833 147.63 399.433 147.165 397.423 146.235C395.443 145.275 393.688 143.955 392.158 142.275V162.435H384.103V101.415H388.918C390.058 101.415 390.763 101.97 391.033 103.08L391.753 108.48ZM465.062 119.235C465.062 117.375 464.792 115.68 464.252 114.15C463.742 112.59 462.977 111.255 461.957 110.145C460.967 109.005 459.752 108.135 458.312 107.535C456.872 106.905 455.237 106.59 453.407 106.59C449.567 106.59 446.522 107.715 444.272 109.965C442.052 112.185 440.672 115.275 440.132 119.235H465.062ZM471.542 140.61C470.552 141.81 469.367 142.86 467.987 143.76C466.607 144.63 465.122 145.35 463.532 145.92C461.972 146.49 460.352 146.91 458.672 147.18C456.992 147.48 455.327 147.63 453.677 147.63C450.527 147.63 447.617 147.105 444.947 146.055C442.307 144.975 440.012 143.415 438.062 141.375C436.142 139.305 434.642 136.755 433.562 133.725C432.482 130.695 431.942 127.215 431.942 123.285C431.942 120.105 432.422 117.135 433.382 114.375C434.372 111.615 435.782 109.23 437.612 107.22C439.442 105.18 441.677 103.59 444.317 102.45C446.957 101.28 449.927 100.695 453.227 100.695C455.957 100.695 458.477 101.16 460.787 102.09C463.127 102.99 465.137 104.31 466.817 106.05C468.527 107.76 469.862 109.89 470.822 112.44C471.782 114.96 472.262 117.84 472.262 121.08C472.262 122.34 472.127 123.18 471.857 123.6C471.587 124.02 471.077 124.23 470.327 124.23H439.862C439.952 127.11 440.342 129.615 441.032 131.745C441.752 133.875 442.742 135.66 444.002 137.1C445.262 138.51 446.762 139.575 448.502 140.295C450.242 140.985 452.192 141.33 454.352 141.33C456.362 141.33 458.087 141.105 459.527 140.655C460.997 140.175 462.257 139.665 463.307 139.125C464.357 138.585 465.227 138.09 465.917 137.64C466.637 137.16 467.252 136.92 467.762 136.92C468.422 136.92 468.932 137.175 469.292 137.685L471.542 140.61ZM519.123 147.72C515.523 147.72 512.748 146.715 510.798 144.705C508.878 142.695 507.918 139.8 507.918 136.02V108.12H502.428C501.948 108.12 501.543 107.985 501.213 107.715C500.883 107.415 500.718 106.965 500.718 106.365V103.17L508.188 102.225L510.033 88.14C510.123 87.69 510.318 87.33 510.618 87.06C510.948 86.76 511.368 86.61 511.878 86.61H515.928V102.315H529.113V108.12H515.928V135.48C515.928 137.4 516.393 138.825 517.323 139.755C518.253 140.685 519.453 141.15 520.923 141.15C521.763 141.15 522.483 141.045 523.083 140.835C523.713 140.595 524.253 140.34 524.703 140.07C525.153 139.8 525.528 139.56 525.828 139.35C526.158 139.11 526.443 138.99 526.683 138.99C527.103 138.99 527.478 139.245 527.808 139.755L530.148 143.58C528.768 144.87 527.103 145.89 525.153 146.64C523.203 147.36 521.193 147.72 519.123 147.72ZM556.335 100.695C559.665 100.695 562.665 101.25 565.335 102.36C568.005 103.47 570.285 105.045 572.175 107.085C574.065 109.125 575.505 111.6 576.495 114.51C577.515 117.39 578.025 120.615 578.025 124.185C578.025 127.785 577.515 131.025 576.495 133.905C575.505 136.785 574.065 139.245 572.175 141.285C570.285 143.325 568.005 144.9 565.335 146.01C562.665 147.09 559.665 147.63 556.335 147.63C552.975 147.63 549.945 147.09 547.245 146.01C544.575 144.9 542.295 143.325 540.405 141.285C538.515 139.245 537.06 136.785 536.04 133.905C535.05 131.025 534.555 127.785 534.555 124.185C534.555 120.615 535.05 117.39 536.04 114.51C537.06 111.6 538.515 109.125 540.405 107.085C542.295 105.045 544.575 103.47 547.245 102.36C549.945 101.25 552.975 100.695 556.335 100.695ZM556.335 141.375C560.835 141.375 564.195 139.875 566.415 136.875C568.635 133.845 569.745 129.63 569.745 124.23C569.745 118.8 568.635 114.57 566.415 111.54C564.195 108.51 560.835 106.995 556.335 106.995C554.055 106.995 552.06 107.385 550.35 108.165C548.67 108.945 547.26 110.07 546.12 111.54C545.01 113.01 544.17 114.825 543.6 116.985C543.06 119.115 542.79 121.53 542.79 124.23C542.79 129.63 543.9 133.845 546.12 136.875C548.37 139.875 551.775 141.375 556.335 141.375ZM637.762 108.93C637.402 109.59 636.847 109.92 636.097 109.92C635.647 109.92 635.137 109.755 634.567 109.425C633.997 109.095 633.292 108.735 632.452 108.345C631.642 107.925 630.667 107.55 629.527 107.22C628.387 106.86 627.037 106.68 625.477 106.68C624.127 106.68 622.912 106.86 621.832 107.22C620.752 107.55 619.822 108.015 619.042 108.615C618.292 109.215 617.707 109.92 617.287 110.73C616.897 111.51 616.702 112.365 616.702 113.295C616.702 114.465 617.032 115.44 617.692 116.22C618.382 117 619.282 117.675 620.392 118.245C621.502 118.815 622.762 119.325 624.172 119.775C625.582 120.195 627.022 120.66 628.492 121.17C629.992 121.65 631.447 122.19 632.857 122.79C634.267 123.39 635.527 124.14 636.637 125.04C637.747 125.94 638.632 127.05 639.292 128.37C639.982 129.66 640.327 131.22 640.327 133.05C640.327 135.15 639.952 137.1 639.202 138.9C638.452 140.67 637.342 142.215 635.872 143.535C634.402 144.825 632.602 145.845 630.472 146.595C628.342 147.345 625.882 147.72 623.092 147.72C619.912 147.72 617.032 147.21 614.452 146.19C611.872 145.14 609.682 143.805 607.882 142.185L609.772 139.125C610.012 138.735 610.297 138.435 610.627 138.225C610.957 138.015 611.377 137.91 611.887 137.91C612.427 137.91 612.997 138.12 613.597 138.54C614.197 138.96 614.917 139.425 615.757 139.935C616.627 140.445 617.677 140.91 618.907 141.33C620.137 141.75 621.667 141.96 623.497 141.96C625.057 141.96 626.422 141.765 627.592 141.375C628.762 140.955 629.737 140.4 630.517 139.71C631.297 139.02 631.867 138.225 632.227 137.325C632.617 136.425 632.812 135.465 632.812 134.445C632.812 133.185 632.467 132.15 631.777 131.34C631.117 130.5 630.232 129.795 629.122 129.225C628.012 128.625 626.737 128.115 625.297 127.695C623.887 127.245 622.432 126.78 620.932 126.3C619.462 125.82 618.007 125.28 616.567 124.68C615.157 124.05 613.897 123.27 612.787 122.34C611.677 121.41 610.777 120.27 610.087 118.92C609.427 117.54 609.097 115.875 609.097 113.925C609.097 112.185 609.457 110.52 610.177 108.93C610.897 107.31 611.947 105.9 613.327 104.7C614.707 103.47 616.402 102.495 618.412 101.775C620.422 101.055 622.717 100.695 625.297 100.695C628.297 100.695 630.982 101.175 633.352 102.135C635.752 103.065 637.822 104.355 639.562 106.005L637.762 108.93ZM680.658 119.235C680.658 117.375 680.388 115.68 679.848 114.15C679.338 112.59 678.573 111.255 677.553 110.145C676.563 109.005 675.348 108.135 673.908 107.535C672.468 106.905 670.833 106.59 669.003 106.59C665.163 106.59 662.118 107.715 659.868 109.965C657.648 112.185 656.268 115.275 655.728 119.235H680.658ZM687.138 140.61C686.148 141.81 684.963 142.86 683.583 143.76C682.203 144.63 680.718 145.35 679.128 145.92C677.568 146.49 675.948 146.91 674.268 147.18C672.588 147.48 670.923 147.63 669.273 147.63C666.123 147.63 663.213 147.105 660.543 146.055C657.903 144.975 655.608 143.415 653.658 141.375C651.738 139.305 650.238 136.755 649.158 133.725C648.078 130.695 647.538 127.215 647.538 123.285C647.538 120.105 648.018 117.135 648.978 114.375C649.968 111.615 651.378 109.23 653.208 107.22C655.038 105.18 657.273 103.59 659.913 102.45C662.553 101.28 665.523 100.695 668.823 100.695C671.553 100.695 674.073 101.16 676.383 102.09C678.723 102.99 680.733 104.31 682.413 106.05C684.123 107.76 685.458 109.89 686.418 112.44C687.378 114.96 687.858 117.84 687.858 121.08C687.858 122.34 687.723 123.18 687.453 123.6C687.183 124.02 686.673 124.23 685.923 124.23H655.458C655.548 127.11 655.938 129.615 656.628 131.745C657.348 133.875 658.338 135.66 659.598 137.1C660.858 138.51 662.358 139.575 664.098 140.295C665.838 140.985 667.788 141.33 669.948 141.33C671.958 141.33 673.683 141.105 675.123 140.655C676.593 140.175 677.853 139.665 678.903 139.125C679.953 138.585 680.823 138.09 681.513 137.64C682.233 137.16 682.848 136.92 683.358 136.92C684.018 136.92 684.528 137.175 684.888 137.685L687.138 140.61ZM722.402 126.48C718.712 126.6 715.562 126.9 712.952 127.38C710.372 127.83 708.257 128.43 706.607 129.18C704.987 129.93 703.802 130.815 703.052 131.835C702.332 132.855 701.972 133.995 701.972 135.255C701.972 136.455 702.167 137.49 702.557 138.36C702.947 139.23 703.472 139.95 704.132 140.52C704.822 141.06 705.617 141.465 706.517 141.735C707.447 141.975 708.437 142.095 709.487 142.095C710.897 142.095 712.187 141.96 713.357 141.69C714.527 141.39 715.622 140.97 716.642 140.43C717.692 139.89 718.682 139.245 719.612 138.495C720.572 137.745 721.502 136.89 722.402 135.93V126.48ZM696.527 107.85C699.047 105.42 701.762 103.605 704.672 102.405C707.582 101.205 710.807 100.605 714.347 100.605C716.897 100.605 719.162 101.025 721.142 101.865C723.122 102.705 724.787 103.875 726.137 105.375C727.487 106.875 728.507 108.69 729.197 110.82C729.887 112.95 730.232 115.29 730.232 117.84V147H726.677C725.897 147 725.297 146.88 724.877 146.64C724.457 146.37 724.127 145.86 723.887 145.11L722.987 140.79C721.787 141.9 720.617 142.89 719.477 143.76C718.337 144.6 717.137 145.32 715.877 145.92C714.617 146.49 713.267 146.925 711.827 147.225C710.417 147.555 708.842 147.72 707.102 147.72C705.332 147.72 703.667 147.48 702.107 147C700.547 146.49 699.182 145.74 698.012 144.75C696.872 143.76 695.957 142.515 695.267 141.015C694.607 139.485 694.277 137.685 694.277 135.615C694.277 133.815 694.772 132.09 695.762 130.44C696.752 128.76 698.357 127.275 700.577 125.985C702.797 124.695 705.692 123.645 709.262 122.835C712.832 121.995 717.212 121.515 722.402 121.395V117.84C722.402 114.3 721.637 111.63 720.107 109.83C718.577 108 716.342 107.085 713.402 107.085C711.422 107.085 709.757 107.34 708.407 107.85C707.087 108.33 705.932 108.885 704.942 109.515C703.982 110.115 703.142 110.67 702.422 111.18C701.732 111.66 701.042 111.9 700.352 111.9C699.812 111.9 699.347 111.765 698.957 111.495C698.567 111.195 698.237 110.835 697.967 110.415L696.527 107.85ZM750.038 110.55C751.478 107.43 753.248 105 755.348 103.26C757.448 101.49 760.013 100.605 763.043 100.605C764.003 100.605 764.918 100.71 765.788 100.92C766.688 101.13 767.483 101.46 768.173 101.91L767.588 107.895C767.408 108.645 766.958 109.02 766.238 109.02C765.818 109.02 765.203 108.93 764.393 108.75C763.583 108.57 762.668 108.48 761.648 108.48C760.208 108.48 758.918 108.69 757.778 109.11C756.668 109.53 755.663 110.16 754.763 111C753.893 111.81 753.098 112.83 752.378 114.06C751.688 115.26 751.058 116.64 750.488 118.2V147H742.433V101.415H747.023C747.893 101.415 748.493 101.58 748.823 101.91C749.153 102.24 749.378 102.81 749.498 103.62L750.038 110.55ZM805.095 109.515C804.855 109.845 804.615 110.1 804.375 110.28C804.135 110.46 803.805 110.55 803.385 110.55C802.935 110.55 802.44 110.37 801.9 110.01C801.36 109.62 800.685 109.2 799.875 108.75C799.095 108.3 798.12 107.895 796.95 107.535C795.81 107.145 794.4 106.95 792.72 106.95C790.47 106.95 788.49 107.355 786.78 108.165C785.07 108.945 783.63 110.085 782.46 111.585C781.32 113.085 780.45 114.9 779.85 117.03C779.28 119.16 778.995 121.545 778.995 124.185C778.995 126.945 779.31 129.405 779.94 131.565C780.57 133.695 781.455 135.495 782.595 136.965C783.765 138.405 785.16 139.515 786.78 140.295C788.43 141.045 790.275 141.42 792.315 141.42C794.265 141.42 795.87 141.195 797.13 140.745C798.39 140.265 799.425 139.74 800.235 139.17C801.075 138.6 801.765 138.09 802.305 137.64C802.875 137.16 803.43 136.92 803.97 136.92C804.63 136.92 805.14 137.175 805.5 137.685L807.75 140.61C806.76 141.84 805.635 142.89 804.375 143.76C803.115 144.63 801.75 145.365 800.28 145.965C798.84 146.535 797.325 146.955 795.735 147.225C794.145 147.495 792.525 147.63 790.875 147.63C788.025 147.63 785.37 147.105 782.91 146.055C780.48 145.005 778.365 143.49 776.565 141.51C774.765 139.5 773.355 137.04 772.335 134.13C771.315 131.22 770.805 127.905 770.805 124.185C770.805 120.795 771.27 117.66 772.2 114.78C773.16 111.9 774.54 109.425 776.34 107.355C778.17 105.255 780.405 103.62 783.045 102.45C785.715 101.28 788.775 100.695 792.225 100.695C795.435 100.695 798.255 101.22 800.685 102.27C803.145 103.29 805.32 104.745 807.21 106.635L805.095 109.515ZM824.404 107.49C826.354 105.42 828.514 103.77 830.884 102.54C833.254 101.31 835.984 100.695 839.074 100.695C841.564 100.695 843.754 101.115 845.644 101.955C847.564 102.765 849.154 103.935 850.414 105.465C851.704 106.965 852.679 108.78 853.339 110.91C853.999 113.04 854.329 115.395 854.329 117.975V147H846.274V117.975C846.274 114.525 845.479 111.855 843.889 109.965C842.329 108.045 839.944 107.085 836.734 107.085C834.364 107.085 832.144 107.655 830.074 108.795C828.034 109.935 826.144 111.48 824.404 113.43V147H816.349V80.715H824.404V107.49Z" fill="#A9A9A9" fill-opacity="0.5"/>
</g>
<defs>
<filter id="filter0_d_70_91" x="0" y="0" width="2664" height="231.551" filterUnits="userSpaceOnUse" color-interpolation-filters="sRGB">
<feFlood flood-opacity="0" result="BackgroundImageFix"/>
<feColorMatrix in="SourceAlpha" type="matrix" values="0 0 0 0 0 0 0 0 0 0 0 0 0 0 0 0 0 0 127 0" result="hardAlpha"/>
<feOffset dy="4"/>
<feGaussianBlur stdDeviation="2"/>
<feComposite in2="hardAlpha" operator="out"/>
<feColorMatrix type="matrix" values="0 0 0 0 0 0 0 0 0 0 0 0 0 0 0 0 0 0 0.25 0"/>
<feBlend mode="normal" in2="BackgroundImageFix" result="effect1_dropShadow_70_91"/>
<feBlend mode="normal" in="SourceGraphic" in2="effect1_dropShadow_70_91" result="shape"/>
</filter>
</defs>
</svg>
