<svg width="192" height="192" viewBox="0 0 192 192" fill="none" xmlns="http://www.w3.org/2000/svg">
<path d="M96.2083 137.667C119.105 137.667 137.667 119.105 137.667 96.2083C137.667 73.3115 119.105 54.75 96.2083 54.75C73.3115 54.75 54.75 73.3115 54.75 96.2083C54.75 119.105 73.3115 137.667 96.2083 137.667Z" fill="#F1A93C" stroke="#F1A93C" stroke-width="8.33333" stroke-linecap="round" stroke-linejoin="round"/>
<path d="M96.2083 5V21.5833V5ZM96.2083 170.833V187.417V170.833ZM31.5333 31.5333L43.1417 43.1417L31.5333 31.5333ZM149.275 149.275L160.883 160.883L149.275 149.275ZM5 96.2083H21.5833H5ZM170.833 96.2083H187.417H170.833ZM31.5333 160.883L43.1417 149.275L31.5333 160.883ZM149.275 43.1417L160.883 31.5333L149.275 43.1417Z" fill="#F1A93C"/>
<path d="M96.2083 5V21.5833M96.2083 170.833V187.417M31.5333 31.5333L43.1417 43.1417M149.275 149.275L160.883 160.883M5 96.2083H21.5833M170.833 96.2083H187.417M31.5333 160.883L43.1417 149.275M149.275 43.1417L160.883 31.5333" stroke="#F1A93C" stroke-width="8.33333" stroke-linecap="round" stroke-linejoin="round"/>
</svg>
