<svg width="159" height="188" viewBox="0 0 159 188" fill="none" xmlns="http://www.w3.org/2000/svg">
<path d="M138.365 167.327L144.141 44.9496H152.511C155.943 44.9496 158.705 42.1036 158.705 38.6718C158.705 35.24 155.943 32.3104 152.511 32.3104H115.932V19.7543C115.932 7.78464 107.812 0 94.9221 0H63.6161C50.7254 0 42.6896 7.78464 42.6896 19.7543V32.3104H6.27786C2.92964 32.3104 0 35.24 0 38.6718C0 42.1036 2.92964 44.9496 6.27786 44.9496H14.6486L20.4239 167.411C21.01 179.464 28.9621 187.081 41.0157 187.081H117.774C129.744 187.081 137.779 179.38 138.365 167.327ZM56.0825 20.5914C56.0825 15.8204 59.5982 12.4721 64.6207 12.4721H94.0011C99.1071 12.4721 102.623 15.8204 102.623 20.5914V32.3104H56.0825V20.5914ZM42.2714 174.526C37.4164 174.526 33.8168 170.842 33.5657 165.988L27.7064 44.9496H130.748L125.223 165.988C124.972 170.926 121.456 174.526 116.518 174.526H42.2714ZM104.213 159.794C106.975 159.794 109.068 157.534 109.152 154.352L111.663 65.9596C111.747 62.7789 109.57 60.4354 106.724 60.4354C104.13 60.4354 101.953 62.8629 101.87 65.8761L99.3582 154.352C99.2746 157.366 101.367 159.794 104.213 159.794ZM54.5761 159.794C57.4221 159.794 59.5146 157.366 59.4307 154.352L56.9196 65.8761C56.8361 62.8629 54.5761 60.4354 51.9811 60.4354C49.135 60.4354 47.0425 62.7789 47.1261 65.9596L49.7211 154.352C49.8046 157.534 51.8136 159.794 54.5761 159.794ZM84.4589 154.352V65.8761C84.4589 62.8629 82.1986 60.4354 79.4364 60.4354C76.6739 60.4354 74.3304 62.8629 74.3304 65.8761V154.352C74.3304 157.366 76.6739 159.794 79.4364 159.794C82.115 159.794 84.4589 157.366 84.4589 154.352Z" fill="#ED5E68"/>
</svg>
